<svg xmlns="http://www.w3.org/2000/svg" viewBox="0 0 512 512">
    <path
        d="M486.415,384c3.583,-6.167 5.792,-13.167 5.792,-19.417l0,-217.167c0,-6.25 -2.208,-13.208 -5.792,-19.417l-221.708,128l221.708,128Z"
        style="fill:#00599c;" />
    <path
        d="M284.415,507.292l188.083,-108.583c5.417,-3.125 10.333,-8.542 13.917,-14.708l-221.708,-128l-221.708,128c3.583,6.167 8.5,11.583 13.917,14.708l188.083,108.583c10.833,6.292 28.583,6.292 39.417,0Z"
        style="fill:#004482;" />
    <path
        d="M486.415,128c-3.583,-6.167 -8.5,-11.583 -13.917,-14.708l-188.083,-108.583c-10.833,-6.25 -28.583,-6.25 -39.417,0l-188.083,108.583c-10.833,6.25 -19.708,21.583 -19.708,34.125l0,217.167c0,6.25 2.208,13.208 5.792,19.417l443.417,-256Z"
        style="fill:#659ad2;" />
    <path
        d="M264.707,407.667c-83.625,0 -151.667,-68.042 -151.667,-151.667c-0,-83.625 68.042,-151.667 151.667,-151.667c53.958,0 104.292,29.042 131.333,75.792l-65.625,38c-13.542,-23.417 -38.708,-37.917 -65.708,-37.917c-41.833,0 -75.833,34 -75.833,75.833c0,41.792 34,75.833 75.833,75.833c27,0 52.167,-14.542 65.708,-37.917l65.625,38c-27.042,46.667 -77.375,75.708 -131.333,75.708Z"
        style="fill:#fff;" />
    <path
        d="M416.374,247.583l-16.875,0l0,-16.875l-16.833,0l0,16.875l-16.875,0l0,16.833l16.875,0l0,16.875l16.833,0l0,-16.875l16.875,0l0,-16.833Z"
        style="fill:#fff;" />
    <path
        d="M479.54,247.583l-16.833,0l0,-16.875l-16.875,0l0,16.875l-16.833,0l0,16.833l16.833,0l0,16.875l16.875,0l0,-16.875l16.833,0l0,-16.833Z"
        style="fill:#fff;" />
</svg>