<svg xmlns="http://www.w3.org/2000/svg" viewBox="0 0 512 512">
    <path
        d="M512,97.24l0,317.52c0,49.987 -40.583,90.57 -90.57,90.57l-330.31,0c-49.987,0 -90.57,-40.583 -90.57,-90.57l0,-317.52c0,-49.987 40.583,-90.57 90.57,-90.57l330.31,0c49.987,0 90.57,40.583 90.57,90.57Z"
        style="fill:#300;" />
    <path
        d="M248.39,305.93l-79.26,0l-16.12,50.09c-0.438,1.887 -2.186,3.198 -4.12,3.09l-40.14,0c-2.293,0 -3.093,-1.26 -2.4,-3.78l68.62,-197.66c0.667,-2.06 1.353,-4.393 2.06,-7c0.891,-4.58 1.35,-9.234 1.37,-13.9c-0.015,-0.103 -0.023,-0.206 -0.023,-0.31c0,-1.05 0.783,-1.948 1.823,-2.09c0.199,-0.03 0.401,-0.03 0.6,0l54.55,0c1.6,0 2.51,0.57 2.75,1.71l77.88,219.59c0.69,2.28 0,3.43 -2.06,3.43l-44.6,0c-1.577,0.175 -3.054,-0.859 -3.43,-2.4l-17.5,-50.77Zm-66.9,-43.26l54.2,0c-1.367,-4.58 -2.967,-9.727 -4.8,-15.44c-1.833,-5.713 -3.777,-11.833 -5.83,-18.36l-6.18,-19.55c-2.06,-6.52 -3.947,-12.813 -5.66,-18.88c-1.713,-6.067 -3.27,-11.6 -4.67,-16.6l-0.34,0c-1.933,9.264 -4.339,18.423 -7.21,27.44c-3.2,10.3 -6.46,20.823 -9.78,31.57c-3.32,10.747 -6.563,20.687 -9.73,29.82Z"
        style="fill:#ff9a00;" />
    <path
        d="M362.29,170.75c-7.074,0.282 -13.943,-2.467 -18.87,-7.55c-4.908,-5.299 -7.501,-12.344 -7.2,-19.56c-0.24,-7.138 2.569,-14.052 7.72,-19c5.095,-4.891 11.939,-7.549 19,-7.38c8.233,0 14.693,2.46 19.38,7.38c4.753,5.156 7.271,11.993 7,19c0.292,7.248 -2.374,14.311 -7.38,19.56c-5.212,5.138 -12.338,7.876 -19.65,7.55Zm-23.67,184.92l0,-164c0,-2.06 0.91,-3.09 2.74,-3.09l42.19,0c1.82,0 2.74,1 2.74,3.09l0,164c0,2.28 -0.91,3.43 -2.74,3.43l-41.84,0c-2.06,0.01 -3.09,-1.14 -3.09,-3.43Z"
        style="fill:#ff9a00;" />
</svg>