<svg xmlns="http://www.w3.org/2000/svg" viewBox="0 0 512 512">
    <path
        d="M207.984,31.559c-35.186,0 -63.709,27.618 -63.709,61.686l0,42.706l110.265,0l0,11.863l-159.272,0c-35.185,0 -63.709,27.618 -63.709,61.686l0,92.53c0,34.068 28.523,61.685 63.709,61.685l36.755,0l0,-52.195c0,-34.068 28.523,-61.687 63.709,-61.687l117.615,0c29.773,0 53.907,-23.369 53.907,-52.195l0,-104.393c0,-34.068 -28.522,-61.686 -63.708,-61.686l-95.563,0Zm-14.701,75.921c12.179,0 22.052,-9.56 22.052,-21.353c0,-11.793 -9.873,-21.353 -22.052,-21.353c-12.181,0 -22.054,9.56 -22.054,21.353c0,11.793 9.873,21.353 22.054,21.353Z"
        style="fill:url(#_Linear1);" />
    <path
        d="M303.543,479.971c35.186,0 63.71,-27.617 63.71,-61.685l0,-42.706l-110.266,0l0,-11.862l159.272,0c35.186,0 63.708,-27.619 63.708,-61.687l0,-92.53c0,-34.068 -28.522,-61.686 -63.708,-61.686l-36.755,0l0,52.195c0,34.07 -28.524,61.687 -63.708,61.687l-117.617,0c-29.773,0 -53.907,23.369 -53.907,52.195l0,104.393c0,34.068 28.524,61.685 63.708,61.685l95.563,0Zm14.703,-75.921c-12.181,0 -22.054,9.559 -22.054,21.352c0,11.793 9.873,21.352 22.054,21.352c12.179,0 22.052,-9.559 22.052,-21.352c0,-11.793 -9.873,-21.352 -22.052,-21.352Z"
        style="fill:url(#_Linear2);" />

    <linearGradient id="_Linear1" x1="0" y1="0" x2="1" y2="0" gradientUnits="userSpaceOnUse"
        gradientTransform="matrix(0,332.155829,-332.155829,0,199.407713,31.559375)">
        <stop offset="0" style="stop-color:#327ebd;stop-opacity:1" />
        <stop offset="1" style="stop-color:#1565a7;stop-opacity:1" />
    </linearGradient>
    <linearGradient id="_Linear2" x1="0" y1="0" x2="1" y2="0" gradientUnits="userSpaceOnUse"
        gradientTransform="matrix(0,332.156149,-332.156149,0,312.120685,147.814476)">
        <stop offset="0" style="stop-color:#ffda4b;stop-opacity:1" />
        <stop offset="1" style="stop-color:#f9c600;stop-opacity:1" />
    </linearGradient>
</svg>