<svg xmlns="http://www.w3.org/2000/svg" viewBox="0 0 512 512">
    <path
        d="M239.226,380.779c-57.006,-1.954 -111.218,-14.883 -153.373,-36.552c-3.97,-2.032 -12.636,-6.869 -12.636,-7.037c0,-0.063 1.375,0.578 3.052,1.45c20.634,10.561 46.566,19.583 72.756,25.307c41.53,9.096 87.013,11.522 131.579,6.99c42.065,-4.259 81.363,-14.621 114.911,-30.265c30.175,-14.085 54.318,-32.098 70.408,-52.474c24.693,-31.336 28.007,-67.657 9.096,-99.876c-12.241,-20.88 -32.676,-39.287 -60.73,-54.669c-2.684,-1.465 -4.794,-2.673 -4.685,-2.673c0.367,0 12.241,5.724 15.949,7.709c18.118,9.616 32.523,19.872 45.101,32.066c15.797,15.324 25.717,31.105 30.57,48.641c4.485,16.207 3.649,34.188 -2.337,50.121c-8.057,21.443 -24.525,41.178 -48.609,58.272c-39.134,27.749 -95.148,46.124 -157.28,51.587c-17.887,1.506 -35.845,1.979 -53.786,1.418l0.016,-0.016Z"
        style="fill:url(#_Radial1);" />
    <path
        d="M381.763,307.32l-0.304,0c-0.197,-0.07 -0.403,-0.106 -0.612,-0.108l-0.868,-0.032c-0.411,0.001 -0.821,0.052 -1.22,0.152l-1.22,0.38l0,7.492l-3.664,0l0,-11.204l3.664,0l0,1.616c0.226,-0.198 0.461,-0.387 0.704,-0.564c0.258,-0.195 0.528,-0.374 0.808,-0.536c0.289,-0.162 0.597,-0.29 0.916,-0.38c0.324,-0.112 0.665,-0.169 1.008,-0.168l0.396,0c0.152,0.016 0.276,0.016 0.396,0.044l-0.004,3.308Zm-13.324,8.196c-2.228,0 -3.924,-0.504 -5.112,-1.528c-1.188,-1.024 -1.772,-2.444 -1.772,-4.32c0,-1.816 0.548,-3.28 1.648,-4.364c1.1,-1.084 2.64,-1.648 4.624,-1.648c1.8,0 3.16,0.472 4.076,1.388c0.916,0.916 1.36,2.244 1.36,3.968l0,1.268l-8.044,0c0.044,0.52 0.152,0.948 0.352,1.296c0.185,0.337 0.454,0.621 0.78,0.824c0.333,0.223 0.707,0.378 1.1,0.456c0.452,0.089 0.912,0.131 1.372,0.124c0.421,0.005 0.841,-0.036 1.252,-0.124c0.388,-0.084 0.766,-0.207 1.128,-0.368c0.304,-0.124 0.58,-0.26 0.84,-0.396l0.624,-0.396l0.38,0l0,2.884l-0.824,0.304c-0.332,0.131 -0.675,0.233 -1.024,0.304l-1.22,0.228c-0.516,0.067 -1.036,0.097 -1.556,0.092l0.016,0.008Zm1.204,-7.34c-0.016,-0.748 -0.2,-1.296 -0.536,-1.696c-0.336,-0.4 -0.856,-0.58 -1.556,-0.58c-0.7,0 -1.268,0.212 -1.68,0.612c-0.412,0.4 -0.612,0.96 -0.656,1.664l4.428,0Zm-7.328,-4.168l-5.936,15.308l-3.936,0l1.772,-4.38l-4.304,-10.928l3.848,0l2.472,7.02l2.32,-7.02l3.764,0Zm-16.056,8.288l0,-2.336l-1.496,0.152c-0.39,0.041 -0.774,0.128 -1.144,0.26c-0.32,0.108 -0.564,0.26 -0.748,0.472c-0.184,0.212 -0.26,0.504 -0.26,0.868c0,0.52 0.152,0.884 0.444,1.084c0.292,0.2 0.732,0.288 1.312,0.288c0.341,-0.006 0.678,-0.078 0.992,-0.212c0.333,-0.136 0.638,-0.333 0.9,-0.58l-0,0.004Zm0,1.724l-0.672,0.548c-0.245,0.187 -0.511,0.345 -0.792,0.472c-0.309,0.145 -0.63,0.263 -0.96,0.352c-0.431,0.092 -0.871,0.134 -1.312,0.124c-0.965,0.026 -1.901,-0.338 -2.596,-1.008c-0.685,-0.648 -1.059,-1.561 -1.024,-2.504c0,-0.84 0.168,-1.512 0.52,-2.016c0.352,-0.504 0.856,-0.916 1.512,-1.22c0.656,-0.304 1.448,-0.52 2.38,-0.64l2.976,-0.276l0,-0.06c0,-0.624 -0.244,-1.036 -0.716,-1.284c-0.472,-0.248 -1.204,-0.352 -2.152,-0.352c-0.444,0 -0.948,0.076 -1.528,0.228c-0.58,0.142 -1.147,0.33 -1.696,0.564l-0.32,-0l0,-2.7c0.585,-0.145 1.176,-0.263 1.772,-0.352c0.807,-0.139 1.625,-0.21 2.444,-0.212c2.028,0 3.512,0.32 4.428,0.976c0.916,0.656 1.388,1.616 1.388,2.932l0,7.616l-3.648,0l-0.004,-1.188Zm-6.836,1.192l-10.408,0l0,-14.852l3.924,0l0,12.028l6.488,0l-0.004,2.824Zm-20.696,-2.916l0,-2.336l-1.512,0.152c-0.385,0.041 -0.764,0.129 -1.128,0.26c-0.32,0.108 -0.564,0.26 -0.748,0.472c-0.184,0.212 -0.276,0.504 -0.276,0.868c0,0.52 0.152,0.884 0.456,1.084c0.304,0.2 0.732,0.288 1.312,0.288c0.336,-0.006 0.668,-0.078 0.976,-0.212c0.336,-0.14 0.646,-0.336 0.916,-0.58l0.004,0.004Zm0,1.724l-0.672,0.548c-0.251,0.187 -0.522,0.345 -0.808,0.472c-0.307,0.151 -0.629,0.269 -0.96,0.352c-0.426,0.092 -0.861,0.134 -1.296,0.124c-0.966,0.029 -1.903,-0.335 -2.596,-1.008c-0.685,-0.649 -1.063,-1.56 -1.036,-2.504c0,-0.84 0.184,-1.512 0.536,-2.016c0.352,-0.504 0.856,-0.916 1.512,-1.22c0.752,-0.33 1.548,-0.546 2.364,-0.64l2.976,-0.276l0,-0.06c0,-0.624 -0.228,-1.036 -0.716,-1.284c-0.488,-0.248 -1.192,-0.352 -2.152,-0.352c-0.512,0.012 -1.02,0.089 -1.512,0.228c-0.583,0.144 -1.154,0.333 -1.708,0.564l-0.304,-0l0,-2.7c0.579,-0.145 1.165,-0.263 1.756,-0.352c0.811,-0.141 1.633,-0.212 2.456,-0.212c2.016,0 3.496,0.32 4.428,0.976c0.932,0.656 1.388,1.616 1.388,2.932l0,7.616l-3.648,0l-0.008,-1.188Zm-8.012,1.192l-3.664,0l0,-11.204l3.664,0l0,11.204Zm0.108,-12.792l-3.876,0l0,-2.716l3.876,0l0,2.716Zm-5.28,12.792l-3.664,0l0,-1.16l-0.808,0.596c-0.255,0.181 -0.525,0.339 -0.808,0.472c-0.59,0.281 -1.239,0.417 -1.892,0.396c-1.262,0.047 -2.465,-0.552 -3.188,-1.588c-0.78,-1.052 -1.176,-2.456 -1.176,-4.228c0,-0.976 0.136,-1.832 0.396,-2.548c0.26,-0.716 0.64,-1.344 1.1,-1.876c0.429,-0.49 0.96,-0.88 1.556,-1.144c0.612,-0.288 1.252,-0.428 1.924,-0.428c0.516,-0.014 1.03,0.048 1.528,0.184c0.38,0.124 0.84,0.32 1.372,0.58l0,-4.776l3.664,0l-0.004,15.52Zm-3.664,-3.084l0,-5.508c-0.232,-0.092 -0.471,-0.163 -0.716,-0.212c-0.247,-0.043 -0.497,-0.069 -0.748,-0.076c-0.884,0 -1.54,0.288 -1.984,0.868c-0.444,0.58 -0.672,1.404 -0.672,2.456c0,1.1 0.184,1.908 0.536,2.396c0.352,0.488 0.916,0.732 1.708,0.732c0.332,-0.005 0.661,-0.062 0.976,-0.168c0.32,-0.123 0.622,-0.287 0.9,-0.488Zm-12.456,3.388c-2.212,0 -3.924,-0.504 -5.096,-1.528c-1.172,-1.024 -1.784,-2.444 -1.784,-4.32c0,-1.816 0.564,-3.28 1.664,-4.364c1.1,-1.084 2.64,-1.648 4.624,-1.648c1.8,0 3.16,0.472 4.076,1.388c0.916,0.916 1.36,2.244 1.36,3.968l0,1.268l-8.044,0c0.044,0.52 0.152,0.948 0.352,1.296c0.185,0.337 0.454,0.621 0.78,0.824c0.304,0.212 0.672,0.368 1.1,0.456c0.428,0.088 0.868,0.124 1.372,0.124c0.421,0.005 0.841,-0.036 1.252,-0.124c0.388,-0.084 0.766,-0.207 1.128,-0.368c0.304,-0.124 0.58,-0.26 0.84,-0.396l0.624,-0.396l0.38,0l0,2.884l-0.824,0.304c-0.333,0.129 -0.675,0.23 -1.024,0.304l-1.22,0.228c-0.516,0.067 -1.036,0.097 -1.556,0.092l-0.004,0.008Zm1.22,-7.34c-0.032,-0.748 -0.2,-1.296 -0.536,-1.696c-0.336,-0.4 -0.868,-0.58 -1.556,-0.58c-0.716,0 -1.268,0.212 -1.68,0.612c-0.412,0.4 -0.624,0.96 -0.656,1.664l4.428,0Zm-12.364,7.036l0,-5.588l-0.032,-1.404c-0.011,-0.319 -0.073,-0.633 -0.184,-0.932c-0.099,-0.224 -0.271,-0.407 -0.488,-0.52c-0.295,-0.123 -0.613,-0.181 -0.932,-0.168c-0.285,0.002 -0.566,0.064 -0.824,0.184c-0.316,0.13 -0.618,0.294 -0.9,0.488l0,7.936l-3.68,0l0,-5.588l-0.032,-1.388c-0.014,-0.32 -0.081,-0.635 -0.2,-0.932c-0.1,-0.227 -0.271,-0.415 -0.488,-0.536c-0.289,-0.125 -0.602,-0.182 -0.916,-0.168c-0.305,0.005 -0.606,0.073 -0.884,0.2l-0.84,0.472l0,7.936l-3.664,0l0,-11.204l3.664,0l0,1.236c0.612,-0.472 1.176,-0.856 1.708,-1.128c0.552,-0.282 1.165,-0.424 1.784,-0.412c0.663,-0.011 1.317,0.158 1.892,0.488c0.561,0.344 1,0.856 1.252,1.464c0.704,-0.624 1.372,-1.116 2,-1.448c0.579,-0.322 1.229,-0.495 1.892,-0.504c0.548,0 1.036,0.092 1.464,0.26c0.427,0.146 0.807,0.405 1.1,0.748c0.339,0.363 0.594,0.796 0.748,1.268c0.176,0.635 0.258,1.293 0.244,1.952l0,7.28l-3.684,0.008Zm-17.184,0.228c-1.496,0 -2.58,-0.304 -3.268,-0.884c-0.688,-0.58 -1.008,-1.54 -1.008,-2.868l0,-5.236l-1.404,0l0,-2.444l1.404,0l0,-3.188l3.664,0l0,3.188l3.524,0l0,2.444l-3.524,0l0,4.992c0.006,0.272 0.063,0.541 0.168,0.792c0.11,0.234 0.292,0.426 0.52,0.548c0.339,0.158 0.711,0.231 1.084,0.212c0.264,-0.011 0.526,-0.053 0.78,-0.124c0.228,-0.044 0.449,-0.121 0.656,-0.228l0.32,0l0,2.472l-1.268,0.228c-0.547,0.066 -1.097,0.097 -1.648,0.092l0,0.004Zm-8.744,0.076c-0.903,0.007 -1.802,-0.112 -2.672,-0.352c-0.76,-0.216 -1.471,-0.579 -2.092,-1.068c-0.597,-0.492 -1.068,-1.12 -1.372,-1.832c-0.347,-0.82 -0.514,-1.706 -0.488,-2.596c0,-1.084 0.168,-1.984 0.536,-2.732c0.329,-0.724 0.82,-1.362 1.436,-1.864c0.617,-0.479 1.322,-0.831 2.076,-1.036c0.806,-0.22 1.637,-0.333 2.472,-0.336c1.353,-0.003 2.689,0.305 3.904,0.9l0,2.992l-0.472,0c-0.17,-0.154 -0.349,-0.297 -0.536,-0.428c-0.216,-0.152 -0.444,-0.304 -0.704,-0.444c-0.26,-0.14 -0.564,-0.26 -0.9,-0.352c-0.362,-0.108 -0.738,-0.16 -1.116,-0.152c-0.932,0 -1.664,0.304 -2.168,0.932c-0.504,0.628 -0.78,1.464 -0.78,2.52c0,1.116 0.276,1.952 0.824,2.504c0.548,0.552 1.284,0.824 2.184,0.824c0.411,0.006 0.821,-0.039 1.22,-0.136c0.352,-0.092 0.64,-0.228 0.9,-0.368c0.26,-0.14 0.444,-0.288 0.624,-0.428l0.444,-0.412l0.472,0l0,2.992l-0.716,0.304c-0.28,0.109 -0.565,0.201 -0.856,0.276l-0.992,0.212c-0.41,0.055 -0.823,0.081 -1.236,0.076l0.008,0.004Zm-11.188,0c-2.228,0 -3.924,-0.504 -5.112,-1.512c-1.188,-1.008 -1.772,-2.456 -1.772,-4.32c0,-1.832 0.548,-3.296 1.664,-4.38c1.116,-1.084 2.64,-1.632 4.624,-1.632c1.8,0 3.16,0.456 4.06,1.388c0.9,0.932 1.36,2.244 1.36,3.968l0,1.252l-8.028,0c0.032,0.52 0.152,0.948 0.352,1.296c0.178,0.341 0.441,0.63 0.764,0.84c0.32,0.2 0.688,0.352 1.1,0.444c0.451,0.095 0.911,0.14 1.372,0.136c0.426,0.001 0.852,-0.045 1.268,-0.136c0.412,-0.092 0.78,-0.212 1.128,-0.352l0.824,-0.412l0.624,-0.38l0.396,0l0,2.868l-0.824,0.32c-0.335,0.118 -0.677,0.214 -1.024,0.288c-0.406,0.107 -0.819,0.189 -1.236,0.244c-0.511,0.06 -1.026,0.085 -1.54,0.076l0,0.004Zm1.22,-7.34c-0.016,-0.732 -0.212,-1.296 -0.548,-1.68c-0.336,-0.384 -0.856,-0.58 -1.556,-0.58c-0.7,0 -1.268,0.2 -1.664,0.612c-0.417,0.449 -0.656,1.035 -0.672,1.648l4.44,-0Zm-7.372,-0.856l-0.304,0c-0.195,-0.053 -0.395,-0.089 -0.596,-0.108l-0.884,-0.032c-0.406,-0 -0.811,0.051 -1.204,0.152c-0.428,0.108 -0.84,0.244 -1.236,0.38l0,7.508l-3.664,0l0,-11.204l3.664,0l0,1.604c0.222,-0.198 0.458,-0.381 0.704,-0.548c0.251,-0.205 0.522,-0.385 0.808,-0.536c0.26,-0.152 0.564,-0.288 0.932,-0.396c0.321,-0.104 0.655,-0.161 0.992,-0.168l0.396,0.016c0.133,0.001 0.265,0.012 0.396,0.032l-0.004,3.3Zm-9.412,7.904l-3.664,0l0,-11.204l3.664,0l0,11.204Zm0.108,-12.804l-3.876,0l0,-2.716l3.876,0l0,2.716Zm-4.58,5.388c0.022,1.305 -0.31,2.592 -0.96,3.724c-0.577,1.031 -1.407,1.898 -2.412,2.52c-0.808,0.488 -1.68,0.808 -2.64,0.96c-1.006,0.143 -2.02,0.214 -3.036,0.212l-4.884,0l0,-14.852l4.84,0c1.031,-0.008 2.062,0.059 3.084,0.2c0.951,0.137 1.865,0.464 2.688,0.96c1.018,0.616 1.856,1.489 2.428,2.532c0.58,1.052 0.9,2.304 0.9,3.74l-0.008,0.004Zm-4.028,-0.032c0,-0.976 -0.168,-1.816 -0.536,-2.504c-0.353,-0.701 -0.919,-1.272 -1.616,-1.632c-0.52,-0.273 -1.093,-0.429 -1.68,-0.456l-2.092,-0.044l-0.076,0l0,9.296l0.076,0l2.228,-0.044c0.611,-0.028 1.205,-0.212 1.724,-0.536c0.633,-0.375 1.142,-0.927 1.464,-1.588c0.358,-0.779 0.53,-1.631 0.504,-2.488l0.004,-0.004Zm-20.544,7.74c-2.212,0 -3.924,-0.504 -5.096,-1.512c-1.172,-1.008 -1.784,-2.444 -1.784,-4.32c0,-1.832 0.564,-3.28 1.664,-4.38c1.1,-1.1 2.64,-1.632 4.624,-1.632c1.8,0 3.16,0.456 4.06,1.388c0.9,0.932 1.372,2.244 1.372,3.968l0,1.252l-8.044,0c0.032,0.52 0.152,0.96 0.352,1.312c0.185,0.337 0.454,0.621 0.78,0.824c0.333,0.22 0.707,0.371 1.1,0.444c0.451,0.095 0.911,0.14 1.372,0.136c0.421,0.001 0.841,-0.045 1.252,-0.136c0.412,-0.092 0.792,-0.2 1.128,-0.352c0.289,-0.117 0.57,-0.255 0.84,-0.412l0.612,-0.38l0.396,0l0,2.884l-0.824,0.304c-0.333,0.129 -0.675,0.23 -1.024,0.304l-1.236,0.228c-0.511,0.06 -1.026,0.086 -1.54,0.076l-0.004,0.004Zm1.22,-7.328c-0.016,-0.748 -0.2,-1.312 -0.536,-1.696c-0.336,-0.384 -0.868,-0.58 -1.556,-0.58c-0.716,0 -1.268,0.2 -1.68,0.612c-0.412,0.412 -0.624,0.96 -0.656,1.664l4.428,0Zm-8.76,7.036l-3.664,0l0,-15.524l3.664,0l0,15.524Zm-4.336,-5.752c0,1.784 -0.488,3.236 -1.436,4.336c-0.948,1.1 -2.136,1.632 -3.524,1.632c-0.58,0 -1.1,-0.06 -1.528,-0.184c-0.485,-0.142 -0.951,-0.342 -1.388,-0.596l0,4.672l-3.664,0l0,-15.308l3.664,0l0,1.176c0.505,-0.421 1.058,-0.779 1.648,-1.068c0.606,-0.285 1.27,-0.426 1.94,-0.412c1.36,0 2.412,0.52 3.16,1.54c0.748,1.02 1.128,2.444 1.128,4.212Zm-3.756,0.06c0,-1.084 -0.184,-1.876 -0.536,-2.364c-0.352,-0.488 -0.9,-0.748 -1.648,-0.748c-0.331,0.006 -0.659,0.057 -0.976,0.152c-0.32,0.092 -0.64,0.26 -0.96,0.456l0,5.632c0.2,0.076 0.412,0.136 0.64,0.168c0.228,0.032 0.52,0.044 0.84,0.044c0.884,0 1.556,-0.276 1.984,-0.824c0.428,-0.548 0.656,-1.388 0.656,-2.52l0,0.004Zm-12.912,5.692l0,-5.6l-0.032,-1.388c-0.016,-0.38 -0.076,-0.688 -0.184,-0.932c-0.108,-0.244 -0.276,-0.412 -0.488,-0.52c-0.294,-0.124 -0.613,-0.182 -0.932,-0.168c-0.283,0.004 -0.562,0.061 -0.824,0.168c-0.309,0.142 -0.604,0.311 -0.884,0.504l0,7.936l-3.692,0l0,-5.6l-0.032,-1.388c-0.015,-0.32 -0.083,-0.634 -0.2,-0.932c-0.096,-0.226 -0.269,-0.41 -0.488,-0.52c-0.289,-0.125 -0.602,-0.182 -0.916,-0.168c-0.3,0.005 -0.596,0.073 -0.868,0.2c-0.292,0.135 -0.573,0.293 -0.84,0.472l0,7.936l-3.664,0l0,-11.204l3.664,0l0,1.236c0.596,-0.488 1.16,-0.856 1.696,-1.128c0.553,-0.279 1.165,-0.421 1.784,-0.412c0.716,-0 1.36,0.168 1.908,0.488c0.548,0.32 0.948,0.808 1.236,1.448c0.609,-0.554 1.28,-1.036 2,-1.436c0.583,-0.326 1.24,-0.5 1.908,-0.504c0.499,-0.009 0.995,0.074 1.464,0.244c0.42,0.16 0.797,0.416 1.1,0.748c0.326,0.376 0.574,0.812 0.732,1.284c0.168,0.504 0.244,1.144 0.244,1.94l0,7.296l-3.692,0Zm-15.568,0l-3.664,0l0,-11.204l3.664,0l0,11.204Zm0.108,-12.792l-3.876,0l0,-2.732l3.876,0l0,2.732Zm-11.036,13.064c-1.204,0 -2.244,-0.124 -3.16,-0.336c-0.916,-0.212 -1.74,-0.488 -2.52,-0.808l0,-3.54l0.368,0c0.78,0.64 1.632,1.116 2.58,1.464c0.88,0.324 1.81,0.494 2.748,0.504c0.228,0 0.52,-0.032 0.884,-0.06c0.303,-0.037 0.6,-0.114 0.884,-0.228c0.262,-0.103 0.498,-0.264 0.688,-0.472c0.2,-0.214 0.304,-0.5 0.288,-0.792c0.009,-0.362 -0.162,-0.705 -0.456,-0.916c-0.331,-0.236 -0.705,-0.407 -1.1,-0.504l-1.708,-0.38c-0.573,-0.118 -1.139,-0.266 -1.696,-0.444c-1.204,-0.396 -2.076,-0.948 -2.596,-1.632c-0.52,-0.684 -0.78,-1.54 -0.78,-2.58c0,-1.388 0.612,-2.504 1.848,-3.372c1.236,-0.868 2.776,-1.284 4.624,-1.284c0.932,-0.006 1.862,0.081 2.776,0.26c0.912,0.184 1.74,0.428 2.456,0.732l0,3.388l-0.336,0c-0.64,-0.506 -1.355,-0.908 -2.12,-1.192c-0.822,-0.322 -1.697,-0.488 -2.58,-0.488c-0.306,-0.005 -0.613,0.015 -0.916,0.06c-0.297,0.05 -0.585,0.143 -0.856,0.276c-0.247,0.106 -0.465,0.268 -0.64,0.472c-0.174,0.192 -0.267,0.445 -0.26,0.704c0,0.38 0.136,0.672 0.412,0.9c0.276,0.228 0.84,0.428 1.648,0.612l1.512,0.32c0.526,0.121 1.045,0.269 1.556,0.444c1.084,0.368 1.892,0.868 2.412,1.496c0.52,0.628 0.792,1.464 0.792,2.488c0,1.48 -0.612,2.672 -1.832,3.556c-1.22,0.884 -2.856,1.36 -4.928,1.36l0.008,-0.008Zm238.908,-25.24l-100.72,0l0,-143.62l37.896,0l0,116.256l62.82,0l0.004,27.364Zm-110.608,-71.704c0,13.368 -3.068,25.352 -9.22,35.928c-6.152,10.576 -13.92,18.696 -23.304,24.36c-7.801,4.818 -16.507,7.987 -25.58,9.312c-9.22,1.388 -19.032,2.076 -29.44,2.076l-47.208,0l0,-143.64l46.812,0c10.608,0 20.528,0.64 29.776,1.94c9.237,1.285 18.108,4.471 26.052,9.356c9.838,5.953 17.944,14.386 23.504,24.452c5.74,10.256 8.608,22.344 8.608,36.232l0,-0.016Zm-38.904,-0.288c0,-9.464 -1.708,-17.552 -5.128,-24.268c-3.42,-6.716 -8.652,-11.98 -15.752,-15.78c-4.992,-2.659 -10.514,-4.171 -16.164,-4.428l-20.208,-0.396l-0.716,0l0,89.928l0.716,0l21.536,-0.444c5.832,-0.288 11.384,-2.016 16.668,-5.16c6.212,-3.724 10.944,-8.884 14.18,-15.432c3.236,-6.548 4.868,-14.576 4.868,-24.024l-0,0.004Zm-168.164,74.54c-11.552,0 -21.704,-1.068 -30.448,-3.188c-8.744,-2.12 -16.864,-4.76 -24.376,-7.904l-0,-34.156l3.448,0c7.572,6.12 15.904,10.804 25.032,14.088c9.128,3.284 17.964,4.928 26.54,4.928c2.168,0 5.02,-0.228 8.564,-0.688c3.544,-0.46 6.396,-1.16 8.564,-2.12c2.535,-1.022 4.816,-2.585 6.684,-4.58c1.832,-1.972 2.732,-4.548 2.732,-7.768c0,-3.6 -1.48,-6.516 -4.456,-8.776c-2.976,-2.26 -6.516,-3.892 -10.636,-4.928l-16.468,-3.664c-5.536,-1.075 -11,-2.493 -16.36,-4.244c-11.692,-3.924 -20.072,-9.204 -25.124,-15.812c-5.052,-6.608 -7.6,-14.928 -7.6,-24.892c0,-13.448 5.968,-24.328 17.932,-32.66c11.964,-8.332 26.876,-12.5 44.78,-12.5c8.997,0 17.972,0.874 26.8,2.608c8.88,1.74 16.836,4.092 23.872,7.052l0,32.8l-3.344,0c-5.616,-4.564 -12.456,-8.424 -20.528,-11.584c-8.072,-3.16 -16.36,-4.732 -24.876,-4.732c-2.985,-0.027 -5.967,0.203 -8.912,0.688c-2.868,0.528 -5.661,1.399 -8.32,2.596c-2.367,1.039 -4.462,2.613 -6.12,4.596c-1.724,2.032 -2.596,4.288 -2.596,6.792c0,3.664 1.372,6.58 4.104,8.732c2.732,2.152 8.028,4.104 15.856,5.844l14.652,3.176c4.684,1.036 9.708,2.444 15.048,4.244c10.456,3.6 18.256,8.44 23.352,14.528c5.096,6.088 7.648,14.088 7.648,24.068c0,14.272 -5.892,25.748 -17.676,34.432c-11.784,8.684 -27.716,13.02 -47.772,13.02l0.004,0.004Z"
        style="fill:#3d7ac0;" />
    <path
        d="M124.652,356.447c-0.932,0 -1.696,0.656 -1.696,1.464c0,0.808 0.764,1.48 1.696,1.48c0.932,0 1.68,-0.672 1.68,-1.48c0,-0.808 -0.748,-1.464 -1.68,-1.464Zm72.404,13.172c-1.448,0 -2.64,1.024 -2.64,2.288c0,1.264 1.192,2.304 2.64,2.304c1.448,0 2.64,-1.024 2.64,-2.304c0,-1.28 -1.176,-2.288 -2.64,-2.288Zm-37.576,-4.976c-1.16,0 -2.108,0.824 -2.108,1.848c0,1.024 0.948,1.832 2.108,1.832c1.16,0 2.12,-0.824 2.12,-1.832c0,-1.008 -0.948,-1.848 -2.12,-1.848Zm78.74,6.456c-1.816,0 -3.296,1.284 -3.296,2.868c0,1.584 1.48,2.868 3.296,2.868c1.816,0 3.296,-1.284 3.296,-2.868c0,-1.584 -1.48,-2.868 -3.296,-2.868Zm42.508,-2.212c-2.288,0 -4.136,1.604 -4.136,3.588c0,1.984 1.848,3.588 4.136,3.588c2.288,0 4.12,-1.616 4.12,-3.588c0,-1.972 -1.848,-3.588 -4.12,-3.588Zm42.584,-7.296c-2.84,0 -5.144,2 -5.144,4.488c0,2.488 2.304,4.472 5.144,4.472c2.84,0 5.16,-2 5.16,-4.472c0,-2.472 -2.304,-4.488 -5.16,-4.488Zm42.628,-13.356c-3.556,0 -6.44,2.52 -6.44,5.616c0,3.096 2.884,5.6 6.44,5.6c3.556,0 6.456,-2.52 6.456,-5.6c0,-3.08 -2.9,-5.616 -6.456,-5.616Zm40.812,-17.752c-3.952,0 -7.16,2.776 -7.16,6.228c0,3.452 3.204,6.228 7.16,6.228c3.956,0 7.16,-2.792 7.16,-6.228c0,-3.436 -3.204,-6.228 -7.16,-6.228Zm37.212,-25.536c-4.396,0 -7.968,3.1 -7.968,6.912c0,3.812 3.572,6.928 7.968,6.928c4.396,0 7.952,-3.1 7.952,-6.928c0,-3.828 -3.556,-6.912 -7.952,-6.912Zm30.676,-35.928c-5.724,0 -10.348,4.028 -10.348,9.004c0,4.976 4.624,8.988 10.348,8.988c5.724,0 10.348,-4.028 10.348,-8.988c0,-4.96 -4.64,-9.004 -10.348,-9.004Zm13.172,-37.272c-4.396,0 -7.952,3.1 -7.952,6.928c0,3.828 3.556,6.912 7.952,6.912c4.396,0 7.968,-3.1 7.968,-6.912c0,-3.812 -3.556,-6.928 -7.968,-6.928Zm-4.44,-23.26c3.144,0 5.692,-2.212 5.692,-4.928c0,-2.716 -2.548,-4.944 -5.692,-4.944c-3.144,0 -5.676,2.212 -5.676,4.944c0,2.732 2.548,4.928 5.676,4.928Zm-13.872,-26.876c2.244,0 4.06,-1.572 4.06,-3.524c0,-1.952 -1.832,-3.524 -4.06,-3.524c-2.228,0 -4.076,1.572 -4.076,3.524c0,1.952 1.832,3.524 4.076,3.524Zm-15.276,-22.544c-1.48,0 -2.7,1.068 -2.7,2.364c0,1.296 1.22,2.352 2.7,2.352c1.48,0 2.716,-1.052 2.716,-2.352c0,-1.3 -1.22,-2.364 -2.716,-2.364Zm-16.24,-9.232c0.992,0 1.8,-0.704 1.8,-1.556c0,-0.852 -0.808,-1.572 -1.8,-1.572c-0.992,0 -1.8,0.704 -1.8,1.572c0,0.868 0.808,1.556 1.8,1.556"
        style="fill:#3d7ac0;" />

    <radialGradient id="_Radial1" cx="0" cy="0" r="1" gradientUnits="userSpaceOnUse"
        gradientTransform="matrix(-73.116727,-143.036771,242.281689,-124.470682,462.619577,296.660709)">
        <stop offset="0" style="stop-color:#656f71;stop-opacity:1" />
        <stop offset="1" style="stop-color:#d3d4cf;stop-opacity:1" />
    </radialGradient>
</svg>