<svg xmlns="http://www.w3.org/2000/svg" viewBox="0 0 512 512">
    <path
        d="M90.28,6.17l331,0c49.784,-0 90.75,40.966 90.75,90.75l0,318.16c0,49.784 -40.966,90.75 -90.75,90.75l-331,0c-49.784,0 -90.75,-40.966 -90.75,-90.75l0,-318.16c-0,-49.784 40.966,-90.75 90.75,-90.75Z"
        style="fill:#1e3101;" />
    <path
        d="M110.38,356.56l0,-219.68c0,-1.6 0.68,-2.4 2.06,-2.4c3.66,0 8.013,-0.057 13.06,-0.17c5.047,-0.113 10.49,-0.23 16.33,-0.35l18.57,-0.34c6.533,-0.12 13.007,-0.18 19.42,-0.18c17.42,0 32.087,2.18 44,6.54c10.756,3.631 20.566,9.621 28.71,17.53c6.904,6.854 12.241,15.125 15.64,24.24c3.219,8.869 4.85,18.235 4.82,27.67c0,18.34 -4.24,33.467 -12.72,45.38c-8.535,11.973 -20.536,21.048 -34.38,26c-15.43,5.551 -31.733,8.288 -48.13,8.08c-5.047,0 -8.6,-0.06 -10.66,-0.18c-2.06,-0.11 -5.16,-0.17 -9.28,-0.17l0,67.73c0.207,1.483 -0.838,2.875 -2.32,3.09c-0.255,0.04 -0.515,0.04 -0.77,0l-41.95,0c-1.6,-0.04 -2.4,-0.95 -2.4,-2.79Zm47.44,-180.83l0,71.17c2.973,0.233 5.723,0.347 8.25,0.34l11.34,0c8.321,0.12 16.611,-1.04 24.58,-3.44c6.811,-2.023 12.9,-5.959 17.54,-11.34c4.467,-5.267 6.7,-12.6 6.7,-22c0.173,-6.648 -1.562,-13.208 -5,-18.9c-3.627,-5.513 -8.866,-9.777 -15,-12.21c-7.99,-3.101 -16.524,-4.56 -25.09,-4.29c-5.5,0 -10.37,0.057 -14.61,0.17c-4.24,0.113 -7.163,0.283 -8.77,0.51l0.06,-0.01Z"
        style="fill:#99e83f;" />
    <path
        d="M400.53,325.28l0,28.19c0,2.52 -0.917,4.01 -2.75,4.47c-4.513,1.41 -9.104,2.559 -13.75,3.44c-5.445,0.97 -10.969,1.428 -16.5,1.37c-14.9,0 -26.587,-3.897 -35.06,-11.69c-8.473,-7.793 -12.713,-20.283 -12.72,-37.47l0,-85.26l-20.3,0c-1.83,0 -2.75,-1 -2.75,-3.09l0,-34.07c0,-1.83 1,-2.75 3.1,-2.75l20.28,0c0.227,-3.893 0.513,-8.42 0.86,-13.58c0.35,-5.15 0.8,-10.31 1.38,-15.47c0.58,-5.16 1.08,-9.34 1.54,-12.54c0.219,-0.684 0.558,-1.324 1,-1.89c0.446,-0.559 1.043,-0.98 1.72,-1.21l40.95,-5.12c0.622,-0.184 1.288,-0.153 1.89,0.09c0.46,0.23 0.52,0.83 0.52,2c-0.46,5.273 -0.793,12.437 -1,21.49c-0.207,9.053 -0.437,17.817 -0.69,26.29l32,0c1.38,0 2.07,0.92 2.07,2.75l0,34.73c0.169,1.126 -0.599,2.198 -1.72,2.4l-32.73,-0l0,73.57c0,7.8 1.333,13.36 4,16.68c2.667,3.32 7.537,4.987 14.61,5c2.06,0 4,-0.05 5.85,-0.17c1.85,-0.12 3.66,-0.29 5.5,-0.52c0.623,-0.23 1.318,-0.168 1.89,0.17c0.624,0.544 0.929,1.371 0.81,2.19Z"
        style="fill:#99e83f;" />
</svg>