<svg xmlns="http://www.w3.org/2000/svg" viewBox="0 0 512 512"
    style="fill: var(--primary-color);; stroke: none; stroke-width: 32px; stroke-linecap: round; stroke-linejoin: round;">
    <path
        d="M331.334,448.252c11.469,-17.684 22.964,-40.421 31.225,-69.6c19.074,7.326 32.16,16.067 40.194,22.964c-20.589,20.438 -45.221,36.328 -72.353,46.61l0.935,0l0,0.025Zm-222.315,-46.863c8.488,-6.897 21.347,-15.41 40.421,-22.989c8.488,29.406 19.528,52.143 31.225,69.827c-26.728,-10.509 -50.956,-26.45 -71.191,-46.838l-0.455,0Zm268.698,-168.353c-0.707,-20.463 -2.779,-40.901 -6.189,-61.086c25.263,-9.196 43.629,-20.21 56.488,-30.316c17.937,27.436 29.027,58.787 32.387,91.402l-82.686,0Zm-226.686,-106.105c-13.364,-4.926 -25.97,-11.722 -37.415,-20.21c19.352,-18.518 42.139,-33.095 67.048,-42.947c-10.787,16.067 -21.347,36.733 -29.861,63.158l0.253,0l-0.025,0Zm180.303,-63.158c24.935,9.802 47.697,24.404 67.048,42.947c-11.469,8.463 -24.05,15.259 -37.415,20.21c-6.846,-22.383 -16.901,-43.655 -29.861,-63.158l0.227,0Zm-4.598,119.419c2.274,15.158 4.598,31.478 5.053,49.844l-151.578,0c0.682,-18.366 2.274,-34.914 4.598,-49.844c46.863,8.438 94.838,8.438 141.701,0l0.227,0Zm-70.737,-39.739c-22.989,0 -43.2,-1.819 -60.379,-4.573c18.341,-56.514 46.838,-79.25 60.379,-87.284c13.086,8.034 41.81,30.998 60.177,87.284c-19.907,3.107 -40.017,4.648 -60.177,4.573Zm-172.244,-1.819c17.179,13.061 36.328,23.293 56.716,30.316c-3.411,20.21 -5.482,40.598 -6.189,61.086l-83.621,0c3.638,-32.69 15.057,-64.042 33.322,-91.402l-0.253,0l0.025,0Zm-33.095,137.33l83.621,0c0.909,19.756 2.274,37.895 5.053,54.442c-21.17,7.276 -40.901,18.139 -58.358,32.135c-16.522,-26.198 -26.88,-55.806 -30.316,-86.577Zm205.338,36.758c-27.537,0 -51.208,2.274 -71.873,5.962c-2.021,-14.147 -3.335,-28.396 -3.916,-42.695l151.578,0c-0.682,15.36 -1.844,29.81 -3.663,42.695c-23.798,-4.295 -47.949,-6.366 -72.126,-6.189l0,0.227Zm0,144.682c-13.768,-8.261 -44.084,-32.842 -62.476,-94.155c20.64,-3.36 41.558,-4.901 62.476,-4.598c24.126,0 44.791,1.592 62.703,4.598c-18.366,61.996 -48.682,85.894 -62.476,94.155l-0.227,0Zm174.997,-95.09c-17.432,-14.021 -37.162,-24.884 -58.332,-32.135c2.779,-17.962 4.446,-36.05 5.053,-54.215l83.621,0c-3.461,30.695 -13.819,60.227 -30.316,86.349l-0.025,0Zm-174.997,-361.944c-139.528,-0 -252.631,113.103 -252.631,252.631c0,139.528 113.103,252.631 252.631,252.631c139.528,0 252.631,-113.103 252.631,-252.631c0,-139.528 -113.103,-252.631 -252.631,-252.631Z" />
</svg>
