<?xml version="1.0" encoding="UTF-8" standalone="no"?><!DOCTYPE svg PUBLIC "-//W3C//DTD SVG 1.1//EN" "http://www.w3.org/Graphics/SVG/1.1/DTD/svg11.dtd"><svg width="100%" height="100%" viewBox="0 0 44 44" version="1.1" xmlns="http://www.w3.org/2000/svg" xmlns:xlink="http://www.w3.org/1999/xlink" xml:space="preserve" xmlns:serif="http://www.serif.com/" style="fill-rule:evenodd;clip-rule:evenodd;stroke-linecap:round;stroke-linejoin:round;stroke-miterlimit:1.5;"><path id="Background" d="M21.661,24.214c0,0 -6.706,-7.266 -8.86,-8.636c-1.209,-0.769 -2.327,-0.716 -3.594,-0.047c-1.45,0.766 -4.416,3.732 -5.107,5.107c-0.576,1.148 -0.281,2.121 0.495,3.145c1.519,2.004 8.85,8.645 8.85,8.645c5.03,5.03 12.301,4.504 16.505,0.299c0,0 7.434,-6.886 8.933,-8.933c0.709,-0.967 0.862,-2.059 0.299,-3.117c-0.734,-1.382 -3.722,-4.37 -5.172,-5.172c-1.166,-0.646 -2.423,-0.856 -3.529,-0.112c-2.097,1.413 -8.822,8.822 -8.822,8.822Z" style="fill:var(--icon-inside-color);"/><path id="LowLight" d="M30.075,29.792c1.434,-1.354 3.073,-2.649 4.301,-4.062c1.176,-1.354 2.044,-2.948 3.067,-4.421" style="fill:none;stroke:var(--icon-shadow-color);stroke-width:3.22px;"/><path id="Border" d="M21.661,24.214c0,0 -6.706,-7.266 -8.86,-8.636c-1.209,-0.769 -2.327,-0.716 -3.594,-0.047c-1.45,0.766 -4.416,3.732 -5.107,5.107c-0.576,1.148 -0.281,2.121 0.495,3.145c1.519,2.004 8.85,8.645 8.85,8.645c5.03,5.03 12.301,4.504 16.505,0.299c0,0 7.434,-6.886 8.933,-8.933c0.709,-0.967 0.862,-2.059 0.299,-3.117c-0.734,-1.382 -3.722,-4.37 -5.172,-5.172c-1.166,-0.646 -2.423,-0.856 -3.529,-0.112c-2.097,1.413 -8.822,8.822 -8.822,8.822Z" style="fill:none;stroke:var(--icon-outline-color);stroke-width:3.22px;"/></svg>