<?xml version="1.0" encoding="UTF-8" standalone="no"?><!DOCTYPE svg PUBLIC "-//W3C//DTD SVG 1.1//EN" "http://www.w3.org/Graphics/SVG/1.1/DTD/svg11.dtd"><svg width="100%" height="100%" viewBox="0 0 49 49" version="1.1" xmlns="http://www.w3.org/2000/svg" xmlns:xlink="http://www.w3.org/1999/xlink" xml:space="preserve" xmlns:serif="http://www.serif.com/" style="fill-rule:evenodd;clip-rule:evenodd;stroke-linecap:round;stroke-linejoin:round;stroke-miterlimit:1.5;"><path id="Background" d="M21.475,26.766c0,0 0.622,-15.515 -0.248,-19.427c-0.489,-2.196 -1.789,-3.378 -3.938,-4.043c-2.46,-0.76 -9.047,-0.76 -11.341,0c-1.915,0.635 -2.667,2.043 -2.943,4.043c-0.539,3.912 0.227,19.427 0.227,19.427c-0,11.171 8.657,18.66 17.995,18.66c0,0 15.901,0.609 19.839,0c1.861,-0.287 3.243,-1.329 3.793,-3.13c0.719,-2.35 0.719,-8.986 0,-11.487c-0.577,-2.011 -1.74,-3.642 -3.793,-4.043c-3.897,-0.76 -19.591,-0 -19.591,-0Z" style="fill:var(--icon-inside-color);"/><path id="LowLight" d="M24.624,42.302c3.096,0.089 6.354,0.472 9.287,0.266c2.809,-0.198 5.543,-1.003 8.315,-1.504" style="fill:none;stroke:var(--icon-shadow-color);stroke-width:5.06px;"/><path id="Border" d="M21.475,26.766c0,0 0.622,-15.515 -0.248,-19.427c-0.489,-2.196 -1.789,-3.378 -3.938,-4.043c-2.46,-0.76 -9.047,-0.76 -11.341,0c-1.915,0.635 -2.667,2.043 -2.943,4.043c-0.539,3.912 0.227,19.427 0.227,19.427c-0,11.171 8.657,18.66 17.995,18.66c0,0 15.901,0.609 19.839,0c1.861,-0.287 3.243,-1.329 3.793,-3.13c0.719,-2.35 0.719,-8.986 0,-11.487c-0.577,-2.011 -1.74,-3.642 -3.793,-4.043c-3.897,-0.76 -19.591,-0 -19.591,-0Z" style="fill:none;stroke:var(--icon-outline-color);stroke-width:5.06px;"/></svg>