<?xml version="1.0" encoding="UTF-8" standalone="no"?><!DOCTYPE svg PUBLIC "-//W3C//DTD SVG 1.1//EN" "http://www.w3.org/Graphics/SVG/1.1/DTD/svg11.dtd"><svg width="100%" height="100%" viewBox="0 0 49 48" version="1.1" xmlns="http://www.w3.org/2000/svg" xmlns:xlink="http://www.w3.org/1999/xlink" xml:space="preserve" xmlns:serif="http://www.serif.com/" style="fill-rule:evenodd;clip-rule:evenodd;stroke-linecap:round;stroke-linejoin:round;stroke-miterlimit:1.5;"><path id="Background" d="M26.974,26.557c0,0 -15.349,-0.615 -19.218,0.246c-2.173,0.484 -3.342,1.77 -3.999,3.897c-0.752,2.434 -0.752,8.952 0,11.222c0.628,1.895 2.021,2.639 3.999,2.912c3.87,0.533 19.218,-0.225 19.218,-0.225c11.051,0 18.459,-8.566 18.459,-17.805c0,0 0.602,-15.733 0,-19.63c-0.284,-1.842 -1.315,-3.209 -3.096,-3.753c-2.325,-0.711 -8.889,-0.711 -11.364,0c-1.99,0.571 -3.603,1.721 -3.999,3.753c-0.752,3.856 0,19.384 0,19.384Z" style="fill:var(--icon-inside-color);"/><path id="LowLight" d="M27.707,40.427c2.879,-0.656 5.825,-1.381 8.083,-2.83c2.259,-1.449 3.831,-3.624 5.469,-5.867" style="fill:none;stroke:var(--icon-shadow-color);stroke-width:5px;"/><path id="Border" d="M26.974,26.557c0,0 -15.349,-0.615 -19.218,0.246c-2.173,0.484 -3.342,1.77 -3.999,3.897c-0.752,2.434 -0.752,8.952 0,11.222c0.628,1.895 2.021,2.639 3.999,2.912c3.87,0.533 19.218,-0.225 19.218,-0.225c11.051,0 18.459,-8.566 18.459,-17.805c0,0 0.602,-15.733 0,-19.63c-0.284,-1.842 -1.315,-3.209 -3.096,-3.753c-2.325,-0.711 -8.889,-0.711 -11.364,0c-1.99,0.571 -3.603,1.721 -3.999,3.753c-0.752,3.856 0,19.384 0,19.384Z" style="fill:none;stroke:var(--icon-outline-color);stroke-width:5px;"/></svg>