<?xml version="1.0" encoding="UTF-8" standalone="no"?><!DOCTYPE svg PUBLIC "-//W3C//DTD SVG 1.1//EN" "http://www.w3.org/Graphics/SVG/1.1/DTD/svg11.dtd"><svg width="100%" height="100%" viewBox="0 0 51 45" version="1.1" xmlns="http://www.w3.org/2000/svg" xmlns:xlink="http://www.w3.org/1999/xlink" xml:space="preserve" xmlns:serif="http://www.serif.com/" style="fill-rule:evenodd;clip-rule:evenodd;stroke-linecap:round;stroke-linejoin:round;stroke-miterlimit:1.5;"><clipPath id="_clip1"><rect id="Camera" x="0.084" y="0.133" width="50.732" height="43.856"/></clipPath><g clip-path="url(#_clip1)"><path id="Background" d="M2.211,33.337c0,4.225 5.597,8.525 9.969,8.525l23.72,0c4.873,0 12.788,-2.71 12.788,-8.525l0,-14.782c0,-8.307 -10.057,-7.857 -11.619,-9.419c-1.562,-1.562 -2.637,-6.875 -7.838,-6.875l-7.975,0c-5.323,0 -5.331,5.371 -7.013,6.875c-1.682,1.504 -12.032,1.23 -12.032,9.419l0,14.782Z" style="fill:var(--icon-inside-color);"/><circle id="FlighBackground" cx="39.944" cy="17.147" r="1.998" style="fill:var(--icon-shadow-color);"/><path id="CameraBackground" d="M25.176,16.999c4.55,0 9.137,4.12 9.137,8.67c0,4.55 -4.106,8.869 -8.656,8.869c-4.55,0 -8.802,-4.046 -8.802,-8.596c0,-5.722 5.548,-8.944 8.321,-8.944Z" style="fill:var(--icon-shadow-color);"/><path id="LowLight" d="M46.616,28.902c0,0 0.173,6.011 -3.295,8.612c-2.593,1.945 -5.414,2.235 -7.167,2.485" style="fill:none;stroke:var(--icon-shadow-color);stroke-width:4.3px;"/><path id="HighLight" d="M3.822,25.319c0,0 0.546,-6.775 2.328,-9.164c1.782,-2.389 8.365,-5.171 8.365,-5.171" style="fill:none;stroke:var(--icon-highlight-color);stroke-width:4.3px;"/><path id="Border" d="M2.211,33.337c0,4.225 5.597,8.525 9.969,8.525l23.72,0c4.873,0 12.788,-2.71 12.788,-8.525l0,-14.782c0,-8.307 -10.057,-7.857 -11.619,-9.419c-1.562,-1.562 -2.637,-6.875 -7.838,-6.875l-7.975,0c-5.323,0 -5.331,5.371 -7.013,6.875c-1.682,1.504 -12.032,1.23 -12.032,9.419l0,14.782Z" style="fill:none;stroke:var(--icon-outline-color);stroke-width:4.26px;"/><path id="CameraBorder" d="M25.176,16.999c4.55,0 9.137,4.12 9.137,8.67c0,4.55 -4.106,8.869 -8.656,8.869c-4.55,0 -8.802,-4.046 -8.802,-8.596c0,-5.722 5.548,-8.944 8.321,-8.944Z" style="fill:none;stroke:var(--icon-outline-color);stroke-width:4.26px;"/><circle id="FlighBorder" cx="39.944" cy="17.147" r="1.001" style="fill:none;stroke:var(--icon-outline-color);stroke-width:4.26px;"/></g></svg>