<?xml version="1.0" encoding="UTF-8" standalone="no"?><!DOCTYPE svg PUBLIC "-//W3C//DTD SVG 1.1//EN" "http://www.w3.org/Graphics/SVG/1.1/DTD/svg11.dtd"><svg width="100%" height="100%" viewBox="0 0 49 43" version="1.1" xmlns="http://www.w3.org/2000/svg" xmlns:xlink="http://www.w3.org/1999/xlink" xml:space="preserve" xmlns:serif="http://www.serif.com/" style="fill-rule:evenodd;clip-rule:evenodd;stroke-linecap:round;stroke-linejoin:round;stroke-miterlimit:1.5;"><clipPath id="_clip1"><rect id="CheckMark" x="0.224" y="0.211" width="48.58" height="41.859"/></clipPath><g clip-path="url(#_clip1)"><path id="Background" d="M3.185,20.811c0.952,2.446 6.562,8.504 11.282,16.081c1.183,1.899 4.959,3.01 7.206,0c7.325,-9.813 14.692,-17.188 24.661,-30.943c1.895,-2.615 -1.099,-5.041 -3.902,-3.437c-9.979,5.71 -21.425,22.741 -24.416,23.133c-2.006,0.263 -3.733,-8.319 -9.734,-9.754c-2.22,-0.531 -5.925,2.794 -5.097,4.921Z" style="fill:var(--icon-inside-color);"/><path id="LowLight" d="M12.166,33.16c1.844,2.128 3.047,4.552 6.046,4.494c4.086,-0.078 10.458,-9.638 10.458,-9.638" style="fill:none;stroke:var(--icon-shadow-color);stroke-width:4.74px;"/><path id="HighLight" d="M3.749,20.018c0,0 0.426,-2.802 4.985,-3.165c2.035,-0.162 3.986,0.957 5.237,3.165" style="fill:none;stroke:var(--icon-highlight-color);stroke-width:4.74px;"/><path id="Border" d="M18.386,21.268c0.447,-0.439 0.927,-0.926 1.359,-1.4c4.949,-5.424 12.616,-14.761 19.504,-18.703c2.86,-1.637 5.806,-0.991 7.565,0.505c2.069,1.759 3.026,4.761 0.752,7.898c-9.444,13.031 -16.422,20.018 -23.361,29.315c-3.948,5.289 -10.581,3.092 -12.66,-0.246c-3.071,-4.929 -6.552,-9.161 -8.665,-12.039c-1.166,-1.588 -1.962,-2.885 -2.304,-3.763c-0.715,-1.837 -0.288,-4.193 1.297,-6.16c1.907,-2.366 5.341,-3.776 7.648,-3.224c3.137,0.75 5.467,2.879 7.197,5.28c0.537,0.745 1.149,1.7 1.667,2.536Zm-14.51,0.283c0.901,2.314 6.208,8.045 10.674,15.214c1.12,1.797 4.692,2.848 6.817,0c6.93,-9.284 13.9,-16.261 23.332,-29.275c1.793,-2.474 -1.04,-4.77 -3.692,-3.252c-9.441,5.402 -20.27,21.515 -23.1,21.886c-1.898,0.248 -3.531,-7.87 -9.209,-9.228c-2.101,-0.502 -5.605,2.643 -4.822,4.656Z" style="fill:var(--icon-outline-color);"/></g></svg>