<?xml version="1.0" encoding="UTF-8" standalone="no"?><!DOCTYPE svg PUBLIC "-//W3C//DTD SVG 1.1//EN" "http://www.w3.org/Graphics/SVG/1.1/DTD/svg11.dtd"><svg width="100%" height="100%" viewBox="0 0 49 47" version="1.1" xmlns="http://www.w3.org/2000/svg" xmlns:xlink="http://www.w3.org/1999/xlink" xml:space="preserve" xmlns:serif="http://www.serif.com/" style="fill-rule:evenodd;clip-rule:evenodd;stroke-linecap:round;stroke-linejoin:round;stroke-miterlimit:1.5;"><path id="BackgroundLeft" d="M2.832,15.188c0.067,-1.043 0.835,-2.263 1.844,-2.536c1.565,-0.423 5.923,-0.423 7.543,0c1.078,0.281 2.092,1.425 2.176,2.536c0.363,4.803 -0.094,21.496 -0.456,26.279c-0.082,1.082 -1.123,2.158 -2.176,2.42c-1.62,0.403 -5.522,0.403 -7.087,0c-0.982,-0.253 -1.779,-1.408 -1.844,-2.42c-0.307,-4.784 -0.307,-21.477 0,-26.279Z" style="fill:var(--icon-inside-color);"/><path id="BackgroundCenter" d="M18.807,5.604c0.05,-1.044 0.835,-2.263 1.844,-2.536c1.565,-0.423 5.923,-0.423 7.543,0c1.078,0.281 2.113,1.424 2.176,2.536c0.363,6.4 0.363,29.483 0,35.864c-0.061,1.083 -1.123,2.158 -2.176,2.42c-1.62,0.403 -5.522,0.403 -7.087,0c-0.982,-0.253 -1.796,-1.407 -1.844,-2.42c-0.307,-6.381 -0.764,-29.464 -0.456,-35.864Z" style="fill:var(--icon-inside-color);"/><path id="BackgroundRight" d="M35.238,26.142c0.108,-1.04 0.835,-2.263 1.844,-2.536c1.565,-0.423 5.011,-0.423 6.631,0c1.078,0.281 2.041,1.43 2.176,2.536c0.363,2.977 0.363,12.368 0,15.326c-0.132,1.077 -1.123,2.158 -2.176,2.42c-1.62,0.403 -4.609,0.403 -6.174,0c-0.982,-0.253 -1.739,-1.411 -1.844,-2.42c-0.307,-2.958 -0.764,-12.349 -0.456,-15.326Z" style="fill:var(--icon-inside-color);"/><path id="LowLightLeft" d="M3.345,40.513c1.789,0.569 3.864,1.371 5.369,1.371c1.404,0 2.44,-0.801 3.66,-1.371" style="fill:none;stroke:var(--icon-shadow-color);stroke-width:3.68px;"/><path id="LowLightCenter" d="M19.66,40.075c1.988,0.772 4.292,1.858 5.964,1.858c1.559,0 2.71,-1.086 4.065,-1.858" style="fill:none;stroke:var(--icon-shadow-color);stroke-width:4.47px;"/><path id="LowLightRight" d="M36.049,41.004c1.988,0.772 3.306,1.529 4.978,1.529c1.559,0 3.367,-0.758 4.722,-1.529" style="fill:none;stroke:var(--icon-shadow-color);stroke-width:4.47px;"/><path id="BorderLeft" d="M2.832,15.188c0.067,-1.043 0.835,-2.263 1.844,-2.536c1.565,-0.423 5.923,-0.423 7.543,0c1.078,0.281 2.092,1.425 2.176,2.536c0.363,4.803 -0.094,21.496 -0.456,26.279c-0.082,1.082 -1.123,2.158 -2.176,2.42c-1.62,0.403 -5.522,0.403 -7.087,0c-0.982,-0.253 -1.779,-1.408 -1.844,-2.42c-0.307,-4.784 -0.307,-21.477 0,-26.279Z" style="fill:none;stroke:var(--icon-outline-color);stroke-width:4.47px;"/><path id="BorderCenter" d="M18.807,5.604c0.05,-1.044 0.835,-2.263 1.844,-2.536c1.565,-0.423 5.923,-0.423 7.543,0c1.078,0.281 2.113,1.424 2.176,2.536c0.363,6.4 0.363,29.483 0,35.864c-0.061,1.083 -1.123,2.158 -2.176,2.42c-1.62,0.403 -5.522,0.403 -7.087,0c-0.982,-0.253 -1.796,-1.407 -1.844,-2.42c-0.307,-6.381 -0.764,-29.464 -0.456,-35.864Z" style="fill:none;stroke:var(--icon-outline-color);stroke-width:4.47px;"/><path id="BorderRight" d="M35.238,26.142c0.108,-1.04 0.835,-2.263 1.844,-2.536c1.565,-0.423 5.011,-0.423 6.631,0c1.078,0.281 2.041,1.43 2.176,2.536c0.363,2.977 0.363,12.368 0,15.326c-0.132,1.077 -1.123,2.158 -2.176,2.42c-1.62,0.403 -4.609,0.403 -6.174,0c-0.982,-0.253 -1.739,-1.411 -1.844,-2.42c-0.307,-2.958 -0.764,-12.349 -0.456,-15.326Z" style="fill:none;stroke:var(--icon-outline-color);stroke-width:4.47px;"/></svg>