<?xml version="1.0" encoding="UTF-8" standalone="no"?><!DOCTYPE svg PUBLIC "-//W3C//DTD SVG 1.1//EN" "http://www.w3.org/Graphics/SVG/1.1/DTD/svg11.dtd"><svg width="100%" height="100%" viewBox="0 0 50 48" version="1.1" xmlns="http://www.w3.org/2000/svg" xmlns:xlink="http://www.w3.org/1999/xlink" xml:space="preserve" xmlns:serif="http://www.serif.com/" style="fill-rule:evenodd;clip-rule:evenodd;stroke-linecap:round;stroke-linejoin:round;stroke-miterlimit:1.5;"><path id="BackgroundMiddel" d="M19.163,5.659c0.052,-1.071 0.857,-2.323 1.893,-2.603c1.606,-0.434 6.079,-0.434 7.742,0c1.106,0.289 2.168,1.461 2.233,2.603c0.372,6.569 0.372,30.259 0,36.808c-0.063,1.112 -1.153,2.215 -2.233,2.484c-1.663,0.414 -5.668,0.414 -7.274,0c-1.008,-0.26 -1.843,-1.444 -1.893,-2.484c-0.315,-6.549 -0.784,-30.24 -0.468,-36.808Z" style="fill:var(--icon-inside-color);"/><path id="BackgroundLeft" d="M35.257,5.598c0.052,-1.071 0.857,-2.323 1.893,-2.603c1.606,-0.434 6.079,-0.434 7.742,0c1.106,0.289 2.168,1.461 2.233,2.603c0.372,6.569 0.372,30.259 0,36.808c-0.063,1.112 -1.153,2.215 -2.233,2.484c-1.663,0.414 -5.668,0.414 -7.274,0c-1.008,-0.26 -1.843,-1.444 -1.893,-2.484c-0.315,-6.549 -0.784,-30.24 -0.468,-36.808Z" style="fill:var(--icon-inside-color);"/><path id="BackgroundLeft1" serif:id="BackgroundLeft" d="M2.826,5.659c0.052,-1.071 0.857,-2.323 1.893,-2.603c1.606,-0.434 6.079,-0.434 7.742,0c1.106,0.289 2.168,1.461 2.233,2.603c0.372,6.569 0.372,30.259 0,36.808c-0.063,1.112 -1.153,2.215 -2.233,2.484c-1.663,0.414 -5.668,0.414 -7.274,0c-1.008,-0.26 -1.843,-1.444 -1.893,-2.484c-0.315,-6.549 -0.784,-30.24 -0.468,-36.808Z" style="fill:var(--icon-inside-color);"/><path id="BottomLowLightMiddel" d="M20.038,41.038c2.04,0.792 4.405,1.907 6.121,1.907c1.6,0 2.781,-1.115 4.172,-1.907" style="fill:none;stroke:var(--icon-shadow-color);stroke-width:4.59px;"/><path id="BottomLowLightRight" d="M36.486,41.09c1.97,0.673 4.254,1.621 5.91,1.621c1.545,0 2.686,-0.947 4.029,-1.621" style="fill:none;stroke:var(--icon-shadow-color);stroke-width:4.17px;"/><path id="BottomLowLightLeft" d="M3.701,41.038c2.04,0.792 4.405,1.907 6.121,1.907c1.6,0 2.781,-1.115 4.172,-1.907" style="fill:none;stroke:var(--icon-shadow-color);stroke-width:4.59px;"/><path id="BorderMiddel" d="M19.163,5.659c0.052,-1.071 0.857,-2.323 1.893,-2.603c1.606,-0.434 6.079,-0.434 7.742,0c1.106,0.289 2.168,1.461 2.233,2.603c0.372,6.569 0.372,30.259 0,36.808c-0.063,1.112 -1.153,2.215 -2.233,2.484c-1.663,0.414 -5.668,0.414 -7.274,0c-1.008,-0.26 -1.843,-1.444 -1.893,-2.484c-0.315,-6.549 -0.784,-30.24 -0.468,-36.808Z" style="fill:none;stroke:var(--icon-outline-color);stroke-width:3.75px;"/><path id="BorderRight" d="M35.482,5.598c0.052,-1.071 0.857,-2.323 1.893,-2.603c1.606,-0.434 6.079,-0.434 7.742,0c1.106,0.289 2.168,1.461 2.233,2.603c0.372,6.569 0.372,30.259 0,36.808c-0.063,1.112 -1.153,2.215 -2.233,2.484c-1.663,0.414 -5.668,0.414 -7.274,0c-1.008,-0.26 -1.843,-1.444 -1.893,-2.484c-0.315,-6.549 -0.784,-30.24 -0.468,-36.808Z" style="fill:none;stroke:var(--icon-outline-color);stroke-width:3.75px;"/><path id="BorderLeft" d="M2.826,5.659c0.052,-1.071 0.857,-2.323 1.893,-2.603c1.606,-0.434 6.079,-0.434 7.742,0c1.106,0.289 2.168,1.461 2.233,2.603c0.372,6.569 0.372,30.259 0,36.808c-0.063,1.112 -1.153,2.215 -2.233,2.484c-1.663,0.414 -5.668,0.414 -7.274,0c-1.008,-0.26 -1.843,-1.444 -1.893,-2.484c-0.315,-6.549 -0.784,-30.24 -0.468,-36.808Z" style="fill:none;stroke:var(--icon-outline-color);stroke-width:3.75px;"/></svg>