<?xml version="1.0" encoding="UTF-8" standalone="no"?><!DOCTYPE svg PUBLIC "-//W3C//DTD SVG 1.1//EN" "http://www.w3.org/Graphics/SVG/1.1/DTD/svg11.dtd"><svg width="100%" height="100%" viewBox="0 0 27 57" version="1.1" xmlns="http://www.w3.org/2000/svg" xmlns:xlink="http://www.w3.org/1999/xlink" xml:space="preserve" xmlns:serif="http://www.serif.com/" style="fill-rule:evenodd;clip-rule:evenodd;stroke-linecap:round;stroke-linejoin:round;stroke-miterlimit:1.5;"><path id="BackgroundBody" d="M3.119,24.805c2.595,-1.124 14.677,-0.77 17.956,-0.264c1.225,0.189 1.716,2.061 1.716,3.301c0,3.653 -1.716,14.457 -1.716,18.616c0,2.189 3.76,5.555 1.716,6.338c-2.992,1.146 -16.636,1.288 -19.672,0.538c-1.696,-0.418 1.269,-3.297 1.458,-5.033c0.398,-3.675 1.173,-13.1 0.93,-17.016c-0.143,-2.297 -4.499,-5.565 -2.387,-6.48Z" style="fill:var(--icon-inside-color);"/><path id="BackgroundDot" d="M3.525,7.647c0.37,-1.519 1.004,-3.539 2.508,-3.961c2.353,-0.66 9.123,-0.66 11.608,0c1.661,0.441 2.811,2.314 3.3,3.961c0.551,1.848 0.551,5.457 0,7.129c-0.458,1.392 -1.862,2.624 -3.3,2.905c-2.485,0.484 -9.266,0.658 -11.608,0c-1.491,-0.419 -2.071,-2.448 -2.447,-3.95c-0.418,-1.672 -0.469,-4.41 -0.062,-6.084Z" style="fill:var(--icon-inside-color);"/><path id="LowLightBody" d="M5.767,50.706c2.575,0.627 4.518,1.049 7.204,1.049c2.685,0 4.544,-0.423 7.339,-1.049" style="fill:none;stroke:var(--icon-shadow-color);stroke-width:7.16px;"/><path id="LowLightDot" d="M6.813,15.678c2.575,0.788 3.472,0.797 6.158,0.797c2.685,0 3.499,-0.532 6.293,-1.32" style="fill:none;stroke:var(--icon-shadow-color);stroke-width:5.72px;"/><path id="BorderBody" d="M3.119,24.805c2.595,-1.124 14.677,-0.77 17.956,-0.264c1.225,0.189 1.716,2.061 1.716,3.301c0,3.653 -1.716,14.457 -1.716,18.616c0,2.189 3.76,5.555 1.716,6.338c-2.992,1.146 -16.636,1.288 -19.672,0.538c-1.696,-0.418 1.269,-3.297 1.458,-5.033c0.398,-3.675 1.173,-13.1 0.93,-17.016c-0.143,-2.297 -4.499,-5.565 -2.387,-6.48Z" style="fill:none;stroke:var(--icon-outline-color);stroke-width:4.26px;"/><path id="BorderDot" d="M3.525,7.647c0.37,-1.519 1.004,-3.539 2.508,-3.961c2.353,-0.66 9.123,-0.66 11.608,0c1.661,0.441 2.811,2.314 3.3,3.961c0.551,1.848 0.551,5.457 0,7.129c-0.458,1.392 -1.862,2.624 -3.3,2.905c-2.485,0.484 -9.266,0.658 -11.608,0c-1.491,-0.419 -2.071,-2.448 -2.447,-3.95c-0.418,-1.672 -0.469,-4.41 -0.062,-6.084Z" style="fill:none;stroke:var(--icon-outline-color);stroke-width:4.15px;"/></svg>