<?xml version="1.0" encoding="UTF-8" standalone="no"?><!DOCTYPE svg PUBLIC "-//W3C//DTD SVG 1.1//EN" "http://www.w3.org/Graphics/SVG/1.1/DTD/svg11.dtd"><svg width="100%" height="100%" viewBox="0 0 46 47" version="1.1" xmlns="http://www.w3.org/2000/svg" xmlns:xlink="http://www.w3.org/1999/xlink" xml:space="preserve" xmlns:serif="http://www.serif.com/" style="fill-rule:evenodd;clip-rule:evenodd;stroke-linecap:round;stroke-linejoin:round;stroke-miterlimit:1.5;"><path d="M3.963,13.517c-1.086,-1.955 -1.627,-4.272 -1.061,-6.05c0.555,-1.746 3.244,-4.148 4.883,-4.617c1.64,-0.469 3.922,-0.012 5.604,1.158c2.556,1.778 9.302,9.509 9.302,9.509c0,0 7.132,-7.731 9.633,-9.509c1.494,-1.062 3.666,-1.819 5.375,-1.158c1.709,0.662 4.065,3.542 4.878,5.127c0.667,1.3 0.755,3.132 0,4.382c-1.53,2.536 -9.178,10.832 -9.178,10.832c0,0 6.574,6.863 8.103,9.426c1.033,1.732 1.976,3.758 1.507,5.522c-0.468,1.764 -3.22,4.723 -4.75,5.494c-1.53,0.772 -3.389,0.541 -4.86,-0.432c-2.667,-1.764 -10.708,-10.584 -10.708,-10.584c0,0 -6.746,7.828 -9.302,9.592c-1.678,1.158 -3.964,2.031 -5.604,1.424c-1.64,-0.606 -4.102,-3.73 -4.667,-5.494c-0.565,-1.764 -0.167,-3.809 0.845,-5.522c1.516,-2.563 8.682,-9.426 8.682,-9.426c0,0 -7.166,-6.946 -8.682,-9.675Z" style="fill:var(--icon-inside-color);"/><path d="M3.714,37.414c2.646,2.977 3.897,4.226 7.046,2.862c3.149,-1.365 11.931,-10.139 11.931,-10.139c0,0 8.781,10.148 11.903,11.512c2.51,1.097 4.097,-1.7 6.826,-3.326" style="fill:none;stroke:var(--icon-shadow-color);stroke-width:4px;"/><path d="M3.963,13.517c-1.086,-1.955 -2.058,-3.624 -1.493,-5.402c0.555,-1.746 4.107,-5.228 5.747,-5.697c1.64,-0.469 3.49,0.42 5.172,1.59c2.556,1.778 9.302,9.509 9.302,9.509c0,0 7.132,-7.731 9.633,-9.509c1.494,-1.062 3.666,-1.819 5.375,-1.158c1.709,0.662 4.065,3.542 4.878,5.127c0.667,1.3 0.755,3.132 0,4.382c-1.53,2.536 -9.178,10.832 -9.178,10.832c0,0 6.574,6.863 8.103,9.426c1.033,1.732 1.976,3.758 1.507,5.522c-0.468,1.764 -3.22,4.723 -4.75,5.494c-1.53,0.772 -3.389,0.541 -4.86,-0.432c-2.667,-1.764 -10.708,-10.584 -10.708,-10.584c0,0 -6.746,7.828 -9.302,9.592c-1.678,1.158 -3.964,2.031 -5.604,1.424c-1.64,-0.606 -4.534,-4.162 -5.099,-5.926c-0.565,-1.764 0.265,-3.377 1.277,-5.09c1.516,-2.563 8.682,-9.426 8.682,-9.426c0,0 -7.166,-6.946 -8.682,-9.675Z" style="fill:none;stroke:var(--icon-outline-color);stroke-width:4px;"/></svg>