<?xml version="1.0" encoding="UTF-8" standalone="no"?><!DOCTYPE svg PUBLIC "-//W3C//DTD SVG 1.1//EN" "http://www.w3.org/Graphics/SVG/1.1/DTD/svg11.dtd"><svg width="100%" height="100%" viewBox="0 0 44 50" version="1.1" xmlns="http://www.w3.org/2000/svg" xmlns:xlink="http://www.w3.org/1999/xlink" xml:space="preserve" xmlns:serif="http://www.serif.com/" style="fill-rule:evenodd;clip-rule:evenodd;stroke-linecap:round;stroke-linejoin:round;stroke-miterlimit:1.5;"><clipPath id="_clip1"><rect id="Delete" x="0.192" y="0.039" width="43.684" height="49.803"/></clipPath><g clip-path="url(#_clip1)"><path d="M32.649,10.906c1.333,0.346 2.525,0.338 4.887,0.499c0.294,5.273 -1.815,25.157 -3.124,31.137c-0.452,2.068 -2.65,3.827 -4.725,4.245c-3.444,0.694 -12.641,0.894 -15.938,-0.08c-2.215,-0.655 -3.389,-3.502 -3.844,-5.767c-1.188,-5.913 -2.744,-20.164 -3.284,-29.714c4.664,-0.162 3.688,0.337 5.322,-0.32c3.307,-1.33 3.008,-3.502 3.42,-5.027c0.136,-0.502 1.338,-2.445 2.72,-2.897c1.886,-0.616 5.939,-0.621 7.909,-0.066c1.12,0.315 2.076,1.226 2.873,2.942c0.58,1.249 0.03,4.074 3.783,5.048Z" style="fill:var(--icon-inside-color);"/><path d="M11.377,42.568c0,0 7.955,2.292 11.229,2.341c2.975,0.044 10.409,-2.298 10.409,-2.298" style="fill:none;stroke:var(--icon-shadow-color);stroke-width:4.94px;"/><path d="M8.778,16.462c0,0 9.106,-2.104 13.545,-2.236c4.439,-0.133 12.574,2.188 12.574,2.188" style="fill:none;stroke:var(--icon-highlight-color);stroke-width:3.64px;"/><path d="M15.832,6.48c0,0 4.411,-2.104 6.561,-2.236c2.15,-0.133 6.091,2.188 6.091,2.188" style="fill:none;stroke:var(--icon-highlight-color);stroke-width:3.64px;"/><path d="M32.649,10.906c1.333,0.346 2.525,0.338 4.887,0.499c0.294,5.273 -1.815,25.157 -3.124,31.137c-0.452,2.068 -2.65,3.827 -4.725,4.245c-3.444,0.694 -12.641,0.894 -15.938,-0.08c-2.215,-0.655 -3.389,-3.502 -3.844,-5.767c-1.188,-5.913 -2.744,-20.164 -3.284,-29.714c4.664,-0.162 3.688,0.337 5.322,-0.32c3.307,-1.33 3.008,-3.502 3.42,-5.027c0.136,-0.502 1.338,-2.445 2.72,-2.897c1.886,-0.616 5.939,-0.621 7.909,-0.066c1.12,0.315 2.076,1.226 2.873,2.942c0.58,1.249 0.03,4.074 3.783,5.048Z" style="fill:none;stroke:var(--icon-outline-color);stroke-width:4.94px;"/><path d="M40.757,11.405l-37.446,0" style="fill:none;stroke:var(--icon-outline-color);stroke-width:6.24px;"/><path d="M16.85,18.953c0.235,0.645 1.846,18.717 1.846,18.717" style="fill:none;stroke:var(--icon-outline-color);stroke-width:4.16px;"/><path d="M28.003,18.822l-1.568,18.848" style="fill:none;stroke:var(--icon-outline-color);stroke-width:4.16px;"/></g></svg>