<?xml version="1.0" encoding="UTF-8" standalone="no"?><!DOCTYPE svg PUBLIC "-//W3C//DTD SVG 1.1//EN" "http://www.w3.org/Graphics/SVG/1.1/DTD/svg11.dtd"><svg width="100%" height="100%" viewBox="0 0 67 62" version="1.1" xmlns="http://www.w3.org/2000/svg" xmlns:xlink="http://www.w3.org/1999/xlink" xml:space="preserve" xmlns:serif="http://www.serif.com/" style="fill-rule:evenodd;clip-rule:evenodd;stroke-linecap:round;stroke-linejoin:round;stroke-miterlimit:1.5;"><clipPath id="_clip1"><rect id="DeviceRotationIcon" x="0" y="0.01" width="66.838" height="61.722"/></clipPath><g clip-path="url(#_clip1)"><g id="Device"><path id="BackgroundDevice" d="M20.235,55.168c-2.474,0.616 -6.483,-0.837 -7.43,-3.204c-2.091,-5.223 -6.786,-21.348 -8.059,-26.703c-0.605,-2.544 2.132,-5.78 4.621,-6.578c9.191,-2.945 32.129,-10.253 39.188,-11.827c3.135,-0.699 6.878,1.287 8.005,4.294c2.264,6.037 6.191,19.494 7.304,24.2c0.655,2.772 -1.23,6.363 -3.853,7.474c-6.752,2.86 -30.017,9.914 -39.777,12.344Z" style="fill:var(--icon-inside-color);"/><path id="BackgroundScreen" d="M24.484,49.863c-1.869,0.462 -3.195,-0.239 -3.932,-2.097c-1.626,-4.1 -5.804,-18.372 -6.811,-22.569c-0.479,-1.993 0.338,-3.341 2.217,-3.944c6.936,-2.228 26.781,-8.519 32.114,-9.692c2.368,-0.521 3.751,0.123 4.629,2.483c1.764,4.738 5.502,17.461 6.383,21.149c0.519,2.172 -0.429,3.841 -2.406,4.689c-5.09,2.181 -24.822,8.162 -32.193,9.982Z" style="fill:var(--icon-shadow-color);"/><path id="BottomLowLight" d="M60.148,26.133c0,0 4.033,8.131 2.341,12.361c-1.692,4.23 -7.48,6.12 -10.93,6.575" style="fill:none;stroke:var(--icon-shadow-color);stroke-width:3.39px;"/><path id="TopHighLight" d="M8.962,37.017c0,0 -4.033,-8.131 -2.341,-12.361c1.692,-4.23 7.48,-6.12 10.93,-6.575" style="fill:none;stroke:var(--icon-highlight-color);stroke-width:3.39px;"/><path id="BorderButton" d="M13.649,38.674l-1.082,0.327c-0.299,0.09 -0.614,-0.079 -0.704,-0.378l-0.327,-1.082c-0.09,-0.299 0.079,-0.614 0.378,-0.704l1.082,-0.327c0.299,-0.09 0.614,0.079 0.704,0.378l0.327,1.082c0.09,0.299 -0.079,0.614 -0.378,0.704Z" style="fill:var(--icon-outline-color);stroke:var(--icon-outline-color);stroke-width:2.35px;"/><path id="BorderScreen" d="M20.235,55.362c-2.474,0.616 -6.483,-0.837 -7.43,-3.204c-2.091,-5.223 -6.786,-21.348 -8.059,-26.703c-0.605,-2.544 2.132,-5.78 4.621,-6.578c9.191,-2.945 32.129,-10.253 39.188,-11.827c3.135,-0.699 6.878,1.287 8.005,4.294c2.264,6.037 6.191,19.494 7.304,24.2c0.655,2.772 -1.23,6.363 -3.853,7.474c-6.752,2.86 -30.017,9.914 -39.777,12.344Z" style="fill:none;stroke:var(--icon-outline-color);stroke-width:2.35px;"/><path id="BorderDevice" d="M24.484,49.863c-1.869,0.462 -3.195,-0.239 -3.932,-2.097c-1.626,-4.1 -5.804,-18.372 -6.811,-22.569c-0.479,-1.993 0.338,-3.341 2.217,-3.944c6.936,-2.228 26.781,-8.519 32.114,-9.692c2.368,-0.521 3.751,0.123 4.629,2.483c1.764,4.738 5.502,17.461 6.383,21.149c0.519,2.172 -0.429,3.841 -2.406,4.689c-5.09,2.181 -24.822,8.162 -32.193,9.982Z" style="fill:none;stroke:var(--icon-outline-color);stroke-width:2.35px;"/></g><g id="ArrowTop"><path id="Background" d="M4.444,15.888c0.632,0.747 1.626,1.074 2.454,0.552c1.165,-0.735 4.391,-2.709 5.144,-3.762c2.051,-2.868 -2.54,-2.701 -2.298,-3.212c2.766,-5.82 6.273,-2.116 7.685,-0.645c0.461,0.481 1.237,0.753 1.859,0.735c0.622,-0.018 1.528,-0.327 1.874,-0.844c0.346,-0.517 0.63,-1.637 0.201,-2.259c-4.842,-7.013 -13.965,-7.687 -16.526,2.069c-0.17,0.646 -3.654,-2.139 -3.658,1.127c-0.001,1.276 2.275,5.07 3.265,6.239Z" style="fill:var(--icon-inside-color);"/><path id="TailLiwLight" d="M19.261,9.18c0.453,-0.369 0.988,-0.77 1.246,-1.223c0.258,-0.452 0.239,-0.954 0.301,-1.49" style="fill:none;stroke:var(--icon-shadow-color);stroke-width:2.36px;"/><path id="HeadLowLight" d="M10.098,13.949c0.32,-0.489 0.709,-1.033 0.817,-1.542c0.109,-0.509 -0.061,-0.982 -0.164,-1.511" style="fill:none;stroke:var(--icon-shadow-color);stroke-width:2.36px;"/><path id="Border" d="M4.444,15.888c0.632,0.747 1.626,1.074 2.454,0.552c1.165,-0.735 4.391,-2.709 5.144,-3.762c2.051,-2.868 -2.54,-2.701 -2.298,-3.212c2.766,-5.82 6.273,-2.116 7.685,-0.645c0.461,0.481 1.237,0.753 1.859,0.735c0.622,-0.018 1.528,-0.327 1.874,-0.844c0.346,-0.517 0.63,-1.637 0.201,-2.259c-4.842,-7.013 -13.965,-7.687 -16.526,2.069c-0.17,0.646 -3.654,-2.139 -3.658,1.127c-0.001,1.276 2.275,5.07 3.265,6.239Z" style="fill:none;stroke:var(--icon-outline-color);stroke-width:2.36px;"/></g><g id="ArrowBottom"><path id="Background1" serif:id="Background" d="M63.947,48.051c-0.433,-0.877 -1.32,-1.434 -2.248,-1.127c-1.308,0.432 -4.914,1.57 -5.899,2.412c-2.682,2.289 1.814,3.234 1.456,3.671c-4.088,4.981 -6.598,0.542 -7.614,-1.227c-0.332,-0.578 -1.019,-1.029 -1.627,-1.162c-0.608,-0.132 -1.562,-0.051 -2.022,0.367c-0.46,0.418 -1.006,1.437 -0.739,2.144c3.009,7.973 11.7,10.826 16.537,1.976c0.321,-0.586 3.031,2.957 3.821,-0.212c0.309,-1.238 -0.986,-5.469 -1.665,-6.842Z" style="fill:var(--icon-inside-color);"/><path id="TailHighLight" d="M48.106,51.17c-0.561,0.165 -1.209,0.328 -1.622,0.646c-0.413,0.317 -0.589,0.788 -0.854,1.257" style="fill:none;stroke:var(--icon-highlight-color);stroke-width:2.36px;"/><path id="HeadLowLight1" serif:id="HeadLowLight" d="M62.851,54.766c0.525,-0.256 1.137,-0.526 1.491,-0.908c0.354,-0.382 0.449,-0.875 0.632,-1.382" style="fill:none;stroke:var(--icon-shadow-color);stroke-width:2.36px;"/><path id="Border1" serif:id="Border" d="M63.947,48.051c-0.433,-0.877 -1.32,-1.434 -2.248,-1.127c-1.308,0.432 -4.914,1.57 -5.899,2.412c-2.682,2.289 1.814,3.234 1.456,3.671c-4.088,4.981 -6.598,0.542 -7.614,-1.227c-0.332,-0.578 -1.019,-1.029 -1.627,-1.162c-0.608,-0.132 -1.562,-0.051 -2.022,0.367c-0.46,0.418 -1.006,1.437 -0.739,2.144c3.009,7.973 11.7,10.826 16.537,1.976c0.321,-0.586 3.031,2.957 3.821,-0.212c0.309,-1.238 -0.986,-5.469 -1.665,-6.842Z" style="fill:none;stroke:var(--icon-outline-color);stroke-width:2.36px;"/></g></g></svg>