<?xml version="1.0" encoding="UTF-8" standalone="no"?><!DOCTYPE svg PUBLIC "-//W3C//DTD SVG 1.1//EN" "http://www.w3.org/Graphics/SVG/1.1/DTD/svg11.dtd"><svg width="100%" height="100%" viewBox="0 0 69 50" version="1.1" xmlns="http://www.w3.org/2000/svg" xmlns:xlink="http://www.w3.org/1999/xlink" xml:space="preserve" xmlns:serif="http://www.serif.com/" style="fill-rule:evenodd;clip-rule:evenodd;stroke-linecap:round;stroke-linejoin:round;stroke-miterlimit:1.5;"><clipPath id="_clip1"><rect id="DeviceMove" x="0.237" y="0.118" width="68.591" height="49.738"/></clipPath><g clip-path="url(#_clip1)"><g id="Device"><path id="BackgroundDevice" d="M9.661,47.868c-3.086,-0.143 -7.235,-3.221 -7.514,-6.298c-0.616,-6.789 -0.471,-27.137 -0.091,-33.796c0.181,-3.163 4.48,-5.97 7.647,-6.033c11.691,-0.231 40.856,-0.756 49.597,-0.134c3.881,0.276 7.538,3.88 7.804,7.762c0.534,7.794 0.424,24.779 0.083,30.628c-0.201,3.445 -3.635,6.961 -7.066,7.34c-8.831,0.978 -38.287,1.095 -50.46,0.53Z" style="fill:var(--icon-inside-color);"/><path id="BackgroundScreen" d="M16.434,43.184c-2.33,-0.112 -3.627,-1.386 -3.838,-3.799c-0.465,-5.324 -0.364,-23.342 -0.077,-28.564c0.136,-2.48 1.552,-3.761 3.942,-3.809c8.825,-0.18 34.045,-0.598 40.644,-0.11c2.93,0.217 4.312,1.444 4.513,4.488c0.404,6.112 0.33,22.18 0.072,26.767c-0.152,2.702 -1.831,4.311 -4.42,4.608c-6.666,0.766 -31.648,0.863 -40.837,0.419Z" style="fill:var(--icon-shadow-color);"/><path id="BottomLowLight" d="M66.07,28.009c0,0 1.86,10.839 -1.572,15.162c-3.432,4.324 -10.807,4.509 -14.969,3.841" style="fill:none;stroke:var(--icon-shadow-color);stroke-width:4.1px;"/><path id="TopHighLight" d="M2.871,22.885c0,0 -1.86,-10.839 1.572,-15.162c3.432,-4.324 10.807,-4.509 14.969,-3.841" style="fill:none;stroke:var(--icon-highlight-color);stroke-width:4.1px;"/><path id="BorderButton" d="M7.738,26.435l-1.37,0.004c-0.378,0.001 -0.686,-0.305 -0.687,-0.683l-0.004,-1.37c-0.001,-0.378 0.305,-0.686 0.683,-0.687l1.37,-0.004c0.378,-0.001 0.686,0.305 0.687,0.683l0.004,1.37c0.001,0.378 -0.305,0.686 -0.683,0.687Z" style="fill:var(--icon-outline-color);stroke:var(--icon-outline-color);stroke-width:2.84px;"/><path id="BorderScreen" d="M9.593,48.094c-3.086,-0.143 -7.235,-3.221 -7.514,-6.298c-0.616,-6.789 -0.471,-27.137 -0.091,-33.796c0.181,-3.163 4.48,-5.97 7.647,-6.033c11.691,-0.231 40.856,-0.756 49.597,-0.134c3.881,0.276 7.538,3.88 7.804,7.762c0.534,7.794 0.424,24.779 0.083,30.628c-0.201,3.445 -3.635,6.961 -7.066,7.34c-8.831,0.978 -38.287,1.095 -50.46,0.53Z" style="fill:none;stroke:var(--icon-outline-color);stroke-width:2.84px;"/><path id="BorderDevice" d="M16.434,43.184c-2.33,-0.112 -3.627,-1.386 -3.838,-3.799c-0.465,-5.324 -0.364,-23.342 -0.077,-28.564c0.136,-2.48 1.552,-3.761 3.942,-3.809c8.825,-0.18 34.045,-0.598 40.644,-0.11c2.93,0.217 4.312,1.444 4.513,4.488c0.404,6.112 0.33,22.18 0.072,26.767c-0.152,2.702 -1.831,4.311 -4.42,4.608c-6.666,0.766 -31.648,0.863 -40.837,0.419Z" style="fill:none;stroke:var(--icon-outline-color);stroke-width:2.84px;"/></g><g id="ArrowTop"><path id="Background" d="M38.527,10.006c-0.758,-0.39 -2.509,-0.504 -3.575,0.029c-1.191,0.595 -3.932,2.054 -4.93,2.665c-2.449,1.5 3.569,0.929 3.556,1.268c-0.097,2.571 -1.036,3.892 -0.011,4.011c1.208,0.14 3.907,0.233 5.546,0.008c1.046,-0.144 0.301,-1.454 0.466,-3.956c0.026,-0.401 5.824,0.458 3.957,-1.283c-0.795,-0.742 -3.705,-2.071 -5.01,-2.743Z" style="fill:var(--icon-inside-color);"/><path id="Border" d="M38.527,10.006c-0.758,-0.39 -2.509,-0.504 -3.575,0.029c-1.191,0.595 -3.932,2.054 -4.93,2.665c-2.449,1.5 3.569,0.929 3.556,1.268c-0.097,2.571 -1.036,3.892 -0.011,4.011c1.208,0.14 3.907,0.233 5.546,0.008c1.046,-0.144 0.301,-1.454 0.466,-3.956c0.026,-0.401 5.824,0.458 3.957,-1.283c-0.795,-0.742 -3.705,-2.071 -5.01,-2.743Z" style="fill:none;stroke:var(--icon-outline-color);stroke-width:1.91px;"/></g><g id="ArrowRight"><path id="Background1" serif:id="Background" d="M59.089,25.79c0.673,-0.629 0.87,-2.082 -0.05,-2.967c-1.028,-0.988 -3.545,-3.263 -4.6,-4.092c-2.589,-2.032 -1.603,2.962 -2.188,2.952c-4.437,-0.08 -6.717,-0.86 -6.923,-0.009c-0.242,1.003 -0.402,3.242 -0.013,4.603c0.248,0.868 2.509,0.25 6.827,0.387c0.692,0.022 -0.791,4.834 2.214,3.284c1.28,-0.66 3.575,-3.075 4.733,-4.158Z" style="fill:var(--icon-inside-color);"/><path id="Border1" serif:id="Border" d="M59.089,25.79c0.673,-0.629 0.87,-2.082 -0.05,-2.967c-1.028,-0.988 -3.545,-3.263 -4.6,-4.092c-2.589,-2.032 -1.603,2.962 -2.188,2.952c-4.437,-0.08 -6.717,-0.86 -6.923,-0.009c-0.242,1.003 -0.402,3.242 -0.013,4.603c0.248,0.868 2.509,0.25 6.827,0.387c0.692,0.022 -0.791,4.834 2.214,3.284c1.28,-0.66 3.575,-3.075 4.733,-4.158Z" style="fill:none;stroke:var(--icon-outline-color);stroke-width:1.68px;"/></g><g id="ArrowLeft"><path id="Background2" serif:id="Background" d="M15.089,22.71c-0.673,0.629 -0.87,2.082 0.05,2.967c1.028,0.988 3.545,3.263 4.6,4.092c2.589,2.032 1.603,-2.962 2.188,-2.952c4.437,0.08 6.717,0.86 6.923,0.009c0.242,-1.003 0.402,-3.242 0.013,-4.603c-0.248,-0.868 -2.509,-0.25 -6.827,-0.387c-0.692,-0.022 0.791,-4.834 -2.214,-3.284c-1.28,0.66 -3.575,3.075 -4.733,4.158Z" style="fill:var(--icon-inside-color);"/><path id="Border2" serif:id="Border" d="M15.089,22.71c-0.673,0.629 -0.87,2.082 0.05,2.967c1.028,0.988 3.545,3.263 4.6,4.092c2.589,2.032 1.603,-2.962 2.188,-2.952c4.437,0.08 6.717,0.86 6.923,0.009c0.242,-1.003 0.402,-3.242 0.013,-4.603c-0.248,-0.868 -2.509,-0.25 -6.827,-0.387c-0.692,-0.022 0.791,-4.834 -2.214,-3.284c-1.28,0.66 -3.575,3.075 -4.733,4.158Z" style="fill:none;stroke:var(--icon-outline-color);stroke-width:1.68px;"/></g><g id="ArrowBottom"><path id="Background3" serif:id="Background" d="M34.817,40.384c0.758,0.455 2.509,0.587 3.575,-0.034c1.191,-0.694 3.932,-2.393 4.93,-3.106c2.449,-1.748 -3.569,-1.083 -3.556,-1.477c0.097,-2.996 1.036,-4.536 0.011,-4.675c-1.208,-0.163 -3.907,-0.271 -5.546,-0.009c-1.046,0.167 -0.301,1.694 -0.466,4.61c-0.026,0.467 -5.824,-0.534 -3.957,1.495c0.795,0.864 3.705,2.414 5.01,3.196Z" style="fill:var(--icon-inside-color);"/><path id="Border3" serif:id="Border" d="M34.817,40.384c0.758,0.455 2.509,0.587 3.575,-0.034c1.191,-0.694 3.932,-2.393 4.93,-3.106c2.449,-1.748 -3.569,-1.083 -3.556,-1.477c0.097,-2.996 1.036,-4.536 0.011,-4.675c-1.208,-0.163 -3.907,-0.271 -5.546,-0.009c-1.046,0.167 -0.301,1.694 -0.466,4.61c-0.026,0.467 -5.824,-0.534 -3.957,1.495c0.795,0.864 3.705,2.414 5.01,3.196Z" style="fill:none;stroke:var(--icon-outline-color);stroke-width:1.92px;"/></g></g></svg>