<?xml version="1.0" encoding="UTF-8" standalone="no"?><!DOCTYPE svg PUBLIC "-//W3C//DTD SVG 1.1//EN" "http://www.w3.org/Graphics/SVG/1.1/DTD/svg11.dtd"><svg width="100%" height="100%" viewBox="0 0 55 57" version="1.1" xmlns="http://www.w3.org/2000/svg" xmlns:xlink="http://www.w3.org/1999/xlink" xml:space="preserve" xmlns:serif="http://www.serif.com/" style="fill-rule:evenodd;clip-rule:evenodd;stroke-linecap:round;stroke-linejoin:round;stroke-miterlimit:1.5;"><path id="BackgroundDoor" d="M2.766,41.74c0.169,2.14 0.794,4.794 2.653,5.868c3.617,2.09 14.791,6.243 19.052,6.672c2.552,0.257 6.17,-1.557 6.511,-4.1l0,-44.372c-0.446,-2.751 -4.946,-3.51 -7.717,-3.215c-4.033,0.429 -13.063,3.898 -16.479,5.788c-1.998,1.105 -3.747,3.279 -4.02,5.546c-0.67,5.56 -0.442,22.199 0,27.813Z" style="fill:var(--icon-highlight-color);"/><path id="BackgroundFrame" d="M30.982,46.953l0,-38.057c5.527,0.084 13.21,-0.524 16.581,0.251c1.855,0.427 3.44,2.504 3.643,4.396c0.607,5.673 0.607,24.073 0,29.642c-0.189,1.736 -1.925,3.448 -3.643,3.768c-3.371,0.628 -11.054,0 -16.581,0Z" style="fill:var(--icon-inside-color);"/><path id="BackgroundArrow" d="M30.982,30.732l0,-6.431c0.994,0.043 2.981,0.129 2.981,0.129c0.907,-0.067 1.794,0.154 1.801,-1.672c0.006,-1.566 1.114,-3.143 2.122,-2.636c1.565,0.786 7.267,4.998 7.267,7.356c0,2.358 -5.702,5.96 -7.267,6.791c-0.819,0.435 -2.059,-0.922 -2.122,-1.801c-0.092,-1.296 -1.017,-1.452 -1.801,-1.736l-2.981,0Z" style="fill:var(--icon-highlight-color);"/><path id="FrameBottomLowLight" d="M30.982,43.193c3.446,0.616 7.049,1.336 10.339,1.336c3.194,0 6.269,-0.719 9.403,-1.336" style="fill:none;stroke:var(--icon-shadow-color);stroke-width:3.85px;"/><path id="FrameTopHighLight" d="M50.724,12.506c-3.446,-0.616 -6.536,-0.822 -9.826,-0.822c-3.194,0 -6.782,0.206 -9.916,0.822" style="fill:none;stroke:var(--icon-highlight-color);stroke-width:3.85px;"/><path id="DoorBottomLowLight" d="M3.885,44.22c4.773,1.893 8.006,3.337 12.779,4.651c4.656,1.283 9.546,1.474 14.319,2.211" style="fill:var(--icon-inside-color);stroke:var(--icon-inside-color);stroke-width:3.85px;"/><path id="BorderDoor" d="M2.766,41.74c0.169,2.14 0.794,4.794 2.653,5.868c3.617,2.09 14.791,6.243 19.052,6.672c2.552,0.257 6.511,0.774 6.511,-4.1l0,-44.372c0,-4.558 -4.946,-3.51 -7.717,-3.215c-4.033,0.429 -13.063,3.898 -16.479,5.788c-1.998,1.105 -3.747,3.279 -4.02,5.546c-0.67,5.56 -0.442,22.199 0,27.813Z" style="fill:none;stroke:var(--icon-outline-color);stroke-width:4.14px;"/><path id="BorderFrame" d="M30.982,8.896c5.527,0.084 13.21,-0.524 16.581,0.251c1.855,0.427 3.44,2.504 3.643,4.396c0.607,5.673 0.607,24.073 0,29.642c-0.189,1.736 -1.925,3.448 -3.643,3.768c-3.371,0.628 -11.054,0 -16.581,0" style="fill:none;stroke:var(--icon-outline-color);stroke-width:4.14px;"/><path id="BorderArrow" d="M30.982,30.732l0,-6.431c0.994,0.043 2.981,0.129 2.981,0.129c0.907,-0.067 1.794,0.154 1.801,-1.672c0.006,-1.566 1.114,-3.143 2.122,-2.636c1.565,0.786 7.267,4.998 7.267,7.356c0,2.358 -5.702,5.96 -7.267,6.791c-0.819,0.435 -2.059,-0.922 -2.122,-1.801c-0.092,-1.296 -1.017,-1.452 -1.801,-1.736l-2.981,0Z" style="fill:none;stroke:var(--icon-outline-color);stroke-width:2.99px;"/></svg>