<?xml version="1.0" encoding="UTF-8" standalone="no"?><!DOCTYPE svg PUBLIC "-//W3C//DTD SVG 1.1//EN" "http://www.w3.org/Graphics/SVG/1.1/DTD/svg11.dtd"><svg width="100%" height="100%" viewBox="0 0 64 46" version="1.1" xmlns="http://www.w3.org/2000/svg" xmlns:xlink="http://www.w3.org/1999/xlink" xml:space="preserve" xmlns:serif="http://www.serif.com/" style="fill-rule:evenodd;clip-rule:evenodd;stroke-linecap:round;stroke-linejoin:round;stroke-miterlimit:1.5;"><path id="Background" d="M38.046,30.212c2.119,1.645 4.041,15.555 17.767,11.936c10.366,-2.734 4.137,-28.56 -0.548,-34.659c-7.221,-9.399 -15.743,-2.197 -15.743,-2.197l-14.617,0.044c0,0 -9.194,-7.47 -16.415,1.928c-4.685,6.099 -10.646,31.791 -0.279,34.524c13.726,3.619 16.614,-9.889 18.733,-11.533l11.102,-0.043Z" style="fill:var(--icon-inside-color);"/><ellipse id="ButtonWest" cx="39.837" cy="17.324" rx="2.661" ry="2.661" style="fill:var(--icon-outline-color);"/><ellipse id="ButtonEast" cx="50.5" cy="17.393" rx="2.661" ry="2.661" style="fill:var(--icon-outline-color);"/><ellipse id="ButtonNorth" cx="45.203" cy="12.131" rx="2.661" ry="2.661" style="fill:var(--icon-outline-color);"/><ellipse id="ButtonSouth" cx="45.134" cy="22.621" rx="2.661" ry="2.661" style="fill:var(--icon-outline-color);"/><path id="LineVertical" d="M18.7,11.382c-0.014,3.785 -0.029,7.569 -0.043,11.354" style="fill:none;stroke:var(--icon-outline-color);stroke-width:4.28px;"/><path id="LineHorizontal" d="M12.801,17.307l11.798,0" style="fill:none;stroke:var(--icon-outline-color);stroke-width:4.28px;"/><path id="LowLightLeft" d="M2.802,33.028c1.047,2.467 4.729,4.874 7.137,5.538c3.155,0.87 6.847,-0.71 11.178,-0.905" style="fill:none;stroke:var(--icon-shadow-color);stroke-width:4.28px;"/><path id="LowLightRight" d="M60.975,33.028c-1.047,2.467 -4.729,4.874 -7.137,5.538c-3.155,0.87 -6.847,-0.71 -11.178,-0.905" style="fill:none;stroke:var(--icon-shadow-color);stroke-width:4.28px;"/><path id="Border" d="M28.114,32.172c-1.693,2.56 -5.515,13.472 -17.238,12.281c-1.196,-0.121 -3.174,-0.472 -4.378,-0.995c-9.943,-4.323 -5.782,-24.908 -1.855,-33.7c0.835,-1.87 1.88,-3.862 4.015,-5.875c6.157,-5.808 13.433,-3.247 17.269,-0.457l12.548,-0.029c4.099,-3.073 12.1,-5.531 18.49,2.789c4.118,5.362 9.148,23.684 5.174,32.775c-2.012,4.604 -5.516,5.227 -6.824,5.507c-11.55,2.466 -15.718,-6.542 -17.467,-10.28c-0.32,-0.685 -0.631,-1.367 -0.893,-1.855l-8.841,-0.161Zm11.245,-3.652c1.044,0.879 1.393,1.794 2.495,4.125c2.264,4.791 5.259,9.516 13.269,7.47c0.588,-0.15 3.508,-0.642 4.088,-7.262c0.728,-8.312 -2.841,-20.446 -5.719,-24.157c-3.166,-4.083 -6.801,-4.707 -10.461,-3.042c-0.976,0.444 -1.749,0.972 -2.115,1.263c-0.338,0.269 -0.608,0.366 -0.666,0.387c-0.055,0.02 -0.343,0.124 -0.721,0.128l-14.617,0.043c-0.556,0 -0.964,-0.224 -1.039,-0.265c-0.227,-0.125 -1.284,-1.032 -3.069,-1.762c-5.742,-2.35 -9.076,1.119 -10.615,3.118c-3.247,4.217 -7.45,20.082 -4.658,27.715c1.146,3.133 2.942,3.397 4.075,3.639c8.868,1.9 11.89,-4.65 14.249,-8.946c0.877,-1.596 1.708,-2.852 3.08,-2.861c3.701,-0.024 7.401,-0.038 11.102,-0.043c0.057,0 0.435,-0.001 0.698,0.114c0.216,0.094 0.407,0.241 0.623,0.335Z" style="fill:var(--icon-outline-color);"/></svg>