<?xml version="1.0" encoding="UTF-8" standalone="no"?><!DOCTYPE svg PUBLIC "-//W3C//DTD SVG 1.1//EN" "http://www.w3.org/Graphics/SVG/1.1/DTD/svg11.dtd"><svg width="100%" height="100%" viewBox="0 0 41 45" version="1.1" xmlns="http://www.w3.org/2000/svg" xmlns:xlink="http://www.w3.org/1999/xlink" xml:space="preserve" xmlns:serif="http://www.serif.com/" style="fill-rule:evenodd;clip-rule:evenodd;stroke-linejoin:round;stroke-miterlimit:2;"><clipPath id="_clip1"><rect id="Github" x="0.148" y="0.001" width="40.471" height="44.512"/></clipPath><g clip-path="url(#_clip1)"><path id="Background" d="M0.148,28.598c0,0 2.287,2.209 3.317,3.417c1.349,1.581 2.148,4.727 4.031,5.821c1.882,1.094 6.177,-0.209 7.263,0.743c0.051,2.074 0.127,4.226 0,5.215c-0.045,0.347 -0.764,0.719 -0.764,0.719l15.869,0c0,0 -0.654,-0.391 -0.674,-0.719c-0.112,-1.851 0.162,-8.025 0,-10.385c-0.145,-2.107 -3.156,-3.512 -1.798,-3.694c19.078,-2.572 12.588,-21.606 10.295,-21.952c0.831,-2.384 0.288,-7.574 -0.506,-7.575c-0.265,-0.83 -5.448,1.286 -7.99,3.012c-2.003,-0.488 -9.611,-2.085 -14.431,0c-2.738,-1.716 -7.937,-3.527 -8.092,-3.012c-0.577,-0.078 -2.148,5.459 0,7.957c-2.559,0.257 -10.453,19.062 9.935,21.57c0.42,1.311 -1.741,0.262 -1.843,3.694c-6.487,4.474 -8.219,-3.536 -10.654,-4.338c-1.261,-0.415 -3.956,-0.472 -3.956,-0.472Z" style="fill:var(--icon-inside-color);"/></g></svg>