<?xml version="1.0" encoding="UTF-8" standalone="no"?><!DOCTYPE svg PUBLIC "-//W3C//DTD SVG 1.1//EN" "http://www.w3.org/Graphics/SVG/1.1/DTD/svg11.dtd"><svg width="100%" height="100%" viewBox="0 0 55 61" version="1.1" xmlns="http://www.w3.org/2000/svg" xmlns:xlink="http://www.w3.org/1999/xlink" xml:space="preserve" xmlns:serif="http://www.serif.com/" style="fill-rule:evenodd;clip-rule:evenodd;stroke-linecap:round;stroke-linejoin:round;stroke-miterlimit:1.5;"><clipPath id="_clip1"><rect id="HandMove" x="0.037" y="0.225" width="54.632" height="60.083"/></clipPath><g clip-path="url(#_clip1)"><g id="Hand"><path id="Background" d="M3.928,27.458c-1.021,-3.716 2.847,-4.531 4.26,-3.133c1.15,1.138 3.8,7.804 6.137,8.116c2.468,0.329 0.463,-13.447 1.091,-24.937c0.182,-3.342 5.459,-3.473 5.459,-0.126c0,10.067 -0.647,16.063 0.805,16.063c1.451,0 0.901,-4.315 0.901,-19.245c0,-3.611 5.402,-3.402 5.402,-0.353c0,15.478 -0.73,19.866 0.783,19.866c1.513,0 0.87,-5.507 0.87,-15.313c0,-3.594 5.52,-3.688 5.52,0.087c0,12.582 -0.897,17.148 0.652,17.205c1.235,0.045 0.986,-4.355 0.986,-9.83c0,-3.844 5.108,-3.707 5.108,0.137c0,12.616 0.732,33.139 -10.835,33.139c-4.444,0 -5.211,-0.05 -9.167,-0.05c-4.486,0 -8.75,-5.12 -10.79,-7.905c-2.603,-3.554 -6.624,-11.682 -7.183,-13.72Z" style="fill:var(--icon-inside-color);"/><path id="Border" d="M3.928,27.458c-1.021,-3.716 2.847,-4.531 4.26,-3.133c1.15,1.138 3.8,7.804 6.137,8.116c2.468,0.329 0.463,-13.447 1.091,-24.937c0.182,-3.342 5.459,-3.473 5.459,-0.126c0,10.067 -0.647,16.063 0.805,16.063c1.451,0 0.901,-4.315 0.901,-19.245c0,-3.611 5.402,-3.402 5.402,-0.353c0,15.478 -0.73,19.866 0.783,19.866c1.513,0 0.87,-5.507 0.87,-15.313c0,-3.594 5.52,-3.688 5.52,0.087c0,12.582 -0.897,17.148 0.652,17.205c1.235,0.045 0.986,-4.355 0.986,-9.83c0,-3.844 5.108,-3.707 5.108,0.137c0,12.616 0.732,33.139 -10.835,33.139c-4.444,0 -5.211,-0.05 -9.167,-0.05c-4.486,0 -8.75,-5.12 -10.79,-7.905c-2.603,-3.554 -6.624,-11.682 -7.183,-13.72Z" style="fill:none;stroke:var(--icon-outline-color);stroke-width:2.59px;"/></g><g id="ArrowTop"><path id="Background1" serif:id="Background" d="M29.031,23.294c-0.884,-0.455 -2.927,-0.588 -4.171,0.034c-1.389,0.695 -4.587,2.396 -5.752,3.109c-2.857,1.75 4.164,1.084 4.149,1.479c-0.113,3 -1.209,4.541 -0.012,4.68c1.409,0.164 4.558,0.272 6.471,0.009c1.221,-0.168 0.352,-1.696 0.544,-4.615c0.031,-0.468 6.795,0.535 4.617,-1.497c-0.928,-0.865 -4.323,-2.416 -5.845,-3.2Z" style="fill:var(--icon-inside-color);"/><path id="Border1" serif:id="Border" d="M29.031,23.294c-0.884,-0.455 -2.927,-0.588 -4.171,0.034c-1.389,0.695 -4.587,2.396 -5.752,3.109c-2.857,1.75 4.164,1.084 4.149,1.479c-0.113,3 -1.209,4.541 -0.012,4.68c1.409,0.164 4.558,0.272 6.471,0.009c1.221,-0.168 0.352,-1.696 0.544,-4.615c0.031,-0.468 6.795,0.535 4.617,-1.497c-0.928,-0.865 -4.323,-2.416 -5.845,-3.2Z" style="fill:none;stroke:var(--icon-outline-color);stroke-width:2.23px;"/></g><g id="ArrowRight"><path id="Background2" serif:id="Background" d="M53.019,41.709c0.785,-0.734 1.015,-2.429 -0.059,-3.462c-1.199,-1.153 -4.135,-3.807 -5.366,-4.774c-3.021,-2.371 -1.87,3.456 -2.553,3.443c-5.177,-0.094 -7.837,-1.003 -8.077,-0.01c-0.282,1.17 -0.469,3.783 -0.015,5.371c0.289,1.013 2.927,0.292 7.965,0.451c0.807,0.026 -0.923,5.639 2.583,3.832c1.493,-0.77 4.17,-3.588 5.522,-4.851Z" style="fill:var(--icon-inside-color);"/><path id="Border2" serif:id="Border" d="M53.019,41.709c0.785,-0.734 1.015,-2.429 -0.059,-3.462c-1.199,-1.153 -4.135,-3.807 -5.366,-4.774c-3.021,-2.371 -1.87,3.456 -2.553,3.443c-5.177,-0.094 -7.837,-1.003 -8.077,-0.01c-0.282,1.17 -0.469,3.783 -0.015,5.371c0.289,1.013 2.927,0.292 7.965,0.451c0.807,0.026 -0.923,5.639 2.583,3.832c1.493,-0.77 4.17,-3.588 5.522,-4.851Z" style="fill:none;stroke:var(--icon-outline-color);stroke-width:1.96px;"/></g><g id="ArrowLeft"><path id="Background3" serif:id="Background" d="M1.686,38.115c-0.785,0.734 -1.015,2.429 0.059,3.462c1.199,1.153 4.135,3.807 5.366,4.774c3.021,2.371 1.87,-3.456 2.553,-3.443c5.177,0.094 7.837,1.003 8.077,0.01c0.282,-1.17 0.469,-3.783 0.015,-5.371c-0.289,-1.013 -2.927,-0.292 -7.965,-0.451c-0.807,-0.026 0.923,-5.639 -2.583,-3.832c-1.493,0.77 -4.17,3.588 -5.522,4.851Z" style="fill:var(--icon-inside-color);"/><path id="Border3" serif:id="Border" d="M1.686,38.115c-0.785,0.734 -1.015,2.429 0.059,3.462c1.199,1.153 4.135,3.807 5.366,4.774c3.021,2.371 1.87,-3.456 2.553,-3.443c5.177,0.094 7.837,1.003 8.077,0.01c0.282,-1.17 0.469,-3.783 0.015,-5.371c-0.289,-1.013 -2.927,-0.292 -7.965,-0.451c-0.807,-0.026 0.923,-5.639 -2.583,-3.832c-1.493,0.77 -4.17,3.588 -5.522,4.851Z" style="fill:none;stroke:var(--icon-outline-color);stroke-width:1.96px;"/></g><g id="ArrowBottom"><path id="Background4" serif:id="Background" d="M24.701,58.735c0.884,0.53 2.927,0.685 4.171,-0.04c1.389,-0.81 4.587,-2.792 5.752,-3.624c2.857,-2.04 -4.164,-1.263 -4.149,-1.724c0.113,-3.496 1.209,-5.292 0.012,-5.454c-1.409,-0.191 -4.558,-0.316 -6.471,-0.01c-1.221,0.195 -0.352,1.976 -0.544,5.378c-0.031,0.545 -6.795,-0.623 -4.617,1.744c0.928,1.008 4.323,2.816 5.845,3.729Z" style="fill:var(--icon-inside-color);"/><path id="Border4" serif:id="Border" d="M24.701,58.735c0.884,0.53 2.927,0.685 4.171,-0.04c1.389,-0.81 4.587,-2.792 5.752,-3.624c2.857,-2.04 -4.164,-1.263 -4.149,-1.724c0.113,-3.496 1.209,-5.292 0.012,-5.454c-1.409,-0.191 -4.558,-0.316 -6.471,-0.01c-1.221,0.195 -0.352,1.976 -0.544,5.378c-0.031,0.545 -6.795,-0.623 -4.617,1.744c0.928,1.008 4.323,2.816 5.845,3.729Z" style="fill:none;stroke:var(--icon-outline-color);stroke-width:2.24px;"/></g></g></svg>