<?xml version="1.0" encoding="UTF-8" standalone="no"?><!DOCTYPE svg PUBLIC "-//W3C//DTD SVG 1.1//EN" "http://www.w3.org/Graphics/SVG/1.1/DTD/svg11.dtd"><svg width="100%" height="100%" viewBox="0 0 54 45" version="1.1" xmlns="http://www.w3.org/2000/svg" xmlns:xlink="http://www.w3.org/1999/xlink" xml:space="preserve" xmlns:serif="http://www.serif.com/" style="fill-rule:evenodd;clip-rule:evenodd;stroke-linecap:round;stroke-linejoin:round;stroke-miterlimit:1.5;"><clipPath id="_clip1"><rect id="HapticFeedback" x="0.076" y="0.135" width="53.764" height="44.485"/></clipPath><g clip-path="url(#_clip1)"><g id="Device"><path id="BackgroundDevice" d="M38.739,38.379c-0.108,1.644 -1.793,3.824 -3.436,3.941c-3.626,0.258 -14.473,-0.031 -18.019,-0.303c-1.684,-0.129 -3.136,-2.451 -3.137,-4.14c-0.001,-6.236 0.022,-26.449 0.445,-31.103c0.188,-2.067 2.147,-3.978 4.219,-4.08c4.161,-0.204 13.215,0.032 16.33,0.275c1.835,0.143 3.673,2.011 3.84,3.843c0.429,4.719 0.185,25.083 -0.243,31.567Z" style="fill:var(--icon-inside-color);"/><path id="BorderScreen" d="M38.859,38.418c-0.108,1.644 -1.793,3.824 -3.436,3.941c-3.626,0.258 -14.473,-0.031 -18.019,-0.303c-1.684,-0.129 -3.136,-2.451 -3.137,-4.14c-0.001,-6.236 0.022,-26.808 0.445,-31.462c0.188,-2.067 2.147,-3.978 4.219,-4.08c4.161,-0.204 13.215,0.032 16.33,0.275c1.835,0.143 3.673,2.011 3.84,3.843c0.429,4.719 0.185,25.442 -0.243,31.926Z" style="fill:none;stroke:var(--icon-outline-color);stroke-width:4.32px;"/><path d="M16.501,39.257l20.352,0" style="fill:none;stroke:var(--icon-outline-color);stroke-width:5.97px;"/><path id="BorderScreen1" serif:id="BorderScreen" d="M38.859,32.683c-0.224,2.394 -1.875,4.425 -4.153,4.658c-3.616,0.369 -12.675,-0.115 -16.227,-0.303c-2.434,-0.129 -4.211,-2.186 -4.212,-4.857c-0.001,-6.236 0.022,-21.073 0.445,-25.727c0.188,-2.067 2.147,-3.978 4.219,-4.08c4.161,-0.204 13.215,0.032 16.33,0.275c1.835,0.143 3.673,2.011 3.84,3.843c0.429,4.719 0.362,19.721 -0.243,26.191Z" style="fill:none;stroke:var(--icon-outline-color);stroke-width:4.32px;"/><path id="Button" d="M29.158,39.163l0,1.296c0,0.931 -0.756,1.688 -1.688,1.688l-1.296,0c-0.931,0 -1.688,-0.756 -1.688,-1.688l0,-1.296c0,-0.931 0.756,-1.688 1.688,-1.688l1.296,0c0.931,0 1.688,0.756 1.688,1.688Z" style="fill:var(--icon-inside-color);"/></g><path id="Curve" d="M9.098,36.497c0,-1.878 -1.978,-3.182 -1.978,-4.604c0,-1.422 1.978,-2.768 1.978,-4.211c0,-1.442 -1.978,-2.846 -1.978,-4.444c0,-1.599 1.978,-2.77 1.978,-4.369c0,-1.511 -1.978,-3.242 -1.978,-4.698c0,-1.456 1.978,-2.54 1.978,-4.039" style="fill:none;stroke:var(--icon-outline-color);stroke-width:3.38px;"/><path id="Curve1" serif:id="Curve" d="M3.744,36.497c0,-1.878 -1.978,-3.182 -1.978,-4.604c0,-1.422 1.978,-2.768 1.978,-4.211c0,-1.442 -1.978,-2.846 -1.978,-4.444c0,-1.599 1.978,-2.77 1.978,-4.369c0,-1.511 -1.978,-3.242 -1.978,-4.698c0,-1.456 1.978,-2.54 1.978,-4.039" style="fill:none;stroke:var(--icon-outline-color);stroke-width:3.38px;"/><path id="Curve2" serif:id="Curve" d="M44.349,10.132c0,1.878 1.978,3.182 1.978,4.604c0,1.422 -1.978,2.768 -1.978,4.211c0,1.442 1.978,2.846 1.978,4.444c0,1.599 -1.978,2.77 -1.978,4.369c0,1.511 1.978,3.242 1.978,4.698c0,1.456 -1.978,2.54 -1.978,4.039" style="fill:none;stroke:var(--icon-outline-color);stroke-width:3.38px;"/><path id="Curve3" serif:id="Curve" d="M50.173,10.132c0,1.878 1.978,3.182 1.978,4.604c0,1.422 -1.978,2.768 -1.978,4.211c0,1.442 1.978,2.846 1.978,4.444c0,1.599 -1.978,2.77 -1.978,4.369c0,1.511 1.978,3.242 1.978,4.698c0,1.456 -1.978,2.54 -1.978,4.039" style="fill:none;stroke:var(--icon-outline-color);stroke-width:3.38px;"/></g></svg>