<?xml version="1.0" encoding="UTF-8" standalone="no"?><!DOCTYPE svg PUBLIC "-//W3C//DTD SVG 1.1//EN" "http://www.w3.org/Graphics/SVG/1.1/DTD/svg11.dtd"><svg width="100%" height="100%" viewBox="0 0 58 65" version="1.1" xmlns="http://www.w3.org/2000/svg" xmlns:xlink="http://www.w3.org/1999/xlink" xml:space="preserve" xmlns:serif="http://www.serif.com/" style="fill-rule:evenodd;clip-rule:evenodd;stroke-linecap:round;stroke-linejoin:round;stroke-miterlimit:1.5;"><clipPath id="_clip1"><rect id="HeadMove" x="0.079" y="0.152" width="57.584" height="64.648"/></clipPath><g clip-path="url(#_clip1)"><g id="Face"><path id="Background" d="M5.773,41.189c0,-4.231 4.344,-7.571 4.344,-10.362c0,-14.429 7.251,-21.284 19.52,-21.284c10.373,0 21.919,5.681 21.919,20.924c0,10.801 -8.589,13.954 -8.589,20.696c0,1.761 -0.595,3.819 -1.294,4.518c-6.663,6.663 -12.482,6.865 -17.895,6.865c-1.628,0 -1.283,-2.087 -1.283,-5.816c0,-1.164 -1.025,-1.51 -2.189,-1.51c-2.68,0 -5.509,-0.075 -7.246,-0.075c-1.738,0 -2.868,-1.508 -2.868,-3.246c0,-1.869 -0.226,-5.604 -0.226,-7.473c0,-1.432 -1.126,-1.208 -1.612,-1.208c-1.32,0 -2.582,-0.71 -2.582,-2.03Z" style="fill:var(--icon-inside-color);"/><path id="Border" d="M5.773,41.189c0,-4.231 4.344,-7.571 4.344,-10.362c0,-14.429 7.251,-21.284 19.52,-21.284c10.373,0 21.919,5.681 21.919,20.924c0,10.801 -8.589,13.954 -8.589,20.696c0,1.761 -0.595,3.819 -1.294,4.518c-6.663,6.663 -12.482,6.865 -17.895,6.865c-1.628,0 -1.283,-2.087 -1.283,-5.816c0,-1.164 -1.025,-1.51 -2.189,-1.51c-2.68,0 -5.509,-0.075 -7.246,-0.075c-1.738,0 -2.868,-1.508 -2.868,-3.246c0,-1.869 -0.226,-5.604 -0.226,-7.473c0,-1.432 -1.126,-1.208 -1.612,-1.208c-1.32,0 -2.582,-0.71 -2.582,-2.03Z" style="fill:none;stroke:var(--icon-outline-color);stroke-width:4.51px;"/></g><g id="ArrowTop"><path id="Background1" serif:id="Background" d="M30.905,1.564c-0.831,-0.428 -2.751,-0.553 -3.92,0.032c-1.306,0.653 -4.311,2.252 -5.405,2.922c-2.685,1.645 3.913,1.019 3.899,1.39c-0.106,2.819 -1.136,4.268 -0.012,4.398c1.324,0.154 4.283,0.255 6.081,0.008c1.147,-0.157 0.33,-1.594 0.511,-4.337c0.029,-0.439 6.385,0.503 4.339,-1.407c-0.872,-0.813 -4.062,-2.271 -5.493,-3.007Z" style="fill:var(--icon-inside-color);"/><path id="Border1" serif:id="Border" d="M30.905,1.564c-0.831,-0.428 -2.751,-0.553 -3.92,0.032c-1.306,0.653 -4.311,2.252 -5.405,2.922c-2.685,1.645 3.913,1.019 3.899,1.39c-0.106,2.819 -1.136,4.268 -0.012,4.398c1.324,0.154 4.283,0.255 6.081,0.008c1.147,-0.157 0.33,-1.594 0.511,-4.337c0.029,-0.439 6.385,0.503 4.339,-1.407c-0.872,-0.813 -4.062,-2.271 -5.493,-3.007Z" style="fill:none;stroke:var(--icon-outline-color);stroke-width:2.09px;"/></g><g id="ArrowRight"><path id="Background2" serif:id="Background" d="M56.113,20.878c0.738,-0.69 0.954,-2.283 -0.055,-3.253c-1.127,-1.084 -3.886,-3.578 -5.043,-4.486c-2.839,-2.228 -1.758,3.248 -2.399,3.236c-4.865,-0.088 -7.365,-0.943 -7.59,-0.01c-0.265,1.099 -0.44,3.555 -0.015,5.047c0.272,0.952 2.751,0.274 7.485,0.424c0.758,0.024 -0.867,5.3 2.427,3.601c1.403,-0.723 3.919,-3.372 5.189,-4.559Z" style="fill:var(--icon-inside-color);"/><path id="Border2" serif:id="Border" d="M56.113,20.878c0.738,-0.69 0.954,-2.283 -0.055,-3.253c-1.127,-1.084 -3.886,-3.578 -5.043,-4.486c-2.839,-2.228 -1.758,3.248 -2.399,3.236c-4.865,-0.088 -7.365,-0.943 -7.59,-0.01c-0.265,1.099 -0.44,3.555 -0.015,5.047c0.272,0.952 2.751,0.274 7.485,0.424c0.758,0.024 -0.867,5.3 2.427,3.601c1.403,-0.723 3.919,-3.372 5.189,-4.559Z" style="fill:none;stroke:var(--icon-outline-color);stroke-width:1.84px;"/></g><g id="ArrowLeft"><path id="Background3" serif:id="Background" d="M1.629,17.501c-0.738,0.69 -0.954,2.283 0.055,3.253c1.127,1.084 3.886,3.578 5.043,4.486c2.839,2.228 1.758,-3.248 2.399,-3.236c4.865,0.088 7.365,0.943 7.59,0.01c0.265,-1.099 0.44,-3.555 0.015,-5.047c-0.272,-0.952 -2.751,-0.274 -7.485,-0.424c-0.758,-0.024 0.867,-5.3 -2.427,-3.601c-1.403,0.723 -3.919,3.372 -5.189,4.559Z" style="fill:var(--icon-inside-color);"/><path id="Border3" serif:id="Border" d="M1.629,17.501c-0.738,0.69 -0.954,2.283 0.055,3.253c1.127,1.084 3.886,3.578 5.043,4.486c2.839,2.228 1.758,-3.248 2.399,-3.236c4.865,0.088 7.365,0.943 7.59,0.01c0.265,-1.099 0.44,-3.555 0.015,-5.047c-0.272,-0.952 -2.751,-0.274 -7.485,-0.424c-0.758,-0.024 0.867,-5.3 -2.427,-3.601c-1.403,0.723 -3.919,3.372 -5.189,4.559Z" style="fill:none;stroke:var(--icon-outline-color);stroke-width:1.84px;"/></g><g id="ArrowBottom"><path id="Background4" serif:id="Background" d="M26.837,38.599c0.831,0.498 2.751,0.644 3.92,-0.037c1.306,-0.761 4.311,-2.624 5.405,-3.405c2.685,-1.917 -3.913,-1.187 -3.899,-1.62c0.106,-3.285 1.136,-4.973 0.012,-5.125c-1.324,-0.179 -4.283,-0.297 -6.081,-0.01c-1.147,0.183 -0.33,1.857 -0.511,5.054c-0.029,0.512 -6.385,-0.586 -4.339,1.639c0.872,0.947 4.062,2.646 5.493,3.504Z" style="fill:var(--icon-inside-color);"/><path id="Border4" serif:id="Border" d="M26.837,38.599c0.831,0.498 2.751,0.644 3.92,-0.037c1.306,-0.761 4.311,-2.624 5.405,-3.405c2.685,-1.917 -3.913,-1.187 -3.899,-1.62c0.106,-3.285 1.136,-4.973 0.012,-5.125c-1.324,-0.179 -4.283,-0.297 -6.081,-0.01c-1.147,0.183 -0.33,1.857 -0.511,5.054c-0.029,0.512 -6.385,-0.586 -4.339,1.639c0.872,0.947 4.062,2.646 5.493,3.504Z" style="fill:none;stroke:var(--icon-outline-color);stroke-width:2.11px;"/></g></g></svg>