<?xml version="1.0" encoding="UTF-8" standalone="no"?><!DOCTYPE svg PUBLIC "-//W3C//DTD SVG 1.1//EN" "http://www.w3.org/Graphics/SVG/1.1/DTD/svg11.dtd"><svg width="100%" height="100%" viewBox="0 0 47 42" version="1.1" xmlns="http://www.w3.org/2000/svg" xmlns:xlink="http://www.w3.org/1999/xlink" xml:space="preserve" xmlns:serif="http://www.serif.com/" style="fill-rule:evenodd;clip-rule:evenodd;stroke-linecap:round;stroke-linejoin:round;stroke-miterlimit:1.5;"><clipPath id="_clip1"><rect id="Heart" x="0.046" y="0.032" width="45.859" height="41.926"/></clipPath><g clip-path="url(#_clip1)"><path id="Background" d="M22.088,40.146c3.705,0 33.284,-25.794 17.302,-35.818c-11.338,-7.111 -17.302,3.308 -17.302,3.308c0,0 -5.483,-10.42 -15.907,-3.308c-14.693,10.024 12.501,35.818 15.907,35.818Z" style="fill:var(--icon-inside-color);"/><path id="LowLight" d="M21.085,37.759c0,0 7.898,-4.852 11.529,-8.137c3.631,-3.285 10.036,-12.453 10.036,-12.453" style="fill:none;stroke:var(--icon-shadow-color);stroke-width:4.01px;"/><path id="HighLight" d="M6.7,24.106c0,0 -5.712,-11.931 0.74,-17.51c5.999,-5.187 14.374,1.344 14.374,1.344" style="fill:none;stroke:var(--icon-highlight-color);stroke-width:3.43px;"/><path id="Border" d="M22.088,40.146c3.705,0 33.284,-25.794 17.302,-35.818c-11.338,-7.111 -17.302,3.308 -17.302,3.308c0,0 -5.483,-10.42 -15.907,-3.308c-14.693,10.024 12.501,35.818 15.907,35.818Z" style="fill:none;stroke:var(--icon-outline-color);stroke-width:3.62px;"/></g></svg>