<?xml version="1.0" encoding="UTF-8" standalone="no"?><!DOCTYPE svg PUBLIC "-//W3C//DTD SVG 1.1//EN" "http://www.w3.org/Graphics/SVG/1.1/DTD/svg11.dtd"><svg width="100%" height="100%" viewBox="0 0 68 45" version="1.1" xmlns="http://www.w3.org/2000/svg" xmlns:xlink="http://www.w3.org/1999/xlink" xml:space="preserve" xmlns:serif="http://www.serif.com/" style="fill-rule:evenodd;clip-rule:evenodd;stroke-linecap:round;stroke-linejoin:round;stroke-miterlimit:1.5;"><clipPath id="_clip1"><rect id="HoldingDevice" x="0.162" y="0.118" width="67.51" height="44.395"/></clipPath><g clip-path="url(#_clip1)"><g id="Device"><path id="BackgroundDevice" d="M13.838,38.876c-2.505,-0.116 -5.873,-2.614 -6.099,-5.112c-0.5,-5.511 -0.383,-22.026 -0.074,-27.431c0.147,-2.567 3.636,-4.846 6.207,-4.897c9.49,-0.187 33.162,-0.614 40.257,-0.109c3.15,0.224 6.118,3.149 6.334,6.3c0.433,6.326 0.344,20.112 0.067,24.86c-0.163,2.797 -2.951,5.65 -5.735,5.958c-7.168,0.794 -31.076,0.889 -40.957,0.43Z" style="fill:var(--icon-inside-color);"/><path id="BackgroundScreen" d="M19.336,35.074c-1.891,-0.091 -2.944,-1.125 -3.115,-3.084c-0.378,-4.321 -0.295,-18.946 -0.063,-23.185c0.11,-2.013 1.259,-3.052 3.2,-3.092c7.163,-0.146 27.634,-0.486 32.99,-0.089c2.378,0.176 3.5,1.172 3.663,3.643c0.328,4.961 0.268,18.003 0.059,21.726c-0.123,2.193 -1.486,3.499 -3.588,3.74c-5.411,0.622 -25.688,0.7 -33.146,0.34Z" style="fill:var(--icon-shadow-color);"/><path id="BottomLowLight" d="M59.625,22.756c0,0 1.51,8.798 -1.276,12.307c-2.786,3.509 -8.772,3.66 -12.15,3.118" style="fill:none;stroke:var(--icon-shadow-color);stroke-width:3.33px;"/><path id="TopHighLight" d="M8.327,18.598c0,0 -1.51,-8.798 1.276,-12.307c2.786,-3.509 8.772,-3.66 12.15,-3.118" style="fill:none;stroke:var(--icon-highlight-color);stroke-width:3.33px;"/><path id="BorderButton" d="M12.278,21.479l-1.112,0.003c-0.307,0.001 -0.557,-0.248 -0.557,-0.554l-0.003,-1.112c-0.001,-0.307 0.248,-0.557 0.554,-0.557l1.112,-0.003c0.307,-0.001 0.557,0.248 0.557,0.554l0.003,1.112c0.001,0.307 -0.248,0.557 -0.554,0.557Z" style="fill:var(--icon-outline-color);stroke:var(--icon-outline-color);stroke-width:2.31px;"/><path id="BorderScreen" d="M13.784,39.059c-2.505,-0.116 -5.873,-2.614 -6.099,-5.112c-0.5,-5.511 -0.383,-22.026 -0.074,-27.431c0.147,-2.567 3.636,-4.846 6.207,-4.897c9.49,-0.187 33.162,-0.614 40.257,-0.109c3.15,0.224 6.118,3.149 6.334,6.3c0.433,6.326 0.344,20.112 0.067,24.86c-0.163,2.797 -2.951,5.65 -5.735,5.958c-7.168,0.794 -31.076,0.889 -40.957,0.43Z" style="fill:none;stroke:var(--icon-outline-color);stroke-width:2.31px;"/><path id="BorderDevice" d="M19.336,35.074c-1.891,-0.091 -2.944,-1.125 -3.115,-3.084c-0.378,-4.321 -0.295,-18.946 -0.063,-23.185c0.11,-2.013 1.259,-3.052 3.2,-3.092c7.163,-0.146 27.634,-0.486 32.99,-0.089c2.378,0.176 3.5,1.172 3.663,3.643c0.328,4.961 0.268,18.003 0.059,21.726c-0.123,2.193 -1.486,3.499 -3.588,3.74c-5.411,0.622 -25.688,0.7 -33.146,0.34Z" style="fill:none;stroke:var(--icon-outline-color);stroke-width:2.31px;"/></g><g id="Hand"><path id="Background" d="M44.867,37.757c-0.403,-7.104 4.08,-7.095 4.218,-10.544c0.135,-3.366 -2.59,-8.019 -3.305,-10.096c-1.179,-3.424 3.411,-7.363 6.8,-2.61c1.37,1.922 4.178,8.165 5.054,10.061c0.81,1.753 3.215,1.6 3.38,-0.795c0.131,-1.912 0.111,-10.265 0.111,-10.265c0,0 -0.037,-0.085 0.001,-0.002c4.767,10.263 5.727,10.565 5.727,13.628c0,1.619 -2.098,4.93 -3.615,7.675c-1.511,2.734 -3.766,6.614 -5.474,7.761c-1.846,1.24 -5.383,1.022 -7.606,1.068c-2.533,0.053 -6.125,0.271 -7.591,-0.749c-1.429,-0.994 -1.047,-1.721 -1.047,-6.203c0,-1.86 2.318,-1.486 3.086,-1.518" style="fill:var(--icon-inside-color);"/><path id="Border" d="M44.867,37.757c-0.403,-7.104 4.08,-7.095 4.218,-10.544c0.135,-3.366 -2.59,-8.019 -3.305,-10.096c-1.179,-3.424 3.411,-7.363 6.8,-2.61c1.37,1.922 4.178,8.165 5.054,10.061c0.81,1.753 3.215,1.6 3.38,-0.795c0.131,-1.912 0.111,-10.265 0.111,-10.265c0,0 -0.037,-0.085 0.001,-0.002c4.767,10.263 5.727,10.565 5.727,13.628c0,1.619 -2.098,4.93 -3.615,7.675c-1.511,2.734 -3.766,6.614 -5.474,7.761c-1.846,1.24 -5.383,1.022 -7.606,1.068c-2.533,0.053 -6.125,0.271 -7.591,-0.749c-1.429,-0.994 -1.047,-1.721 -1.047,-6.203c0,-1.86 2.318,-1.486 3.086,-1.518" style="fill:none;stroke:var(--icon-outline-color);stroke-width:1.64px;"/></g><g id="Hand1" serif:id="Hand"><path id="Background1" serif:id="Background" d="M23.414,36.717c0.411,-7.104 -4.163,-7.095 -4.304,-10.544c-0.137,-3.366 2.643,-8.019 3.372,-10.096c1.203,-3.424 -3.481,-7.363 -6.939,-2.61c-1.398,1.922 -4.263,8.165 -5.157,10.061c-0.826,1.753 -3.281,1.6 -3.449,-0.795c-0.134,-1.912 -0.113,-10.265 -0.113,-10.265c0,0 0.038,-0.085 -0.001,-0.002c-4.864,10.263 -5.843,10.565 -5.843,13.628c0,1.619 2.141,4.93 3.689,7.675c1.542,2.734 3.842,6.614 5.585,7.761c1.884,1.24 5.493,1.022 7.761,1.068c2.584,0.053 6.25,0.271 7.745,-0.749c1.458,-0.994 1.068,-1.721 1.068,-6.203c0,-1.86 -2.365,-1.486 -3.148,-1.518" style="fill:var(--icon-inside-color);"/><path id="Border1" serif:id="Border" d="M23.414,36.717c0.411,-7.104 -4.163,-7.095 -4.304,-10.544c-0.137,-3.366 2.643,-8.019 3.372,-10.096c1.203,-3.424 -3.481,-7.363 -6.939,-2.61c-1.398,1.922 -4.263,8.165 -5.157,10.061c-0.826,1.753 -3.281,1.6 -3.449,-0.795c-0.134,-1.912 -0.113,-10.265 -0.113,-10.265c0,0 0.038,-0.085 -0.001,-0.002c-4.864,10.263 -5.843,10.565 -5.843,13.628c0,1.619 2.141,4.93 3.689,7.675c1.542,2.734 3.842,6.614 5.585,7.761c1.884,1.24 5.493,1.022 7.761,1.068c2.584,0.053 6.25,0.271 7.745,-0.749c1.458,-0.994 1.068,-1.721 1.068,-6.203c0,-1.86 -2.365,-1.486 -3.148,-1.518" style="fill:none;stroke:var(--icon-outline-color);stroke-width:1.64px;"/></g></g></svg>