<?xml version="1.0" encoding="UTF-8" standalone="no"?><!DOCTYPE svg PUBLIC "-//W3C//DTD SVG 1.1//EN" "http://www.w3.org/Graphics/SVG/1.1/DTD/svg11.dtd"><svg width="100%" height="100%" viewBox="0 0 48 48" version="1.1" xmlns="http://www.w3.org/2000/svg" xmlns:xlink="http://www.w3.org/1999/xlink" xml:space="preserve" xmlns:serif="http://www.serif.com/" style="fill-rule:evenodd;clip-rule:evenodd;stroke-linecap:round;stroke-linejoin:round;stroke-miterlimit:1.5;"><circle id="FlichBackground" cx="35.959" cy="11.528" r="2.707" style="fill:var(--icon-inside-color);"/><path id="LencBackground" d="M14.164,23.752c0,-5.674 3.664,-9.517 9.338,-9.517c5.674,0 9.75,3.843 9.75,9.517c0,5.674 -4.076,9.927 -9.75,9.927c-5.674,0 -9.338,-4.253 -9.338,-9.927Z" style="fill:none;stroke:var(--icon-inside-color);stroke-width:5.54px;"/><path id="OuterBackground" d="M2.911,14.235c0,-5.401 4.525,-11.325 10.168,-11.325l21.741,0c5.456,0 9.615,5.251 9.615,9.402l0,22.578c0,5.542 -3.895,9.687 -8.048,9.687l-23.308,0c-4.968,0 -10.168,-5.929 -10.168,-10.897l0,-19.444Z" style="fill:none;stroke:var(--icon-inside-color);stroke-width:5.54px;"/></svg>