<?xml version="1.0" encoding="UTF-8" standalone="no"?><!DOCTYPE svg PUBLIC "-//W3C//DTD SVG 1.1//EN" "http://www.w3.org/Graphics/SVG/1.1/DTD/svg11.dtd"><svg width="100%" height="100%" viewBox="0 0 147 156" version="1.1" xmlns="http://www.w3.org/2000/svg" xmlns:xlink="http://www.w3.org/1999/xlink" xml:space="preserve" xmlns:serif="http://www.serif.com/" style="fill-rule:evenodd;clip-rule:evenodd;stroke-linejoin:round;stroke-miterlimit:2;"><path id="Background" d="M3.92,76.602c-0.679,-46.443 34.401,-69.175 68.847,-69.27c28.275,-0.079 69.011,26.841 69.932,69.27c0.648,29.856 -24.88,69.915 -69.932,70.136c-36.88,0.181 -68.167,-23.739 -68.847,-70.136Z" style="fill:var(--icon-inside-color);"/><g id="HighLights"><clipPath id="_clip1"><path d="M3.92,76.602c-0.679,-46.443 34.401,-69.175 68.847,-69.27c28.275,-0.079 69.011,26.841 69.932,69.27c0.648,29.856 -24.88,69.915 -69.932,70.136c-36.88,0.181 -68.167,-23.739 -68.847,-70.136Z"/></clipPath><g clip-path="url(#_clip1)"><path id="TopHighLight" d="M141.581,37.624c-0.245,0.557 -1.652,3.755 -5.52,5.252c-1.188,0.46 -2.489,0.705 -3.763,0.677c-2.55,-0.055 -4.485,-1.123 -4.837,-1.316c-7.251,-4.001 -12.928,-8.128 -23.1,-14.722c-5.085,-3.296 -8.197,-4.972 -11.317,-6.489c-0.261,-0.126 -0.985,-0.48 -3.352,-1.372c-0.162,-0.061 -2.557,-0.885 -4.576,-1.322c-7.857,-1.698 -12.351,-0.896 -17.814,0.329c-1.174,0.263 -1.166,0.277 -2.347,0.521c-5.917,1.22 -12.405,2.819 -21.265,6.454c-2.176,0.892 -3.51,1.632 -3.804,1.794c-6.713,3.72 -13.398,8.582 -22.758,13.277c-1.417,0.711 -3.596,0.623 -3.913,0.611c-0.6,-0.024 -4.056,-0.163 -6.82,-3.135c-2.851,-3.065 -2.701,-6.61 -2.675,-7.225c0.17,-4.035 2.697,-6.41 3.134,-6.821c2.309,-2.169 2.536,-1.867 5.604,-2.657c10.253,-2.642 20.589,-7.13 21.629,-7.639c5.256,-2.573 14.043,-8.47 23.869,-11.829c0.637,-0.218 4.123,-1.41 8.226,-1.78c3.915,-0.352 12.18,-0.83 23.944,3.889c4.942,1.983 4.903,2.065 9.799,4.158c7.303,3.121 19.902,9.313 24.178,11.209c8.662,3.841 10.828,4.296 12.405,5c3.751,1.674 5.02,4.953 5.24,5.521c1.49,3.85 0.08,7.055 -0.165,7.614Z" style="fill:var(--icon-highlight-color);"/><path id="BottomLowLight" d="M4.793,117.633c0.245,-0.557 1.652,-3.755 5.52,-5.252c1.188,-0.46 2.489,-0.705 3.763,-0.677c2.55,0.055 4.485,1.123 4.837,1.316c7.251,4.001 12.928,8.128 23.1,14.722c5.085,3.296 8.197,4.972 11.317,6.489c0.261,0.126 0.985,0.48 3.352,1.372c0.162,0.061 2.557,0.885 4.576,1.322c7.857,1.698 12.351,0.896 17.814,-0.329c1.174,-0.263 1.166,-0.277 2.347,-0.521c5.917,-1.22 12.405,-2.819 21.265,-6.454c2.176,-0.892 3.51,-1.632 3.804,-1.794c6.713,-3.72 13.398,-8.582 22.758,-13.277c1.417,-0.711 3.596,-0.623 3.913,-0.611c4.056,0.163 6.411,2.695 6.82,3.135c2.851,3.065 2.701,6.61 2.675,7.225c-0.17,4.035 -2.697,6.41 -3.134,6.821c-2.309,2.169 -2.536,1.867 -5.604,2.657c-10.253,2.642 -20.589,7.13 -21.629,7.639c-5.256,2.573 -14.043,8.47 -23.869,11.829c-0.637,0.218 -4.123,1.41 -8.226,1.78c-3.915,0.352 -12.18,0.83 -23.944,-3.889c-4.942,-1.983 -4.903,-2.065 -9.799,-4.158c-7.303,-3.121 -19.902,-9.313 -24.178,-11.209c-8.662,-3.841 -10.828,-4.296 -12.405,-5c-3.751,-1.674 -5.02,-4.953 -5.24,-5.521c-1.49,-3.85 -0.08,-7.055 0.165,-7.614Z" style="fill:var(--icon-shadow-color);"/></g></g><path id="Border" d="M3.92,76.602c-0.679,-46.443 34.401,-69.175 68.847,-69.27c28.275,-0.079 69.011,26.841 69.932,69.27c0.648,29.856 -24.88,69.915 -69.932,70.136c-36.88,0.181 -68.167,-23.739 -68.847,-70.136Z" style="fill:none;stroke:var(--icon-outline-color);stroke-width:7.79px;"/></svg>