<?xml version="1.0" encoding="UTF-8" standalone="no"?><!DOCTYPE svg PUBLIC "-//W3C//DTD SVG 1.1//EN" "http://www.w3.org/Graphics/SVG/1.1/DTD/svg11.dtd"><svg width="100%" height="100%" viewBox="0 0 65 58" version="1.1" xmlns="http://www.w3.org/2000/svg" xmlns:xlink="http://www.w3.org/1999/xlink" xml:space="preserve" xmlns:serif="http://www.serif.com/" style="fill-rule:evenodd;clip-rule:evenodd;stroke-linejoin:round;stroke-miterlimit:2;"><path d="M24.415,37.612c-1.277,-2.657 2.276,-4.637 3.677,-2.425c0.769,1.214 3.124,5.406 3.97,5.408c0.858,0.002 2.076,-1.763 2.958,-3.17c0.747,-1.191 2.732,-12.918 3.385,-16.652c0.34,-1.945 -4,-2.863 -8.794,-0.898c-3.417,1.401 -4.539,-2.923 -1.995,-3.891c9.878,-3.757 15.93,0.882 16.691,1.644c1.394,1.394 0.521,2.275 1.285,3.039c1.349,1.349 6.667,1.262 8.773,0.433c2.54,-1 4.397,3.073 1.845,4.044c-6.524,2.482 -11.186,-0.319 -11.83,0.082c-0.517,0.321 -0.583,2.022 -1.467,7.011c-0.128,0.723 0.244,1.085 0.935,0.835c6.236,-2.253 12.798,-0.844 15.242,-0.222c2.444,0.622 1.548,4.493 -0.933,4.042c-5.756,-1.047 -16.728,-1.924 -23.359,7.558c-0.952,1.361 -4.113,1.414 -5.255,0.21c-1.426,-1.503 -4.276,-5.27 -5.13,-7.047Z" style="fill:var(--icon-inside-color);"/><path d="M44.426,7.24c1.051,-1.004 4.431,-1.682 6.047,0.432c1.833,2.398 0.886,4.973 -0.249,5.928c-1.452,1.221 -4.464,1.692 -6.34,-0.447c-1.757,-2.004 -0.699,-4.728 0.542,-5.912Z" style="fill:var(--icon-inside-color);"/><path d="M22.265,28.174c1.539,0.007 1.703,-2.369 0.166,-2.446c-10.195,-0.511 -16.096,7.569 -18.255,11.507c-0.779,1.421 1.395,2.59 2.202,1.285c3.123,-5.048 7.703,-10.386 15.887,-10.347Z" style="fill:var(--icon-inside-color);"/><path d="M17.244,43.699c1.345,-0.972 -0.146,-3.19 -1.643,-2.098c-1.221,0.891 -4.092,4.509 -4.881,6.621c-0.491,1.313 1.62,2.38 2.318,1.163c0.697,-1.216 2.28,-4.295 4.206,-5.687Z" style="fill:var(--icon-inside-color);"/><path id="BottomLowLight" d="M25.441,41.863c0.02,-0.055 0.138,-0.37 0.482,-0.526c0.106,-0.048 0.222,-0.075 0.337,-0.076c0.23,-0.001 0.407,0.098 0.439,0.116c0.664,0.371 1.523,0.759 2.457,1.376c0.467,0.308 0.751,0.464 1.036,0.603c0.024,0.012 0.09,0.044 0.306,0.125c0.015,0.005 0.233,0.08 0.416,0.117c0.712,0.145 1.114,0.056 1.602,-0.078c0.105,-0.029 0.104,-0.03 0.21,-0.057c0.529,-0.134 1.109,-0.307 1.896,-0.683c0.193,-0.093 0.311,-0.168 0.337,-0.185c0.594,-0.38 1.968,-0.871 2.797,-1.352c0.126,-0.073 0.322,-0.07 0.35,-0.07c0.365,0.005 0.584,0.246 0.622,0.288c0.265,0.291 0.261,0.637 0.261,0.697c-0.004,0.394 -0.19,1.632 -0.228,1.674c-0.202,0.217 -0.223,0.188 -0.497,0.273c-0.915,0.284 -2.619,0.972 -2.711,1.024c-0.466,0.264 -1.24,0.861 -2.115,1.214c-0.057,0.023 -0.367,0.148 -0.735,0.195c-0.351,0.044 -1.094,0.112 -2.166,-0.318c-0.45,-0.181 -0.447,-0.189 -0.893,-0.38c-0.666,-0.286 -2.154,-0.857 -2.544,-1.031c-0.79,-0.352 -0.986,-0.391 -1.13,-0.456c-0.342,-0.154 -0.466,-0.47 -0.487,-0.525c-0.145,-0.371 -0.062,-1.913 -0.041,-1.968Z" style="fill:var(--icon-shadow-color);"/><path id="BottomLowLight1" serif:id="BottomLowLight" d="M58.197,34.73c5.332,1.191 2.525,2.987 0.797,2.438c-0.864,-0.274 -14.366,1.599 -15.898,2.142c-0.232,0.082 -0.595,0.094 -0.648,0.095c-0.676,0.021 -1.081,-0.204 -1.152,-0.243c-0.491,-0.272 0.82,-1.569 1.54,-2.097c2.98,-2.188 6.983,-2.533 9.702,-2.81c0.65,-0.066 2.022,-0.193 4.005,0.159c0.833,0.148 0.832,0.132 1.653,0.315Z" style="fill:var(--icon-shadow-color);"/><path id="BottomLowLight2" serif:id="BottomLowLight" d="M42.341,10.455c0.018,-0.048 0.12,-0.324 0.402,-0.453c0.087,-0.04 0.181,-0.061 0.274,-0.058c0.186,0.005 0.327,0.097 0.353,0.113c0.529,0.345 0.942,0.701 1.684,1.27c0.371,0.284 0.598,0.429 0.825,0.56c0.019,0.011 0.072,0.041 0.244,0.118c0.012,0.005 0.186,0.076 0.334,0.114c0.573,0.146 0.9,0.077 1.299,-0.028c0.086,-0.023 0.085,-0.024 0.171,-0.045c0.431,-0.105 0.904,-0.243 1.55,-0.557c0.159,-0.077 0.256,-0.141 0.277,-0.155c0.489,-0.321 0.977,-0.74 1.659,-1.145c0.103,-0.061 0.262,-0.054 0.285,-0.053c0.296,0.014 0.467,0.233 0.497,0.27c0.208,0.264 0.197,0.57 0.195,0.623c-0.012,0.348 -0.197,1.974 -0.228,2.01c-0.168,0.187 -0.185,0.161 -0.408,0.229c-0.747,0.228 -1.501,0.615 -1.577,0.659c-0.383,0.222 -1.024,0.731 -1.74,1.02c-0.046,0.019 -0.301,0.122 -0.6,0.154c-0.285,0.03 -0.888,0.072 -1.745,-0.335c-0.36,-0.171 -0.357,-0.178 -0.714,-0.359c-0.532,-0.269 -1.451,-0.803 -1.762,-0.967c-0.631,-0.331 -0.789,-0.371 -0.904,-0.431c-0.273,-0.144 -0.366,-0.427 -0.382,-0.476c-0.109,-0.332 -0.006,-2.03 0.012,-2.078Z" style="fill:var(--icon-shadow-color);"/><path id="TopHighLight" d="M48.504,19.981c-0.05,0.089 -0.337,0.597 -1.043,0.795c-0.217,0.061 -0.452,0.085 -0.678,0.065c-0.454,-0.04 -0.787,-0.24 -0.847,-0.276c-1.247,-0.746 -2.213,-1.494 -3.951,-2.702c-0.869,-0.604 -1.405,-0.917 -1.944,-1.205c-0.045,-0.024 -0.17,-0.091 -0.582,-0.267c-0.028,-0.012 -0.446,-0.177 -0.801,-0.273c-1.381,-0.375 -2.192,-0.299 -3.179,-0.165c-0.212,0.029 -0.211,0.031 -0.424,0.057c-1.069,0.128 -2.243,0.311 -3.864,0.799c-0.398,0.12 -0.644,0.225 -0.698,0.248c-1.239,0.529 -2.486,1.245 -4.207,1.902c-0.261,0.099 -0.648,0.058 -0.705,0.052c-0.107,-0.011 -0.721,-0.077 -1.18,-0.599c-0.474,-0.539 -0.407,-1.119 -0.395,-1.22c0.076,-0.661 0.553,-1.02 0.636,-1.082c0.436,-0.328 0.473,-0.276 1.029,-0.368c1.858,-0.308 3.751,-0.918 3.942,-0.989c0.966,-0.358 2.599,-1.219 4.389,-1.65c0.116,-0.028 0.751,-0.181 1.486,-0.191c0.702,-0.01 2.181,0.013 4.224,0.933c0.859,0.386 0.851,0.4 1.7,0.803c1.267,0.602 3.443,1.774 4.183,2.138c1.501,0.737 1.882,0.839 2.155,0.974c0.65,0.321 0.839,0.875 0.872,0.971c0.222,0.651 -0.066,1.16 -0.116,1.249Z" style="fill:var(--icon-highlight-color);"/><path d="M32.227,35.593c0.136,-0.51 0.38,-1.447 0.557,-2.268c0.709,-3.292 1.567,-8.178 2.106,-11.284c-0.154,-0.01 -0.309,-0.014 -0.451,-0.007c-1.064,0.047 -2.308,0.315 -3.597,0.844c-2.287,0.938 -4.106,0.512 -5.389,-0.303c-3.351,-2.128 -3.44,-7.933 1.01,-9.625c11.944,-4.543 19.22,1.462 20.14,2.382c0.969,0.969 1.431,2.114 1.65,2.949c0.369,0.07 0.826,0.143 1.185,0.161c1.378,0.069 2.906,-0.035 3.739,-0.363c3.095,-1.218 5.847,0.484 6.974,2.956c1.21,2.653 0.55,5.872 -2.786,7.141c-0.723,0.275 -1.444,0.493 -2.153,0.664c2.022,0.237 3.665,0.606 4.679,0.864c3.21,0.817 4.343,3.701 3.743,6.299c-0.591,2.559 -2.847,4.665 -6.057,4.081c-4.937,-0.898 -14.43,-1.908 -20.118,6.225c-0.974,1.393 -2.96,2.383 -5.114,2.451c-2.037,0.064 -4.049,-0.701 -5.155,-1.867c-1.59,-1.676 -4.748,-5.893 -5.7,-7.875c-0.907,-1.886 -0.701,-3.628 0.004,-5.002c1.746,-3.403 6.876,-4.458 9.341,-0.566c0.238,0.375 0.815,1.26 1.393,2.143Zm-7.812,2.019c0.854,1.777 3.704,5.544 5.13,7.047c1.143,1.204 4.304,1.151 5.255,-0.21c6.631,-9.481 17.603,-8.605 23.359,-7.558c2.481,0.451 3.377,-3.42 0.933,-4.042c-2.444,-0.622 -9.006,-2.031 -15.242,0.222c-0.691,0.25 -1.063,-0.112 -0.935,-0.835c0.884,-4.989 0.95,-6.69 1.467,-7.011c0.644,-0.401 5.306,2.4 11.83,-0.082c2.552,-0.971 0.695,-5.044 -1.845,-4.044c-2.106,0.829 -7.424,0.916 -8.773,-0.433c-0.765,-0.765 0.108,-1.646 -1.285,-3.039c-0.761,-0.761 -6.814,-5.4 -16.691,-1.644c-2.545,0.968 -1.422,5.292 1.995,3.891c4.794,-1.965 9.134,-1.047 8.794,0.898c-0.652,3.734 -2.638,15.461 -3.385,16.652c-0.882,1.407 -2.099,3.172 -2.958,3.17c-0.846,-0.002 -3.202,-4.194 -3.97,-5.408c-1.401,-2.212 -4.954,-0.232 -3.677,2.425Z" style="fill:var(--icon-outline-color);"/><path d="M42.185,4.892c0.939,-0.896 2.864,-1.795 4.968,-1.85c2.166,-0.057 4.413,0.715 5.899,2.658c3.217,4.208 1.253,8.709 -0.739,10.383c-2.49,2.093 -7.653,2.876 -10.869,-0.791c-3.086,-3.519 -1.438,-8.32 0.741,-10.4Zm2.241,2.348c-1.241,1.184 -2.299,3.909 -0.542,5.912c1.876,2.139 4.888,1.668 6.34,0.447c1.135,-0.954 2.082,-3.53 0.249,-5.928c-1.616,-2.114 -4.996,-1.435 -6.047,-0.432Z" style="fill:var(--icon-outline-color);"/><path d="M22.249,31.42c-6.818,-0.033 -10.509,4.603 -13.111,8.809c-1.446,2.338 -4.083,2.602 -6.044,1.503c-1.983,-1.112 -3.177,-3.481 -1.765,-6.056c2.503,-4.566 9.442,-13.781 21.263,-13.189c2.927,0.147 4.303,2.422 4.146,4.718c-0.148,2.162 -1.73,4.229 -4.49,4.215Zm0.016,-3.246c1.539,0.007 1.703,-2.369 0.166,-2.446c-10.195,-0.511 -16.096,7.569 -18.255,11.507c-0.779,1.421 1.395,2.59 2.202,1.285c3.123,-5.048 7.703,-10.386 15.887,-10.347Z" style="fill:var(--icon-outline-color);"/><path d="M19.146,46.33c-1.556,1.125 -2.728,3.688 -3.292,4.67c-1.294,2.257 -3.825,2.686 -5.88,1.652c-1.974,-0.994 -3.169,-3.224 -2.294,-5.565c0.968,-2.591 4.511,-7.015 6.008,-8.107c0.988,-0.721 1.993,-0.949 2.904,-0.916c1.516,0.054 2.869,0.886 3.664,2.113c1.222,1.885 1.155,4.515 -1.111,6.153Zm-1.901,-2.63c1.345,-0.972 -0.146,-3.19 -1.643,-2.098c-1.221,0.891 -4.092,4.509 -4.881,6.621c-0.491,1.313 1.62,2.38 2.318,1.163c0.697,-1.216 2.28,-4.295 4.206,-5.687Z" style="fill:var(--icon-outline-color);"/></svg>