<?xml version="1.0" encoding="UTF-8" standalone="no"?><!DOCTYPE svg PUBLIC "-//W3C//DTD SVG 1.1//EN" "http://www.w3.org/Graphics/SVG/1.1/DTD/svg11.dtd"><svg width="100%" height="100%" viewBox="0 0 65 40" version="1.1" xmlns="http://www.w3.org/2000/svg" xmlns:xlink="http://www.w3.org/1999/xlink" xml:space="preserve" xmlns:serif="http://www.serif.com/" style="fill-rule:evenodd;clip-rule:evenodd;stroke-linecap:round;stroke-linejoin:round;stroke-miterlimit:1.5;"><path id="Background" d="M2.99,31.643l0.347,-24.204c0.311,-1.944 3.215,-4.341 5.178,-4.485l47.017,0c2.543,0.253 5.072,2.778 5.549,5.289l0,22.589c-0.442,2.217 -3.294,5.074 -5.549,5.241l-46.906,0c-2.088,-0.11 -5.265,-2.372 -5.636,-4.43Z" style="fill:var(--icon-inside-color);"/><path id="LowLight" d="M3.852,30.462c2.247,1.251 4.894,2.727 7.459,2.925c8.112,0.626 33.822,0.626 41.933,0c2.562,-0.197 5.593,-2.501 7.838,-3.752" style="fill:none;stroke:var(--icon-shadow-color);stroke-width:5.51px;"/><path id="Button14" d="M13.823,26.742l0,1.934c0,0.853 -0.692,1.545 -1.545,1.545l-1.934,0c-0.853,0 -1.546,-0.692 -1.546,-1.545l0,-1.934c0,-0.852 0.693,-1.545 1.546,-1.545l1.934,0c0.853,0 1.545,0.693 1.545,1.545Z" style="fill:var(--icon-outline-color);"/><path id="Button13" d="M54.936,26.687l0,1.934c0,0.853 -0.692,1.545 -1.545,1.545l-1.934,0c-0.853,0 -1.546,-0.692 -1.546,-1.545l0,-1.934c0,-0.852 0.693,-1.545 1.546,-1.545l1.934,0c0.853,0 1.545,0.693 1.545,1.545Z" style="fill:var(--icon-outline-color);"/><path id="Button12" d="M55.157,18.078l0,1.934c0,0.853 -0.692,1.545 -1.545,1.545l-1.934,0c-0.853,0 -1.546,-0.692 -1.546,-1.545l0,-1.934c0,-0.852 0.693,-1.545 1.546,-1.545l1.934,0c0.853,0 1.545,0.693 1.545,1.545Z" style="fill:var(--icon-outline-color);"/><path id="Button11" d="M55.046,10.022l0,1.934c0,0.853 -0.692,1.545 -1.545,1.545l-1.934,0c-0.853,0 -1.546,-0.692 -1.546,-1.545l0,-1.934c0,-0.852 0.693,-1.545 1.546,-1.545l1.934,0c0.853,0 1.545,0.693 1.545,1.545Z" style="fill:var(--icon-outline-color);"/><path id="Button10" d="M46.989,18.133l0,1.934c0,0.853 -0.692,1.545 -1.545,1.545l-1.934,0c-0.853,0 -1.546,-0.692 -1.546,-1.545l0,-1.934c0,-0.852 0.693,-1.545 1.546,-1.545l1.934,0c0.853,0 1.545,0.693 1.545,1.545Z" style="fill:var(--icon-outline-color);"/><path id="Button9" d="M46.879,10.077l0,1.934c0,0.853 -0.692,1.545 -1.545,1.545l-1.934,0c-0.853,0 -1.546,-0.692 -1.546,-1.545l0,-1.934c0,-0.852 0.693,-1.545 1.546,-1.545l1.934,0c0.853,0 1.545,0.693 1.545,1.545Z" style="fill:var(--icon-outline-color);"/><path id="Button8" d="M38.49,17.968l0,1.934c0,0.853 -0.692,1.545 -1.545,1.545l-1.934,0c-0.853,0 -1.546,-0.692 -1.546,-1.545l0,-1.934c0,-0.852 0.693,-1.545 1.546,-1.545l1.934,0c0.853,0 1.545,0.693 1.545,1.545Z" style="fill:var(--icon-outline-color);"/><path id="Button7" d="M38.38,9.911l0,1.934c0,0.853 -0.692,1.545 -1.545,1.545l-1.934,0c-0.853,0 -1.546,-0.692 -1.546,-1.545l0,-1.934c0,-0.852 0.693,-1.545 1.546,-1.545l1.934,0c0.853,0 1.545,0.693 1.545,1.545Z" style="fill:var(--icon-outline-color);"/><path id="Button6" d="M30.323,17.913l0,1.934c0,0.853 -0.692,1.545 -1.545,1.545l-1.934,0c-0.853,0 -1.546,-0.692 -1.546,-1.545l0,-1.934c0,-0.852 0.693,-1.545 1.546,-1.545l1.934,0c0.853,0 1.545,0.693 1.545,1.545Z" style="fill:var(--icon-outline-color);"/><path id="Button5" d="M30.213,9.856l0,1.934c0,0.853 -0.692,1.545 -1.545,1.545l-1.934,0c-0.853,0 -1.546,-0.692 -1.546,-1.545l0,-1.934c0,-0.852 0.693,-1.545 1.546,-1.545l1.934,0c0.853,0 1.545,0.693 1.545,1.545Z" style="fill:var(--icon-outline-color);"/><path id="Button4" d="M22.045,18.023l0,1.934c0,0.853 -0.692,1.545 -1.545,1.545l-1.934,0c-0.853,0 -1.546,-0.692 -1.546,-1.545l0,-1.934c0,-0.852 0.693,-1.545 1.546,-1.545l1.934,0c0.853,0 1.545,0.693 1.545,1.545Z" style="fill:var(--icon-outline-color);"/><path id="Button3" d="M21.935,9.966l0,1.934c0,0.853 -0.692,1.545 -1.545,1.545l-1.934,0c-0.853,0 -1.546,-0.692 -1.546,-1.545l0,-1.934c0,-0.852 0.693,-1.545 1.546,-1.545l1.934,0c0.853,0 1.545,0.693 1.545,1.545Z" style="fill:var(--icon-outline-color);"/><path id="Button2" d="M13.933,18.078l0,1.934c0,0.853 -0.692,1.545 -1.545,1.545l-1.934,0c-0.853,0 -1.546,-0.692 -1.546,-1.545l0,-1.934c0,-0.852 0.693,-1.545 1.546,-1.545l1.934,0c0.853,0 1.545,0.693 1.545,1.545Z" style="fill:var(--icon-outline-color);"/><path id="Button1" d="M13.823,10.022l0,1.934c0,0.853 -0.692,1.545 -1.545,1.545l-1.934,0c-0.853,0 -1.546,-0.692 -1.546,-1.545l0,-1.934c0,-0.852 0.693,-1.545 1.546,-1.545l1.934,0c0.853,0 1.545,0.693 1.545,1.545Z" style="fill:var(--icon-outline-color);"/><path id="ButtonSpace" d="M46.353,26.904l0,1.934c0,0.853 -0.691,1.545 -1.547,1.545l-25.849,0c-0.851,0 -1.547,-0.692 -1.547,-1.545l0,-1.934c0,-0.852 0.696,-1.545 1.547,-1.545l25.849,0c0.856,0 1.547,0.693 1.547,1.545Z" style="fill:var(--icon-outline-color);"/><path id="Border" d="M2.99,31.643l0.347,-24.204c0.311,-1.944 3.215,-4.341 5.178,-4.485l47.017,0c2.543,0.253 5.072,2.778 5.549,5.289l0,22.589c-0.442,2.217 -3.294,5.074 -5.549,5.241l-46.906,0c-2.088,-0.11 -5.265,-2.372 -5.636,-4.43Z" style="fill:none;stroke:var(--icon-outline-color);stroke-width:5.51px;"/></svg>