<?xml version="1.0" encoding="UTF-8" standalone="no"?><!DOCTYPE svg PUBLIC "-//W3C//DTD SVG 1.1//EN" "http://www.w3.org/Graphics/SVG/1.1/DTD/svg11.dtd"><svg width="100%" height="100%" viewBox="0 0 12 57" version="1.1" xmlns="http://www.w3.org/2000/svg" xmlns:xlink="http://www.w3.org/1999/xlink" xml:space="preserve" xmlns:serif="http://www.serif.com/" style="fill-rule:evenodd;clip-rule:evenodd;stroke-linecap:round;stroke-linejoin:round;stroke-miterlimit:1.5;"><path id="Background" d="M1.903,50.943c-0.082,1.635 1.656,3.762 2.817,4.024c1.161,0.262 4.212,-0.845 4.149,-2.45c-0.344,-8.819 -0.679,-35.875 1.165,-47.748c0.239,-1.537 -2.042,-3.163 -3.3,-3.3c-1.258,-0.136 -4.43,0.852 -4.247,2.482c1.524,13.551 -0.115,37.648 -0.584,46.992Z" style="fill:var(--icon-inside-color);"/><path id="BottomLowLight" d="M2.81,53.075c1.35,0.029 3.436,-0.684 4.256,-1.757c1.022,-1.338 0.282,-3.567 0.976,-6.273" style="fill:none;stroke:var(--icon-shadow-color);stroke-width:2.91px;"/><path id="TopHighLight" d="M7.942,2.891c-1.337,0.19 -3.279,1.232 -3.914,2.424c-0.791,1.486 -0.589,3.712 -0.836,6.495" style="fill:none;stroke:var(--icon-highlight-color);stroke-width:2.91px;"/><path id="Border" d="M1.903,50.943c-0.082,1.635 1.656,3.762 2.817,4.024c1.161,0.262 4.212,-0.845 4.149,-2.45c-0.344,-8.819 -0.679,-35.875 1.165,-47.748c0.239,-1.537 -2.042,-3.163 -3.3,-3.3c-1.258,-0.136 -4.43,0.852 -4.247,2.482c1.524,13.551 -0.115,37.648 -0.584,46.992Z" style="fill:none;stroke:var(--icon-outline-color);stroke-width:2.5px;stroke-linecap:butt;stroke-miterlimit:2;"/></svg>