<?xml version="1.0" encoding="UTF-8" standalone="no"?><!DOCTYPE svg PUBLIC "-//W3C//DTD SVG 1.1//EN" "http://www.w3.org/Graphics/SVG/1.1/DTD/svg11.dtd"><svg width="100%" height="100%" viewBox="0 0 50 50" version="1.1" xmlns="http://www.w3.org/2000/svg" xmlns:xlink="http://www.w3.org/1999/xlink" xml:space="preserve" xmlns:serif="http://www.serif.com/" style="fill-rule:evenodd;clip-rule:evenodd;stroke-linejoin:round;stroke-miterlimit:2;"><path id="IBackground" d="M1.655,19.017c0.08,-1.139 1.034,-2.328 2.116,-2.693c1.33,-0.449 4.52,-0.449 5.866,0c1.102,0.367 2.126,1.534 2.212,2.693c0.369,4.985 0.369,22.246 0,27.215c-0.084,1.134 -1.129,2.249 -2.212,2.597c-1.346,0.433 -4.536,0.433 -5.866,0c-1.062,-0.345 -2.037,-1.483 -2.116,-2.597c-0.353,-4.969 -0.353,-22.23 0,-27.215Z" style="fill:var(--icon-inside-color);"/><path id="UBackground" d="M16.793,18.729c0.079,-1.086 1.328,-2.068 2.364,-2.404c1.234,-0.401 3.943,-0.401 5.193,0c1.058,0.339 1.923,1.747 2.308,2.404c0.259,0.443 0,1.539 0,1.539c0,0 3.117,-4.298 11.925,-3.943c6.973,0.281 8.285,5.794 9.713,10.29c1.619,5.097 0.273,16.589 0,20.291c-0.062,0.839 -0.816,1.728 -1.635,1.923c-1.346,0.321 -5.706,0.473 -7.052,0.152c-0.819,-0.195 -1.561,-1.085 -1.635,-1.923l0,-16.693c0.007,-3.027 -3.078,-5.685 -5.065,-5.685c-1.988,0 -5.184,2.973 -5.946,5.685l-0.152,16.541c-0.124,0.994 -1.338,1.675 -2.308,1.923c-1.25,0.321 -4.415,0.321 -5.649,0c-0.946,-0.246 -2.14,-0.949 -2.212,-1.923c-0.369,-5.017 -0.216,-23.08 0.152,-28.177Z" style="fill:var(--icon-inside-color);"/><path id="DotBackground" d="M6.752,0.361c4.411,0.061 6.732,2.386 6.732,6.155c0,3.769 -2.963,7.212 -6.732,7.212c-3.769,0 -6.443,-3.444 -6.443,-7.212c0,-3.769 2.675,-6.207 6.443,-6.155Z" style="fill:var(--icon-inside-color);"/></svg>