<?xml version="1.0" encoding="UTF-8" standalone="no"?><!DOCTYPE svg PUBLIC "-//W3C//DTD SVG 1.1//EN" "http://www.w3.org/Graphics/SVG/1.1/DTD/svg11.dtd"><svg width="100%" height="100%" viewBox="0 0 74 44" version="1.1" xmlns="http://www.w3.org/2000/svg" xmlns:xlink="http://www.w3.org/1999/xlink" xml:space="preserve" xmlns:serif="http://www.serif.com/" style="fill-rule:evenodd;clip-rule:evenodd;stroke-linejoin:round;stroke-miterlimit:2;"><path d="M14.081,27.445c8.025,-23.999 40.294,-20.599 45.907,0.628c0.824,3.117 6.019,1.507 5.052,-1.569c-8.982,-28.594 -47.28,-28.093 -56.573,-0.188c-1.083,3.251 4.527,4.38 5.614,1.13Z" style="fill:var(--icon-inside-color);"/><path d="M40.44,16.894c3.654,1.078 9.619,7.897 6.94,14.374c-3.039,7.346 -10.121,8.578 -13.772,7.245c-4.671,-1.706 -9.685,-7.962 -7.29,-15.063c2.244,-6.653 9.81,-7.827 14.122,-6.556Z" style="fill:var(--icon-inside-color);"/><g id="HighLights"><clipPath id="_clip1"><path d="M24.878,27.549c-0.116,-7.915 5.863,-11.789 11.733,-11.805c4.819,-0.013 11.761,4.574 11.918,11.805c0.11,5.088 -4.24,11.915 -11.918,11.953c-6.285,0.031 -11.617,-4.046 -11.733,-11.953Z"/></clipPath><g clip-path="url(#_clip1)"><path id="TopHighLight" d="M48.338,22.252c-0.042,0.095 -0.281,0.64 -0.941,0.895c-0.203,0.078 -0.424,0.12 -0.641,0.115c-0.435,-0.009 -0.764,-0.191 -0.824,-0.224c-1.236,-0.682 -2.203,-1.385 -3.937,-2.509c-0.867,-0.562 -1.397,-0.847 -1.929,-1.106c-0.044,-0.022 -0.168,-0.082 -0.571,-0.234c-0.028,-0.01 -0.436,-0.151 -0.78,-0.225c-1.339,-0.289 -2.105,-0.153 -3.036,0.056c-0.2,0.045 -0.199,0.047 -0.4,0.089c-1.008,0.208 -2.114,0.48 -3.624,1.1c-0.371,0.152 -0.598,0.278 -0.648,0.306c-1.144,0.634 -2.283,1.463 -3.878,2.263c-0.241,0.121 -0.613,0.106 -0.667,0.104c-0.102,-0.004 -0.691,-0.028 -1.162,-0.534c-0.486,-0.522 -0.46,-1.126 -0.456,-1.231c0.029,-0.688 0.46,-1.092 0.534,-1.162c0.394,-0.37 0.432,-0.318 0.955,-0.453c1.747,-0.45 3.509,-1.215 3.686,-1.302c0.896,-0.439 2.393,-1.443 4.068,-2.016c0.109,-0.037 0.703,-0.24 1.402,-0.303c0.667,-0.06 2.076,-0.141 4.081,0.663c0.842,0.338 0.836,0.352 1.67,0.709c1.245,0.532 3.392,1.587 4.12,1.91c1.476,0.655 1.845,0.732 2.114,0.852c0.639,0.285 0.856,0.844 0.893,0.941c0.254,0.656 0.014,1.202 -0.028,1.298Z" style="fill:var(--icon-highlight-color);"/><path id="BottomLowLight" d="M25.026,33.09c0.042,-0.095 0.281,-0.64 0.941,-0.895c0.203,-0.078 0.424,-0.12 0.641,-0.115c0.435,0.009 0.764,0.191 0.824,0.224c1.236,0.682 2.203,1.385 3.937,2.509c0.867,0.562 1.397,0.847 1.929,1.106c0.044,0.022 0.168,0.082 0.571,0.234c0.028,0.01 0.436,0.151 0.78,0.225c1.339,0.289 2.105,0.153 3.036,-0.056c0.2,-0.045 0.199,-0.047 0.4,-0.089c1.008,-0.208 2.114,-0.48 3.624,-1.1c0.371,-0.152 0.598,-0.278 0.648,-0.306c1.144,-0.634 2.283,-1.463 3.878,-2.263c0.241,-0.121 0.613,-0.106 0.667,-0.104c0.691,0.028 1.093,0.459 1.162,0.534c0.486,0.522 0.46,1.126 0.456,1.231c-0.029,0.688 -0.46,1.092 -0.534,1.162c-0.394,0.37 -0.432,0.318 -0.955,0.453c-1.747,0.45 -3.509,1.215 -3.686,1.302c-0.896,0.439 -2.393,1.443 -4.068,2.016c-0.109,0.037 -0.703,0.24 -1.402,0.303c-0.667,0.06 -2.076,0.141 -4.081,-0.663c-0.842,-0.338 -0.836,-0.352 -1.67,-0.709c-1.245,-0.532 -3.392,-1.587 -4.12,-1.91c-1.476,-0.655 -1.845,-0.732 -2.114,-0.852c-0.639,-0.285 -0.856,-0.844 -0.893,-0.941c-0.254,-0.656 -0.014,-1.202 0.028,-1.298Z" style="fill:var(--icon-shadow-color);"/></g></g><path id="TopHighLight1" serif:id="TopHighLight" d="M58.579,11.26c-0.077,0.095 -0.519,0.64 -1.733,0.895c-0.373,0.078 -0.782,0.12 -1.182,0.115c-0.801,-0.009 -1.409,-0.191 -1.519,-0.224c-2.277,-0.682 -4.06,-1.385 -7.255,-2.509c-1.597,-0.562 -2.574,-0.847 -3.554,-1.106c-0.082,-0.022 -0.309,-0.082 -1.053,-0.234c-0.051,-0.01 -0.803,-0.151 -1.437,-0.225c-2.467,-0.289 -3.879,-0.153 -5.595,0.056c-0.369,0.045 -0.366,0.047 -0.737,0.089c-1.858,0.208 -3.896,0.48 -6.678,1.1c-0.683,0.152 -1.102,0.278 -1.195,0.306c-2.108,0.634 -4.208,1.463 -7.147,2.263c-0.445,0.121 -1.129,0.106 -1.229,0.104c-0.188,-0.004 -1.274,-0.028 -2.142,-0.534c-0.895,-0.522 -0.848,-1.126 -0.84,-1.231c0.053,-0.688 0.847,-1.092 0.984,-1.162c0.725,-0.37 0.796,-0.318 1.76,-0.453c3.22,-0.45 6.466,-1.215 6.793,-1.302c1.651,-0.439 4.41,-1.443 7.496,-2.016c0.2,-0.037 1.295,-0.24 2.583,-0.303c1.229,-0.06 3.825,-0.141 7.52,0.663c1.552,0.338 1.54,0.352 3.077,0.709c2.293,0.532 6.25,1.587 7.593,1.91c2.72,0.655 3.401,0.732 3.896,0.852c1.178,0.285 1.577,0.844 1.646,0.941c0.468,0.656 0.025,1.202 -0.052,1.298Z" style="fill:var(--icon-highlight-color);"/><path id="BottomLowLight1" serif:id="BottomLowLight" d="M6.593,23.154c0.036,-0.053 0.243,-0.357 0.578,-0.427c0.103,-0.021 0.207,-0.018 0.301,0.014c0.187,0.064 0.297,0.22 0.316,0.248c0.409,0.585 0.698,1.148 1.24,2.071c0.271,0.462 0.448,0.709 0.631,0.939c0.015,0.019 0.058,0.073 0.205,0.22c0.01,0.01 0.161,0.151 0.297,0.243c0.528,0.357 0.887,0.374 1.332,0.369c0.096,-0.001 0.095,-0.003 0.191,-0.002c0.478,0.006 1.011,-0.015 1.785,-0.196c0.19,-0.044 0.313,-0.092 0.34,-0.102c0.617,-0.239 1.27,-0.598 2.115,-0.88c0.128,-0.043 0.287,0.016 0.31,0.024c0.296,0.109 0.389,0.429 0.405,0.484c0.113,0.387 -0.012,0.756 -0.034,0.82c-0.142,0.42 -0.406,0.613 -0.452,0.646c-0.241,0.176 -0.248,0.139 -0.501,0.152c-0.845,0.045 -2.021,1.608 -2.114,1.638c-0.473,0.151 -1.314,0.572 -2.151,0.702c-0.054,0.008 -0.351,0.055 -0.667,0.001c-0.302,-0.052 -0.93,-0.189 -1.651,-0.952c-0.303,-0.321 -0.297,-0.328 -0.593,-0.659c-0.441,-0.494 -1.157,-1.495 -1.413,-1.791c-0.519,-0.6 -0.685,-0.633 -0.779,-0.743c-0.224,-0.261 0.051,-1.96 0.053,-2.025c0.013,-0.439 0.221,-0.743 0.257,-0.797Z" style="fill:var(--icon-shadow-color);"/><path id="BottomLowLight2" serif:id="BottomLowLight" d="M56.846,26.658c0.002,-0.064 0.015,-0.432 0.261,-0.67c0.076,-0.073 0.166,-0.126 0.262,-0.149c0.192,-0.046 0.368,0.027 0.4,0.041c0.658,0.276 1.203,0.598 2.154,1.09c0.476,0.246 0.757,0.36 1.035,0.457c0.023,0.008 0.088,0.031 0.291,0.077c0.014,0.003 0.217,0.042 0.381,0.047c0.637,0.02 0.95,-0.157 1.323,-0.399c0.08,-0.052 0.079,-0.053 0.161,-0.103c0.407,-0.25 0.847,-0.552 1.404,-1.119c0.137,-0.139 0.215,-0.245 0.233,-0.268c0.395,-0.532 0.754,-1.184 1.319,-1.873c0.085,-0.104 0.251,-0.14 0.275,-0.145c0.308,-0.066 0.558,0.155 0.601,0.193c0.302,0.267 0.393,0.646 0.409,0.712c0.104,0.431 -0.016,0.735 -0.037,0.787c-0.11,0.277 -0.136,0.25 -0.342,0.396c-0.691,0.489 -0.851,2.439 -0.914,2.514c-0.319,0.38 -0.806,1.185 -1.444,1.742c-0.041,0.036 -0.268,0.234 -0.564,0.357c-0.283,0.117 -0.887,0.337 -1.904,0.076c-0.427,-0.109 -0.427,-0.119 -0.854,-0.241c-0.637,-0.182 -1.776,-0.646 -2.151,-0.76c-0.759,-0.231 -0.917,-0.17 -1.055,-0.212c-0.329,-0.101 -1.003,-1.685 -1.036,-1.741c-0.223,-0.378 -0.21,-0.747 -0.208,-0.811Z" style="fill:var(--icon-shadow-color);"/><path d="M17.907,28.725c-1.255,3.753 -5.003,5.201 -8.243,4.549c-2.119,-0.426 -3.884,-1.743 -4.749,-3.489c-0.648,-1.309 -0.889,-2.904 -0.276,-4.744c10.555,-31.692 54.05,-32.22 64.251,0.254c1.246,3.966 -1.205,7.145 -4.508,8.17c-3.382,1.05 -7.206,-0.243 -8.294,-4.36c-4.669,-17.653 -31.506,-20.338 -38.18,-0.38Zm-3.827,-1.28c8.025,-23.999 40.294,-20.599 45.907,0.628c0.824,3.117 6.019,1.507 5.052,-1.569c-8.982,-28.594 -47.28,-28.093 -56.573,-0.188c-1.083,3.251 4.527,4.38 5.614,1.13Z" style="fill:var(--icon-outline-color);"/><path d="M41.581,13.024c2.507,0.739 5.936,3.299 8.15,6.934c2.248,3.691 3.244,8.34 1.378,12.852c-4.128,9.977 -13.926,11.304 -18.885,9.492c-6.244,-2.28 -12.93,-10.65 -9.729,-20.142c3.05,-9.042 13.226,-10.864 19.086,-9.136Zm-1.141,3.87c-4.312,-1.272 -11.878,-0.097 -14.122,6.556c-2.395,7.101 2.619,13.357 7.29,15.063c3.651,1.333 10.733,0.101 13.772,-7.245c2.679,-6.476 -3.287,-13.296 -6.94,-14.374Z" style="fill:var(--icon-outline-color);"/></svg>