<?xml version="1.0" encoding="UTF-8" standalone="no"?><!DOCTYPE svg PUBLIC "-//W3C//DTD SVG 1.1//EN" "http://www.w3.org/Graphics/SVG/1.1/DTD/svg11.dtd"><svg width="100%" height="100%" viewBox="0 0 152 66" version="1.1" xmlns="http://www.w3.org/2000/svg" xmlns:xlink="http://www.w3.org/1999/xlink" xml:space="preserve" xmlns:serif="http://www.serif.com/" style="fill-rule:evenodd;clip-rule:evenodd;stroke-linejoin:round;stroke-miterlimit:2;"><path id="BackSign" d="M21.261,5.1c-26.031,4.311 -21.128,52.945 0.957,55.017c21.727,2.038 86.406,1.144 106.189,0c24.389,-1.411 26.743,-55.203 0,-55.017c-19.957,0.139 -87.582,-3.24 -107.146,0Z" style="fill:var(--icon-inside-color);"/><path id="TopHighLight" d="M145.515,19.416c-0.52,0.545 -0.557,0.559 -1.31,0.579c-0.98,0.025 -0.951,-0.162 -1.674,-0.823c-0.024,-0.022 0.006,-0.069 -0.963,-0.627c-0.143,-0.082 -0.15,-0.067 -1.807,-0.993c-1.213,-0.678 -4.841,-2.408 -6.995,-3.215c-16.677,-6.245 -41.821,-2.385 -62.267,-2.877c-19.195,-0.462 -46.171,-3.88 -57.809,5.922c-0.173,0.146 -0.664,0.485 -1.349,1.106c-0.467,0.424 -0.669,0.515 -1.529,1.378c-0.13,0.131 -0.637,0.564 -1.408,1.487c-0.944,1.132 -1.139,0.923 -2.609,0.838c-0.004,0 -0.773,-1.04 -0.775,-1.049c-0.273,-0.925 -0.187,-0.953 0.151,-1.855c0.708,-1.896 1.482,-3.058 2.128,-3.953c0.345,-0.479 1.357,-1.609 2.108,-2.231c14.506,-11.994 44.956,-6.875 66.13,-6.983c19.966,-0.103 45.493,-3.432 62.127,4.436c1.847,0.873 3.453,2.104 3.732,2.318c1.488,1.14 2.01,1.691 2.771,2.541c0.551,0.614 0.516,0.646 0.893,0.991c0.145,0.133 0.39,0.363 0.39,0.364c0.535,1.205 0.574,1.194 0.577,1.308c0.003,0.114 0.02,0.781 -0.513,1.339Z" style="fill:var(--icon-highlight-color);"/><path id="BottomDarkLight" d="M5.517,45.273c0.52,-0.545 0.557,-0.559 1.31,-0.579c0.98,-0.025 0.951,0.162 1.674,0.823c0.024,0.022 -0.006,0.069 0.963,0.627c0.143,0.082 0.15,0.067 1.807,0.993c1.213,0.678 4.841,2.408 6.995,3.215c16.677,6.245 41.821,2.385 62.267,2.877c19.195,0.462 46.171,3.88 57.809,-5.922c0.173,-0.146 0.664,-0.485 1.349,-1.106c0.467,-0.424 0.669,-0.515 1.529,-1.378c0.13,-0.131 0.637,-0.564 1.408,-1.487c0.944,-1.132 1.139,-0.923 2.609,-0.838c0.004,0 0.773,1.04 0.775,1.049c0.273,0.925 0.187,0.953 -0.151,1.855c-0.708,1.896 -1.482,3.058 -2.128,3.953c-0.345,0.479 -1.357,1.609 -2.108,2.231c-14.506,11.994 -44.956,6.875 -66.13,6.983c-19.966,0.103 -45.493,3.432 -62.127,-4.436c-1.847,-0.873 -3.453,-2.104 -3.732,-2.318c-1.488,-1.14 -2.01,-1.691 -2.771,-2.541c-0.551,-0.614 -0.516,-0.646 -0.893,-0.991c-0.145,-0.133 -0.39,-0.363 -0.39,-0.364c-0.535,-1.205 -0.574,-1.194 -0.577,-1.308c-0.003,-0.114 -0.02,-0.781 0.513,-1.339Z" style="fill:var(--icon-shadow-color);"/><path id="Borders" d="M21.261,5.1c-26.031,4.311 -21.128,52.945 0.957,55.017c21.727,2.038 86.406,1.144 106.189,0c24.389,-1.411 26.743,-55.203 0,-55.017c-19.957,0.139 -87.582,-3.24 -107.146,0Z" style="fill:none;stroke:var(--icon-outline-color);stroke-width:7.07px;"/></svg>