<?xml version="1.0" encoding="UTF-8" standalone="no"?><!DOCTYPE svg PUBLIC "-//W3C//DTD SVG 1.1//EN" "http://www.w3.org/Graphics/SVG/1.1/DTD/svg11.dtd"><svg width="100%" height="100%" viewBox="0 0 58 58" version="1.1" xmlns="http://www.w3.org/2000/svg" xmlns:xlink="http://www.w3.org/1999/xlink" xml:space="preserve" xmlns:serif="http://www.serif.com/" style="fill-rule:evenodd;clip-rule:evenodd;stroke-linecap:round;stroke-linejoin:round;stroke-miterlimit:1.5;"><g id="ArrowLeft"><path id="Background" d="M3.053,26.517c-0.863,1.03 -1.089,3.386 0.128,4.804c1.359,1.583 4.683,5.225 6.074,6.548c3.413,3.248 2.025,-4.824 2.787,-4.816c5.779,0.056 8.764,1.279 9.013,-0.102c0.294,-1.627 0.455,-5.257 -0.079,-7.454c-0.341,-1.402 -3.271,-0.363 -8.896,-0.512c-0.901,-0.024 0.929,-7.841 -2.951,-5.281c-1.652,1.09 -4.589,5.04 -6.075,6.813Z" style="fill:var(--icon-inside-color);"/><path id="TopHighLight" d="M11.635,21.167c0.089,-0.012 0.27,3.757 -0.435,3.733c-0.151,-0.005 -0.152,-0.002 -0.302,-0.012c-0.754,-0.048 -1.604,-0.048 -2.891,0.236c-0.316,0.07 -0.527,0.15 -0.573,0.168c-1.06,0.406 -2.217,1.038 -3.652,1.507c-0.217,0.071 -0.448,-0.052 -0.482,-0.07c-0.063,-0.034 -0.429,-0.229 -0.472,-0.949c-0.044,-0.742 0.283,-1.433 0.34,-1.553c0.372,-0.786 0.856,-1.131 0.94,-1.19c0.443,-0.315 0.441,-0.244 0.846,-0.251c1.353,-0.021 4.008,-3.043 4.167,-3.092c0.8,-0.251 1.146,1.656 2.515,1.473Z" style="fill:var(--icon-highlight-color);"/><path id="TopHighLight1" serif:id="TopHighLight" d="M11.844,36.923c0.474,-0.031 -0.125,-3.947 -0.825,-4.064c-0.15,-0.025 -0.15,-0.028 -0.3,-0.049c-0.753,-0.104 -1.591,-0.275 -2.812,-0.826c-0.3,-0.135 -0.493,-0.26 -0.536,-0.288c-0.975,-0.629 -2.006,-1.509 -3.34,-2.278c-0.202,-0.116 -0.451,-0.037 -0.488,-0.026c-0.069,0.022 -0.464,0.148 -0.632,0.874c-0.173,0.75 0.028,1.521 0.063,1.655c0.229,0.879 0.647,1.328 0.719,1.406c0.382,0.411 0.392,0.339 0.791,0.427c1.331,0.295 2.768,0.992 2.916,1.075c0.746,0.418 2.075,1.466 3.394,1.93c0.086,0.03 0.553,0.195 1.051,0.163Z" style="fill:var(--icon-shadow-color);"/><path id="Border" d="M3.053,26.517c-0.863,1.03 -1.089,3.386 0.128,4.804c1.359,1.583 4.683,5.225 6.074,6.548c3.413,3.248 2.025,-4.824 2.787,-4.816c5.779,0.056 8.764,1.279 9.013,-0.102c0.294,-1.627 0.455,-5.257 -0.079,-7.454c-0.341,-1.402 -3.271,-0.363 -8.896,-0.512c-0.901,-0.024 0.929,-7.841 -2.951,-5.281c-1.652,1.09 -4.589,5.04 -6.075,6.813Z" style="fill:none;stroke:var(--icon-outline-color);stroke-width:3.28px;"/></g><g id="ArrowRight"><path id="Background1" serif:id="Background" d="M54.172,31.004c0.863,-1.03 1.089,-3.386 -0.128,-4.804c-1.359,-1.583 -4.683,-5.225 -6.074,-6.548c-3.413,-3.248 -2.025,4.824 -2.787,4.816c-5.779,-0.056 -8.764,-1.279 -9.013,0.102c-0.294,1.627 -0.455,5.257 0.079,7.454c0.341,1.402 3.271,0.363 8.896,0.512c0.901,0.024 -0.929,7.841 2.951,5.281c1.652,-1.09 4.589,-5.04 6.075,-6.813Z" style="fill:var(--icon-inside-color);"/><path id="TopHighLight2" serif:id="TopHighLight" d="M45.944,21.696c-0.084,-0.012 -0.255,3.757 0.412,3.733c0.143,-0.005 0.144,-0.002 0.286,-0.012c0.713,-0.048 1.517,-0.048 2.734,0.236c0.299,0.07 0.498,0.15 0.542,0.168c1.003,0.406 2.097,1.038 3.454,1.507c0.205,0.071 0.424,-0.052 0.455,-0.07c0.06,-0.034 0.406,-0.229 0.446,-0.949c0.041,-0.742 -0.268,-1.433 -0.321,-1.553c-0.352,-0.786 -0.81,-1.131 -0.889,-1.19c-0.419,-0.315 -0.417,-0.244 -0.8,-0.251c-1.279,-0.021 -3.791,-3.043 -3.94,-3.092c-0.757,-0.251 -1.084,1.656 -2.379,1.473Z" style="fill:var(--icon-highlight-color);"/><path id="TopHighLight3" serif:id="TopHighLight" d="M45.747,37.451c-0.449,-0.031 0.118,-3.947 0.78,-4.064c0.142,-0.025 0.142,-0.028 0.284,-0.049c0.712,-0.104 1.505,-0.275 2.659,-0.826c0.284,-0.135 0.467,-0.26 0.507,-0.288c0.922,-0.629 1.897,-1.509 3.158,-2.278c0.191,-0.116 0.427,-0.037 0.461,-0.026c0.065,0.022 0.439,0.148 0.598,0.874c0.164,0.75 -0.026,1.521 -0.06,1.655c-0.217,0.879 -0.611,1.328 -0.68,1.406c-0.361,0.411 -0.371,0.339 -0.748,0.427c-1.259,0.295 -2.618,0.992 -2.757,1.075c-0.705,0.418 -1.962,1.466 -3.21,1.93c-0.081,0.03 -0.523,0.195 -0.993,0.163Z" style="fill:var(--icon-shadow-color);"/><path id="Border1" serif:id="Border" d="M54.172,31.004c0.863,-1.03 1.089,-3.386 -0.128,-4.804c-1.359,-1.583 -4.683,-5.225 -6.074,-6.548c-3.413,-3.248 -2.025,4.824 -2.787,4.816c-5.779,-0.056 -8.764,-1.279 -9.013,0.102c-0.294,1.627 -0.455,5.257 0.079,7.454c0.341,1.402 3.271,0.363 8.896,0.512c0.901,0.024 -0.929,7.841 2.951,5.281c1.652,-1.09 4.589,-5.04 6.075,-6.813Z" style="fill:none;stroke:var(--icon-outline-color);stroke-width:3.28px;"/></g><g id="ArrowUp"><path id="Background2" serif:id="Background" d="M30.935,3.122c-1.03,-0.863 -3.386,-1.089 -4.804,0.128c-1.583,1.359 -5.225,4.683 -6.548,6.074c-3.248,3.413 4.824,2.025 4.816,2.787c-0.056,5.779 -1.279,8.764 0.102,9.013c1.627,0.294 5.257,0.455 7.454,-0.079c1.402,-0.341 0.363,-3.271 0.512,-8.896c0.024,-0.901 7.841,0.929 5.281,-2.951c-1.09,-1.652 -5.04,-4.589 -6.813,-6.075Z" style="fill:var(--icon-inside-color);"/><path id="TopHighLight4" serif:id="TopHighLight" d="M36.687,10.126c-0.03,0.102 -0.199,0.689 -0.665,0.964c-0.143,0.084 -0.3,0.129 -0.454,0.124c-0.307,-0.01 -0.541,-0.206 -0.583,-0.242c-0.874,-0.734 -1.559,-1.492 -2.785,-2.703c-0.613,-0.605 -0.988,-0.913 -1.364,-1.191c-0.031,-0.023 -0.119,-0.088 -0.404,-0.252c-0.02,-0.011 -0.308,-0.163 -0.552,-0.243c-0.947,-0.312 -1.489,-0.164 -2.148,0.06c-0.142,0.048 -0.141,0.051 -0.283,0.096c-0.713,0.224 -1.495,0.518 -2.564,1.185c-0.262,0.164 -0.423,0.3 -0.459,0.329c-0.809,0.683 -1.615,1.575 -2.744,2.437c-0.171,0.13 -0.434,0.114 -0.472,0.112c-0.072,-0.004 -0.489,-0.03 -0.822,-0.576c-0.344,-0.563 -0.326,-1.213 -0.323,-1.326c0.02,-0.741 0.325,-1.177 0.378,-1.252c0.278,-0.398 0.306,-0.343 0.676,-0.488c1.236,-0.485 2.482,-1.309 2.608,-1.402c0.634,-0.472 1.693,-1.555 2.878,-2.172c0.077,-0.04 0.497,-0.259 0.992,-0.327c0.472,-0.065 1.468,-0.152 2.887,0.714c0.596,0.364 0.591,0.379 1.181,0.763c0.88,0.573 2.399,1.71 2.915,2.058c1.044,0.705 1.305,0.789 1.495,0.918c0.452,0.307 0.605,0.909 0.632,1.013c0.18,0.707 0.01,1.295 -0.02,1.398Z" style="fill:var(--icon-highlight-color);"/><path id="Border2" serif:id="Border" d="M30.935,3.122c-1.03,-0.863 -3.386,-1.089 -4.804,0.128c-1.583,1.359 -5.225,4.683 -6.548,6.074c-3.248,3.413 4.824,2.025 4.816,2.787c-0.056,5.779 -1.279,8.764 0.102,9.013c1.627,0.294 5.257,0.455 7.454,-0.079c1.402,-0.341 0.363,-3.271 0.512,-8.896c0.024,-0.901 7.841,0.929 5.281,-2.951c-1.09,-1.652 -5.04,-4.589 -6.813,-6.075Z" style="fill:none;stroke:var(--icon-outline-color);stroke-width:3.28px;"/></g><g id="ArrowDown"><path id="Background3" serif:id="Background" d="M26.605,54.398c1.03,0.863 3.386,1.089 4.804,-0.128c1.583,-1.359 5.225,-4.683 6.548,-6.074c3.248,-3.413 -4.824,-2.025 -4.816,-2.787c0.056,-5.779 1.279,-8.764 -0.102,-9.013c-1.627,-0.294 -5.257,-0.455 -7.454,0.079c-1.402,0.341 -0.363,3.271 -0.512,8.896c-0.024,0.901 -7.841,-0.929 -5.281,2.951c1.09,1.652 5.04,4.589 6.813,6.075Z" style="fill:var(--icon-inside-color);"/><path id="BottomLowLight" d="M20.131,46.866c0.031,-0.106 0.211,-0.713 0.705,-0.997c0.152,-0.087 0.318,-0.134 0.481,-0.128c0.326,0.01 0.573,0.213 0.618,0.25c0.926,0.759 1.652,1.542 2.952,2.794c0.65,0.626 1.047,0.944 1.446,1.232c0.033,0.024 0.126,0.091 0.428,0.26c0.021,0.011 0.327,0.168 0.585,0.251c1.004,0.322 1.578,0.17 2.276,-0.062c0.15,-0.05 0.149,-0.053 0.3,-0.099c0.756,-0.232 1.585,-0.535 2.717,-1.225c0.278,-0.169 0.448,-0.31 0.486,-0.341c0.858,-0.706 1.712,-1.629 2.908,-2.52c0.181,-0.135 0.46,-0.118 0.5,-0.116c0.518,0.031 0.819,0.512 0.871,0.595c0.364,0.582 0.345,1.254 0.342,1.371c-0.022,0.766 -0.345,1.216 -0.4,1.294c-0.295,0.412 -0.324,0.354 -0.716,0.504c-1.31,0.501 -2.631,1.353 -2.764,1.45c-0.672,0.488 -1.794,1.607 -3.05,2.245c-0.081,0.041 -0.527,0.268 -1.051,0.338c-0.5,0.067 -1.556,0.158 -3.06,-0.738c-0.632,-0.376 -0.627,-0.392 -1.252,-0.789c-0.933,-0.592 -2.543,-1.767 -3.089,-2.127c-1.107,-0.729 -1.384,-0.815 -1.585,-0.949c-0.479,-0.318 -0.641,-0.94 -0.67,-1.048c-0.19,-0.731 -0.01,-1.339 0.021,-1.445Z" style="fill:var(--icon-shadow-color);"/><path id="Border3" serif:id="Border" d="M26.605,54.398c1.03,0.863 3.386,1.089 4.804,-0.128c1.583,-1.359 5.225,-4.683 6.548,-6.074c3.248,-3.413 -4.824,-2.025 -4.816,-2.787c0.056,-5.779 1.279,-8.764 -0.102,-9.013c-1.627,-0.294 -5.257,-0.455 -7.454,0.079c-1.402,0.341 -0.363,3.271 -0.512,8.896c-0.024,0.901 -7.841,-0.929 -5.281,2.951c1.09,1.652 5.04,4.589 6.813,6.075Z" style="fill:none;stroke:var(--icon-outline-color);stroke-width:3.28px;"/></g></svg>