<?xml version="1.0" encoding="UTF-8" standalone="no"?><!DOCTYPE svg PUBLIC "-//W3C//DTD SVG 1.1//EN" "http://www.w3.org/Graphics/SVG/1.1/DTD/svg11.dtd"><svg width="100%" height="100%" viewBox="0 0 43 43" version="1.1" xmlns="http://www.w3.org/2000/svg" xmlns:xlink="http://www.w3.org/1999/xlink" xml:space="preserve" xmlns:serif="http://www.serif.com/" style="fill-rule:evenodd;clip-rule:evenodd;stroke-linecap:round;stroke-linejoin:round;stroke-miterlimit:1.5;"><path id="Background" d="M36.529,7.776c0.958,0.117 1.488,3.84 0.958,4.391c-0.531,0.551 -1.85,1.882 -2.903,1.533c-3.286,-1.091 -8.856,-2.77 -8.856,-2.77l0.28,27.013c-4.317,5.895 -21.098,2.566 -20.6,-4.345c0.586,-8.124 12.385,-4.756 13.88,-4.345c0,0 -0.405,-19.738 0,-24.304c0.116,-1.306 1.701,-3.762 4.686,-2.918c3.601,1.019 6.675,5.031 12.554,5.747Z" style="fill:var(--icon-inside-color);"/><path id="LowLight" d="M6.028,34.405c2.747,1.556 5.15,4.148 8.242,4.668c3.153,0.53 7.119,-0.99 10.678,-1.485" style="fill:none;stroke:var(--icon-shadow-color);stroke-width:3.19px;"/><path id="HighLight" d="M26.356,9.713c1.603,0.507 3.186,1.085 4.81,1.521c1.757,0.472 3.82,0.874 5.729,1.311" style="fill:none;stroke:var(--icon-shadow-color);stroke-width:3.24px;"/><path id="Border" d="M36.529,7.776c0.958,0.117 1.488,3.84 0.958,4.391c-0.531,0.551 -1.85,1.882 -2.903,1.533c-3.286,-1.091 -8.856,-2.77 -8.856,-2.77l0.28,27.013c-4.317,5.895 -21.098,2.566 -20.6,-4.345c0.586,-8.124 12.385,-4.756 13.88,-4.345c0,0 -0.405,-19.738 0,-24.304c0.116,-1.306 1.701,-3.762 4.686,-2.918c3.601,1.019 6.675,5.031 12.554,5.747Z" style="fill:none;stroke:var(--icon-outline-color);stroke-width:3.24px;"/></svg>