<?xml version="1.0" encoding="UTF-8" standalone="no"?><!DOCTYPE svg PUBLIC "-//W3C//DTD SVG 1.1//EN" "http://www.w3.org/Graphics/SVG/1.1/DTD/svg11.dtd"><svg width="100%" height="100%" viewBox="0 0 37 47" version="1.1" xmlns="http://www.w3.org/2000/svg" xmlns:xlink="http://www.w3.org/1999/xlink" xml:space="preserve" xmlns:serif="http://www.serif.com/" style="fill-rule:evenodd;clip-rule:evenodd;stroke-linecap:round;stroke-linejoin:round;stroke-miterlimit:1.5;"><clipPath id="_clip1"><rect id="Notes" x="0.023" y="0.171" width="36.451" height="46.181"/></clipPath><g clip-path="url(#_clip1)"><path d="M30.146,2.583c1.898,0.372 3.77,2.301 3.98,4.224c0.663,6.085 0.723,26.1 0,32.285c-0.251,2.148 -2.208,4.448 -4.338,4.825c-4.536,0.804 -18.294,0.814 -22.88,0c-2.21,-0.392 -4.333,-2.658 -4.638,-4.881c-0.713,-5.204 -0.617,-26.344 1.089,-28.05c3.639,-3.639 4.45,-4.63 8.38,-7.936c1.795,-1.511 15.001,-1.133 18.407,-0.466Z" style="fill:var(--icon-inside-color);stroke:var(--icon-outline-color);stroke-width:3.66px;"/><path d="M3.433,39.074c6.653,4.734 20.865,4.372 29.751,0.286" style="fill:none;stroke:var(--icon-shadow-color);stroke-width:3.66px;"/><path d="M32.988,6.905c-9.102,-4.368 -14.355,-2.734 -18.372,-1.283" style="fill:none;stroke:var(--primary-color);stroke-width:3.66px;"/><path d="M6.478,13.508c0,0 6.571,0.367 7.218,-6.048" style="fill:none;stroke:var(--icon-shadow-color);stroke-width:3.66px;"/><path d="M30.146,2.583c1.898,0.372 3.77,2.301 3.98,4.224c0.663,6.085 0.723,26.1 0,32.285c-0.251,2.148 -2.208,4.448 -4.338,4.825c-4.536,0.804 -18.294,0.814 -22.88,0c-2.21,-0.392 -4.333,-2.658 -4.638,-4.881c-0.713,-5.204 -0.617,-26.344 1.089,-28.05c3.639,-3.639 4.45,-4.63 8.38,-7.936c1.795,-1.511 15.001,-1.133 18.407,-0.466Z" style="fill:none;stroke:var(--icon-outline-color);stroke-width:3.66px;"/><path d="M13.445,3.292c0,0 0.575,6.065 0.214,7.926c-0.231,1.19 -1.183,2.568 -2.382,2.749c-1.704,0.257 -7.112,-1.21 -7.112,-1.21" style="fill:none;stroke:var(--icon-outline-color);stroke-width:3.66px;"/><path d="M8.951,32.184c0,0 5.564,1.654 7.606,1.502c2.042,-0.153 3.524,-1.508 5.206,-1.684c1.682,-0.176 6.027,0.648 6.027,0.648" style="fill:none;stroke:var(--icon-outline-color);stroke-width:3.05px;"/><path d="M9.602,25.652c0,0 4.535,1.413 6.47,1.216c1.935,-0.197 4.243,-1.64 5.93,-1.877c1.687,-0.237 5.137,0.596 5.137,0.596" style="fill:none;stroke:var(--icon-outline-color);stroke-width:3.05px;"/><path d="M9.449,19.219c1.048,-0.093 3.997,0.994 6.027,0.715c2.03,-0.279 5.062,-1.764 7.135,-1.949c2.073,-0.185 5.816,1.193 5.816,1.193" style="fill:none;stroke:var(--icon-outline-color);stroke-width:3.05px;"/><path d="M18.248,11.103c0.538,-0.083 2.084,0.489 3.126,0.232c1.043,-0.257 2.795,-0.673 3.86,-0.837c1.066,-0.164 2.778,0.707 2.778,0.707" style="fill:none;stroke:var(--icon-outline-color);stroke-width:3.05px;"/><path d="M30.146,2.583c1.898,0.372 3.77,2.301 3.98,4.224c0.663,6.085 0.723,26.1 0,32.285c-0.251,2.148 -2.208,4.448 -4.338,4.825c-4.536,0.804 -18.294,0.814 -22.88,0c-2.21,-0.392 -4.333,-2.658 -4.638,-4.881c-0.713,-5.204 -0.617,-26.344 1.089,-28.05c3.639,-3.639 4.45,-4.63 8.38,-7.936c1.795,-1.511 15.001,-1.133 18.407,-0.466Z" style="fill:var(--icon-inside-color);stroke:var(--icon-outline-color);stroke-width:3.66px;"/><path d="M3.433,39.074c6.653,4.734 20.865,4.372 29.751,0.286" style="fill:none;stroke:var(--icon-shadow-color);stroke-width:3.66px;"/><path d="M32.988,6.905c-9.102,-4.368 -14.355,-2.734 -18.372,-1.283" style="fill:none;stroke:var(--icon-highlight-color);stroke-width:3.66px;"/><path d="M6.722,13.021c0,0 6.328,0.854 6.974,-5.56" style="fill:none;stroke:var(--icon-shadow-color);stroke-width:3.66px;"/><path d="M30.146,2.583c1.898,0.372 3.77,2.301 3.98,4.224c0.663,6.085 0.723,26.1 0,32.285c-0.251,2.148 -2.208,4.448 -4.338,4.825c-4.536,0.804 -18.294,0.814 -22.88,0c-2.21,-0.392 -4.333,-2.658 -4.638,-4.881c-0.713,-5.204 -0.617,-26.344 1.089,-28.05c3.639,-3.639 4.45,-4.63 8.38,-7.936c1.795,-1.511 15.001,-1.133 18.407,-0.466Z" style="fill:none;stroke:var(--icon-outline-color);stroke-width:3.66px;"/><path d="M13.445,3.292c0,0 0.575,6.065 0.214,7.926c-0.231,1.19 -1.183,2.568 -2.382,2.749c-1.704,0.257 -7.112,-1.21 -7.112,-1.21" style="fill:none;stroke:var(--icon-outline-color);stroke-width:3.66px;"/><path d="M8.951,32.184c0,0 5.564,1.654 7.606,1.502c2.042,-0.153 3.524,-1.508 5.206,-1.684c1.682,-0.176 6.027,0.648 6.027,0.648" style="fill:none;stroke:var(--icon-outline-color);stroke-width:3.05px;"/><path d="M9.602,25.652c0,0 4.535,1.413 6.47,1.216c1.935,-0.197 4.243,-1.64 5.93,-1.877c1.687,-0.237 5.137,0.596 5.137,0.596" style="fill:none;stroke:var(--icon-outline-color);stroke-width:3.05px;"/><path d="M9.449,19.219c1.048,-0.093 3.997,0.994 6.027,0.715c2.03,-0.279 5.062,-1.764 7.135,-1.949c2.073,-0.185 5.816,1.193 5.816,1.193" style="fill:none;stroke:var(--icon-outline-color);stroke-width:3.05px;"/><path d="M18.248,11.103c0.538,-0.083 2.084,0.489 3.126,0.232c1.043,-0.257 2.795,-0.673 3.86,-0.837c1.066,-0.164 2.778,0.707 2.778,0.707" style="fill:none;stroke:var(--icon-outline-color);stroke-width:3.05px;"/></g></svg>