<?xml version="1.0" encoding="UTF-8" standalone="no"?><!DOCTYPE svg PUBLIC "-//W3C//DTD SVG 1.1//EN" "http://www.w3.org/Graphics/SVG/1.1/DTD/svg11.dtd"><svg width="100%" height="100%" viewBox="0 0 72 72" version="1.1" xmlns="http://www.w3.org/2000/svg" xmlns:xlink="http://www.w3.org/1999/xlink" xml:space="preserve" xmlns:serif="http://www.serif.com/" style="fill-rule:evenodd;clip-rule:evenodd;stroke-linejoin:round;stroke-miterlimit:2;"><path id="Background" d="M68.719,57.697c-0.355,9.042 -3.948,10.401 -11.329,10.711c-11.437,0.48 -30.547,0.171 -42.665,0c-9.028,-0.128 -11.755,-2.589 -11.801,-10.711c-0.064,-11.402 0.246,-33.527 0,-43.955c-0.174,-7.399 0.913,-11.057 7.434,-11.056c13.418,0.002 37.435,-0.467 49.863,0c8.132,0.306 8.812,1.73 8.496,11.056c-0.353,10.423 0.501,31.168 0,43.955Z" style="fill:var(--icon-inside-color);"/><path id="TopHighLight" d="M68.82,12.448c-0.085,0.089 -0.575,0.6 -1.406,0.621c-0.257,0.006 -0.521,-0.035 -0.762,-0.127c-0.484,-0.184 -0.461,-0.228 -0.843,-0.577c-0.132,-0.121 -0.145,-0.098 -0.313,-0.161c-0.62,-0.23 -0.806,-0.25 -1.016,-0.341c-0.675,-0.293 -0.687,-0.261 -1.496,-0.568c-0.322,-0.122 -0.323,-0.118 -0.641,-0.251c-1.039,-0.434 -1.359,-0.612 -2.461,-0.971c-8.763,-2.855 -14.157,-0.893 -25.123,-1.185c-9.741,-0.26 -20.435,-1.937 -26.243,2.755c-0.139,0.112 -0.134,0.118 -0.287,0.212c-0.404,0.25 -0.472,0.342 -0.668,0.448c-0.426,0.229 -0.441,0.276 -0.812,0.494c-0.718,0.423 -0.808,0.595 -0.773,0.529c0.029,-0.056 -0.185,0.355 -0.504,0.616c-0.632,0.519 -1.332,0.446 -1.453,0.433c-0.847,-0.088 -1.295,-0.645 -1.373,-0.742c-0.51,-0.634 -0.445,-1.332 -0.434,-1.453c0.007,-0.076 0.056,-0.063 0.257,-0.921c0.236,-1.008 0.484,-1.52 0.544,-1.645c0.283,-0.586 0.564,-1.034 0.605,-1.103c0.056,-0.092 0.787,-0.971 1.023,-1.17c8.398,-7.073 21.507,-4.109 33.47,-4.205c10.929,-0.088 16.893,-1.839 26.229,2.48c0.302,0.14 0.879,0.476 0.971,0.538c0.325,0.219 0.854,0.549 1.839,1.503c0.2,0.193 0.311,0.27 0.815,0.976c0.432,0.605 0.405,0.624 0.452,0.668c0.026,0.024 0.028,0.021 0.323,0.299c0.09,0.085 0.605,0.57 0.627,1.411c0.003,0.123 0.021,0.841 -0.551,1.437Z" style="fill:var(--icon-highlight-color);"/><path id="BottomLowLight" d="M2.761,59.457c0.087,-0.091 0.589,-0.616 1.443,-0.638c0.264,-0.007 0.535,0.036 0.782,0.131c0.496,0.189 0.474,0.233 0.864,0.592c0.133,0.122 0.146,0.1 0.316,0.164c0.684,0.259 0.702,0.21 1.115,0.394c0.483,0.216 0.943,0.376 1.026,0.405c0.252,0.088 0.244,0.103 0.701,0.273c0.11,0.041 0.206,0.096 0.585,0.253c0.78,0.324 3.081,1.68 8.912,2.031c7.613,0.458 13.548,-0.951 23.216,-0.691c9.59,0.257 15.767,1.812 21.344,-2.501c0.139,-0.108 0.134,-0.114 0.286,-0.203c0.406,-0.237 0.475,-0.327 0.664,-0.421c0.424,-0.211 0.461,-0.27 0.808,-0.459c0.194,-0.106 0.526,-0.31 0.755,-0.492c0.441,-0.351 1.46,-0.765 1.592,-0.819c0.22,-0.09 0.465,-0.118 0.703,-0.122c0.043,-0.001 0.416,-0.008 0.528,0.102c0.14,0.138 0.311,0.25 0.419,0.414c0.134,0.203 0.256,0.427 0.296,0.667c0.192,1.13 0.278,1.151 -0.023,2.257c-0.217,0.798 -0.41,1.187 -0.459,1.285c-0.441,0.889 -0.655,1.152 -0.728,1.242c-0.4,0.493 -0.767,0.863 -0.848,0.944c-0.014,0.014 -1.101,1.005 -3.038,1.942c-8.856,4.286 -15.765,1.917 -25.987,2.073c-13.513,0.207 -21.837,2.571 -30.953,-1.873c-0.192,-0.093 -0.814,-0.469 -0.848,-0.492c-0.596,-0.407 -0.934,-0.709 -1.01,-0.777c-0.545,-0.488 -0.943,-0.904 -1.089,-1.056c-0.141,-0.148 -0.543,-0.708 -0.974,-1.398c-0.011,-0.018 -0.32,-0.298 -0.328,-0.309c-0.156,-0.223 -0.357,-0.42 -0.467,-0.669c-0.05,-0.114 -0.34,-0.77 -0.039,-1.556c0.023,-0.061 0.152,-0.399 0.434,-0.693Z" style="fill:var(--icon-shadow-color);"/><path id="Border" d="M3.07,13.446c0.355,-9.042 3.948,-10.401 11.329,-10.711c11.437,-0.48 30.547,-0.171 42.665,0c9.028,0.128 11.755,2.589 11.801,10.711c0.064,11.402 -0.246,33.527 -0,43.955c0.174,7.399 -0.913,11.057 -7.434,11.056c-13.418,-0.002 -37.435,0.467 -49.863,-0c-8.132,-0.306 -8.812,-1.73 -8.496,-11.056c0.353,-10.423 -0.501,-31.168 0,-43.955Z" style="fill:none;stroke:var(--icon-outline-color);stroke-width:4.22px;"/></svg>