<?xml version="1.0" encoding="UTF-8" standalone="no"?><!DOCTYPE svg PUBLIC "-//W3C//DTD SVG 1.1//EN" "http://www.w3.org/Graphics/SVG/1.1/DTD/svg11.dtd"><svg width="100%" height="100%" viewBox="0 0 199 380" version="1.1" xmlns="http://www.w3.org/2000/svg" xmlns:xlink="http://www.w3.org/1999/xlink" xml:space="preserve" xmlns:serif="http://www.serif.com/" style="fill-rule:evenodd;clip-rule:evenodd;stroke-linejoin:round;stroke-miterlimit:2;"><path id="Background" d="M194.261,362.958c-0.356,8.665 -3.967,9.968 -11.384,10.264c-11.493,0.46 -153.974,0.309 -166.15,0.145c-9.072,-0.122 -11.812,-2.481 -11.858,-10.264c-0.064,-10.927 0.247,-336.037 0,-346.03c-0.175,-7.091 0.917,-10.596 7.47,-10.595c13.483,0.002 160.895,-0.593 173.384,-0.145c8.171,0.293 8.855,1.658 8.538,10.595c-0.355,9.988 0.504,333.775 -0,346.03Z" style="fill:var(--icon-inside-color);"/><path id="TopHighLight" d="M194.363,15.626c-0.086,0.085 -0.578,0.575 -1.413,0.595c-0.259,0.006 -0.524,-0.034 -0.765,-0.122c-0.486,-0.176 -0.463,-0.218 -0.847,-0.553c-0.133,-0.116 -0.146,-0.094 -0.314,-0.154c-0.623,-0.221 -0.81,-0.239 -1.021,-0.327c-0.679,-0.281 -0.69,-0.25 -1.503,-0.545c-0.323,-0.117 -0.324,-0.113 -0.644,-0.241c-1.044,-0.416 -1.366,-0.586 -2.472,-0.93c-8.805,-2.736 -82.921,-0.711 -93.94,-0.991c-9.788,-0.249 -75.118,-1.856 -80.954,2.64c-0.14,0.108 -0.135,0.113 -0.288,0.203c-0.406,0.24 -0.474,0.328 -0.671,0.429c-0.428,0.219 -0.444,0.264 -0.816,0.473c-0.721,0.405 -0.812,0.57 -0.777,0.507c0.03,-0.054 -0.186,0.34 -0.506,0.59c-0.635,0.497 -1.338,0.427 -1.46,0.415c-0.851,-0.084 -1.301,-0.618 -1.38,-0.711c-0.512,-0.607 -0.447,-1.277 -0.436,-1.392c0.007,-0.073 0.056,-0.061 0.259,-0.883c0.237,-0.966 0.486,-1.457 0.547,-1.576c0.285,-0.562 0.566,-0.991 0.608,-1.057c0.056,-0.088 0.791,-0.931 1.028,-1.121c8.439,-6.778 76.195,-3.937 88.217,-4.029c10.982,-0.084 85.67,-1.907 95.052,2.232c0.304,0.134 0.883,0.456 0.976,0.516c0.326,0.21 0.858,0.527 1.848,1.44c0.201,0.185 0.312,0.259 0.818,0.935c0.434,0.58 0.407,0.598 0.454,0.64c0.026,0.023 0.028,0.02 0.325,0.286c0.09,0.081 0.608,0.546 0.63,1.352c0.003,0.118 0.021,0.806 -0.553,1.377Z" style="fill:var(--icon-highlight-color);"/><path id="BottomLowLight" d="M4.704,364.478c0.088,-0.087 0.592,-0.591 1.45,-0.611c0.265,-0.006 0.537,0.035 0.786,0.125c0.499,0.181 0.476,0.223 0.868,0.568c0.133,0.117 0.147,0.096 0.318,0.158c0.687,0.248 0.705,0.201 1.121,0.378c0.485,0.207 0.947,0.36 1.031,0.388c0.253,0.084 0.245,0.099 0.704,0.262c0.11,0.039 0.207,0.092 0.588,0.242c0.784,0.31 3.096,1.61 8.955,1.947c7.65,0.439 68.197,-0.911 77.912,-0.663c9.637,0.247 84.539,1.591 90.143,-2.542c0.14,-0.103 0.134,-0.109 0.288,-0.194c0.408,-0.227 0.477,-0.313 0.668,-0.403c0.427,-0.202 0.464,-0.259 0.812,-0.44c0.195,-0.102 0.529,-0.297 0.759,-0.472c0.443,-0.336 1.467,-0.733 1.6,-0.785c0.221,-0.086 0.468,-0.113 0.707,-0.117c0.043,-0.001 0.418,-0.007 0.53,0.098c0.141,0.132 0.312,0.24 0.422,0.397c0.135,0.194 0.257,0.409 0.298,0.639c0.192,1.083 0.279,1.103 -0.023,2.163c-0.218,0.765 -0.412,1.138 -0.461,1.231c-0.444,0.852 -0.658,1.104 -0.731,1.19c-0.402,0.472 -0.771,0.827 -0.852,0.905c-0.014,0.014 -1.107,0.963 -3.052,1.861c-8.899,4.107 -84.537,1.982 -94.808,2.132c-13.579,0.199 -76.527,2.464 -85.687,-1.795c-0.193,-0.09 -0.818,-0.449 -0.852,-0.472c-0.599,-0.39 -0.939,-0.68 -1.015,-0.745c-0.548,-0.468 -0.948,-0.866 -1.094,-1.012c-0.141,-0.142 -0.546,-0.678 -0.979,-1.34c-0.012,-0.017 -0.322,-0.285 -0.33,-0.296c-0.157,-0.213 -0.359,-0.403 -0.469,-0.641c-0.05,-0.109 -0.342,-0.738 -0.039,-1.491c0.024,-0.059 0.153,-0.382 0.436,-0.664Z" style="fill:var(--icon-shadow-color);"/><path id="Border" d="M5.015,16.79c0.356,-8.665 3.967,-9.968 11.384,-10.264c11.493,-0.46 153.974,-0.309 166.15,-0.145c9.072,0.122 11.812,2.481 11.858,10.264c0.064,10.927 -0.247,336.037 0,346.03c0.175,7.091 -0.917,10.596 -7.47,10.595c-13.483,-0.002 -160.895,0.593 -173.384,0.145c-8.171,-0.293 -8.855,-1.658 -8.538,-10.595c0.355,-9.988 -0.504,-333.775 0,-346.03Z" style="fill:none;stroke:var(--icon-outline-color);stroke-width:4.78px;"/></svg>