<?xml version="1.0" encoding="UTF-8" standalone="no"?><!DOCTYPE svg PUBLIC "-//W3C//DTD SVG 1.1//EN" "http://www.w3.org/Graphics/SVG/1.1/DTD/svg11.dtd"><svg width="100%" height="100%" viewBox="0 0 177 55" version="1.1" xmlns="http://www.w3.org/2000/svg" xmlns:xlink="http://www.w3.org/1999/xlink" xml:space="preserve" xmlns:serif="http://www.serif.com/" style="fill-rule:evenodd;clip-rule:evenodd;stroke-linejoin:round;stroke-miterlimit:2;"><path id="Background" d="M173.737,40.619c-0.35,8.928 -3.898,10.27 -11.186,10.576c-11.293,0.474 -135.498,0.169 -147.463,-0c-8.915,-0.126 -11.607,-2.557 -11.652,-10.576c-0.063,-11.259 0.243,-15.805 0,-26.101c-0.172,-7.306 0.901,-10.918 7.341,-10.917c13.249,0.002 142.299,-0.462 154.571,0c8.03,0.302 8.701,1.709 8.39,10.917c-0.348,10.291 0.495,13.475 -0,26.101Z" style="fill:var(--icon-inside-color);"/><path id="TopHighLight" d="M173.837,13.175c-0.084,0.088 -0.568,0.592 -1.388,0.613c-0.254,0.006 -0.515,-0.035 -0.752,-0.126c-0.477,-0.182 -0.455,-0.225 -0.833,-0.57c-0.13,-0.119 -0.144,-0.097 -0.309,-0.159c-0.612,-0.227 -0.796,-0.247 -1.004,-0.337c-0.667,-0.29 -0.678,-0.258 -1.477,-0.561c-0.318,-0.121 -0.319,-0.117 -0.633,-0.248c-1.026,-0.429 -1.342,-0.604 -2.43,-0.958c-8.653,-2.819 -115.759,-0.882 -126.586,-1.17c-9.618,-0.256 -23.734,-1.913 -29.468,2.72c-0.137,0.111 -0.132,0.116 -0.283,0.21c-0.399,0.247 -0.466,0.338 -0.659,0.442c-0.42,0.226 -0.436,0.272 -0.801,0.488c-0.709,0.417 -0.798,0.588 -0.763,0.522c0.029,-0.056 -0.183,0.35 -0.497,0.608c-0.624,0.512 -1.315,0.44 -1.434,0.428c-0.837,-0.087 -1.279,-0.637 -1.356,-0.733c-0.503,-0.626 -0.439,-1.315 -0.428,-1.435c0.007,-0.075 0.056,-0.063 0.254,-0.909c0.233,-0.995 0.477,-1.501 0.537,-1.624c0.28,-0.579 0.557,-1.021 0.598,-1.089c0.055,-0.09 0.777,-0.959 1.01,-1.155c8.292,-6.984 24.792,-4.057 36.605,-4.152c10.792,-0.087 118.46,-1.816 127.679,2.449c0.299,0.138 0.868,0.47 0.959,0.531c0.32,0.216 0.843,0.543 1.816,1.484c0.197,0.191 0.307,0.267 0.804,0.964c0.427,0.598 0.4,0.616 0.447,0.66c0.025,0.024 0.028,0.02 0.319,0.295c0.089,0.084 0.598,0.563 0.619,1.393c0.003,0.122 0.021,0.83 -0.544,1.419Z" style="fill:var(--icon-highlight-color);"/><path id="BottomLowLight" d="M3.274,42.036c0.086,-0.09 0.582,-0.609 1.425,-0.63c0.261,-0.007 0.528,0.036 0.772,0.129c0.49,0.187 0.468,0.23 0.853,0.585c0.131,0.121 0.144,0.099 0.312,0.162c0.675,0.256 0.693,0.207 1.101,0.389c0.477,0.213 0.931,0.371 1.013,0.4c0.248,0.086 0.241,0.102 0.692,0.27c0.108,0.04 0.203,0.095 0.578,0.25c0.771,0.32 3.043,1.659 8.8,2.006c7.517,0.453 16.933,-0.939 26.479,-0.683c9.469,0.254 117.348,1.789 122.855,-2.47c0.137,-0.106 0.132,-0.113 0.283,-0.2c0.401,-0.234 0.469,-0.323 0.656,-0.415c0.419,-0.208 0.456,-0.267 0.798,-0.453c0.191,-0.105 0.52,-0.306 0.745,-0.486c0.435,-0.346 1.441,-0.756 1.572,-0.809c0.218,-0.089 0.459,-0.116 0.694,-0.121c0.043,-0.001 0.411,-0.008 0.521,0.101c0.139,0.136 0.307,0.247 0.414,0.409c0.133,0.2 0.252,0.421 0.292,0.658c0.189,1.116 -1.633,8.361 -3.682,8.922c-7.492,2.05 -118.695,0.544 -128.788,0.698c-13.343,0.205 -25.118,2.538 -34.12,-1.849c-0.19,-0.092 -0.804,-0.463 -0.838,-0.486c-0.589,-0.402 -0.922,-0.7 -0.997,-0.767c-0.539,-0.482 -0.931,-0.892 -1.075,-1.043c-0.139,-0.146 -0.537,-0.699 -0.962,-1.38c-0.011,-0.018 -0.316,-0.294 -0.324,-0.305c-0.154,-0.22 -0.353,-0.415 -0.461,-0.66c-0.05,-0.113 -0.336,-0.76 -0.039,-1.536c0.023,-0.06 0.151,-0.394 0.429,-0.684Z" style="fill:var(--icon-shadow-color);"/><path id="Border" d="M3.579,14.225c0.35,-8.928 3.898,-10.27 11.186,-10.576c11.293,-0.474 135.498,-0.169 147.463,0c8.915,0.126 11.607,2.557 11.652,10.576c0.063,11.259 -0.243,15.805 0,26.101c0.172,7.306 -0.901,10.918 -7.341,10.917c-13.249,-0.002 -142.299,0.462 -154.571,-0c-8.03,-0.302 -8.701,-1.709 -8.39,-10.917c0.348,-10.291 -0.495,-13.475 0,-26.101Z" style="fill:none;stroke:var(--icon-outline-color);stroke-width:4.17px;"/></svg>