<?xml version="1.0" encoding="UTF-8" standalone="no"?><!DOCTYPE svg PUBLIC "-//W3C//DTD SVG 1.1//EN" "http://www.w3.org/Graphics/SVG/1.1/DTD/svg11.dtd"><svg width="100%" height="100%" viewBox="0 0 183 148" version="1.1" xmlns="http://www.w3.org/2000/svg" xmlns:xlink="http://www.w3.org/1999/xlink" xml:space="preserve" xmlns:serif="http://www.serif.com/" style="fill-rule:evenodd;clip-rule:evenodd;stroke-linejoin:round;stroke-miterlimit:2;"><clipPath id="_clip1"><rect id="PanelWithExtra" x="0.079" y="0.155" width="182.286" height="147.087"/></clipPath><g clip-path="url(#_clip1)"><path id="Background" d="M3.928,16.212c-0,-4.609 4.254,-12.207 12.383,-12.207c11.323,0 118.575,0.156 140.663,0.468c16.458,0.232 21.428,4.72 21.511,19.522c0.117,20.783 -0.448,79.863 -0,98.869c0.318,13.487 -1.664,20.154 -13.552,20.152c-24.459,-0.004 -88.555,0.852 -111.21,-0c-14.823,-0.558 -15.512,-3.144 -15.488,-20.152c0.024,-16.331 -0.296,-6.71 -0.296,-33.734c0,-4.83 -3.89,-9.397 -8.719,-9.397c-4.83,0 -8.285,-0.64 -14.553,-0.64c-6.126,0 -10.739,-4.87 -10.739,-10.996l0,-51.885Z" style="fill:var(--icon-inside-color);stroke:var(--icon-outline-color);stroke-width:7.7px;"/><path id="TopHighLight" d="M178.405,22.175c-0.155,0.162 -1.049,1.094 -2.563,1.132c-0.469,0.012 -0.95,-0.064 -1.388,-0.232c-0.881,-0.335 -0.841,-0.415 -1.537,-1.052c-0.241,-0.22 -0.265,-0.179 -0.57,-0.293c-1.129,-0.42 -1.47,-0.455 -1.853,-0.622c-1.231,-0.534 -1.252,-0.475 -2.727,-1.036c-0.587,-0.223 -0.588,-0.216 -1.168,-0.458c-1.894,-0.792 -2.478,-1.115 -4.485,-1.769c-15.974,-5.203 -49.047,-1.628 -69.036,-2.16c-17.756,-0.473 -69.904,-4.48 -80.491,4.073c-0.253,0.205 -0.244,0.214 -0.523,0.387c-0.736,0.456 -0.86,0.624 -1.217,0.816c-0.776,0.417 -0.805,0.502 -1.48,0.9c-1.308,0.771 -1.472,1.085 -1.409,0.964c0.054,-0.103 -0.338,0.647 -0.918,1.122c-1.151,0.946 -2.428,0.813 -2.648,0.79c-1.545,-0.16 -2.36,-1.175 -2.503,-1.353c-0.929,-1.155 -0.811,-2.428 -0.79,-2.648c0.013,-0.139 0.102,-0.116 0.469,-1.679c0.43,-1.836 0.881,-2.771 0.991,-2.998c0.517,-1.069 1.027,-1.885 1.103,-2.01c0.102,-0.167 1.434,-1.77 1.865,-2.133c15.308,-12.892 71.858,-6.54 93.666,-6.715c19.923,-0.16 54.034,-3.352 71.052,4.521c0.551,0.255 1.602,0.868 1.77,0.981c0.592,0.399 1.556,1.001 3.352,2.739c0.364,0.352 0.567,0.493 1.485,1.779c0.787,1.103 0.739,1.137 0.824,1.218c0.046,0.044 0.051,0.038 0.589,0.544c0.164,0.154 1.103,1.039 1.142,2.571c0.006,0.224 0.039,1.532 -1.004,2.62Z" style="fill:var(--icon-highlight-color);"/><path id="BottomLowLight" d="M37.671,126.611c0.159,-0.166 1.074,-1.123 2.631,-1.163c0.481,-0.012 0.975,0.066 1.425,0.238c0.905,0.345 0.864,0.424 1.575,1.08c0.242,0.223 0.267,0.183 0.576,0.3c1.247,0.472 1.279,0.382 2.033,0.719c0.88,0.394 1.718,0.685 1.87,0.738c0.459,0.16 0.445,0.188 1.277,0.498c0.2,0.074 0.375,0.175 1.066,0.461c1.423,0.59 5.617,3.063 16.245,3.703c13.877,0.835 31.259,-1.733 48.883,-1.26c17.481,0.469 42.494,3.302 52.661,-4.559c0.254,-0.196 0.243,-0.208 0.522,-0.37c0.741,-0.431 0.866,-0.595 1.211,-0.767c0.774,-0.384 0.841,-0.492 1.472,-0.837c0.353,-0.193 0.959,-0.566 1.376,-0.897c0.804,-0.639 2.661,-1.395 2.903,-1.493c0.402,-0.163 0.848,-0.215 1.282,-0.223c0.079,-0.001 0.759,-0.014 0.962,0.186c0.256,0.251 0.567,0.456 0.765,0.754c0.245,0.369 0.466,0.778 0.54,1.215c0.349,2.06 0.507,2.098 -0.041,4.113c-0.396,1.454 -0.748,2.164 -0.837,2.342c-0.805,1.62 -1.194,2.1 -1.326,2.263c-0.729,0.898 -1.399,1.573 -1.545,1.721c-0.025,0.026 -2.008,1.831 -5.537,3.539c-16.143,7.812 -42.491,3.494 -61.123,3.779c-24.633,0.378 -46.37,4.686 -62.988,-3.414c-0.351,-0.17 -1.483,-0.855 -1.546,-0.897c-1.087,-0.741 -1.703,-1.293 -1.841,-1.416c-0.994,-0.89 -1.719,-1.647 -1.984,-1.925c-0.257,-0.269 -0.99,-1.29 -1.775,-2.548c-0.021,-0.033 -0.584,-0.543 -0.599,-0.563c-0.284,-0.406 -0.651,-0.766 -0.851,-1.219c-0.092,-0.208 -0.62,-1.403 -0.072,-2.835c0.043,-0.111 0.278,-0.727 0.791,-1.263Z" style="fill:var(--icon-shadow-color);"/><path id="Border" d="M3.928,16.212c-0,-4.609 4.254,-12.207 12.383,-12.207c11.323,0 118.575,0.156 140.663,0.468c16.458,0.232 21.428,4.72 21.511,19.522c0.117,20.783 -0.448,79.863 -0,98.869c0.318,13.487 -1.664,20.154 -13.552,20.152c-24.459,-0.004 -88.555,0.852 -111.21,-0c-14.823,-0.558 -15.512,-3.144 -15.488,-20.152c0.024,-16.331 -0.296,-6.71 -0.296,-33.734c0,-4.83 -3.89,-9.397 -8.719,-9.397c-4.83,0 -8.285,-0.64 -14.553,-0.64c-6.126,0 -10.739,-4.87 -10.739,-10.996l0,-51.885Z" style="fill:none;stroke:var(--icon-outline-color);stroke-width:7.7px;"/></g></svg>