<?xml version="1.0" encoding="UTF-8" standalone="no"?><!DOCTYPE svg PUBLIC "-//W3C//DTD SVG 1.1//EN" "http://www.w3.org/Graphics/SVG/1.1/DTD/svg11.dtd"><svg width="100%" height="100%" viewBox="0 0 152 151" version="1.1" xmlns="http://www.w3.org/2000/svg" xmlns:xlink="http://www.w3.org/1999/xlink" xml:space="preserve" xmlns:serif="http://www.serif.com/" style="fill-rule:evenodd;clip-rule:evenodd;stroke-linejoin:round;stroke-miterlimit:2;"><path id="Background" d="M146.497,124.962c-0.652,16.623 -7.258,19.122 -20.827,19.691c-21.027,0.882 -76.649,0.315 -98.927,-0c-16.598,-0.234 -21.611,-4.76 -21.695,-19.691c-0.118,-20.962 0.452,-80.554 0,-99.724c-0.321,-13.603 1.678,-20.328 13.668,-20.326c24.668,0.004 89.312,-0.859 112.161,0c14.95,0.562 16.2,3.181 15.62,20.326c-0.649,19.161 0.922,76.216 0,99.724Z" style="fill:var(--icon-inside-color);"/><path id="TopHighLight" d="M146.683,22.858c-0.156,0.163 -1.058,1.103 -2.584,1.142c-0.473,0.012 -0.958,-0.065 -1.4,-0.234c-0.889,-0.338 -0.848,-0.418 -1.55,-1.061c-0.243,-0.222 -0.267,-0.181 -0.575,-0.295c-1.139,-0.423 -1.482,-0.459 -1.869,-0.627c-1.242,-0.539 -1.263,-0.479 -2.75,-1.045c-0.592,-0.225 -0.593,-0.218 -1.178,-0.462c-1.91,-0.798 -2.499,-1.125 -4.524,-1.784c-16.11,-5.248 -39.898,-1.642 -60.057,-2.179c-17.908,-0.477 -44.188,-3.561 -54.866,5.065c-0.255,0.207 -0.246,0.216 -0.527,0.39c-0.742,0.46 -0.867,0.629 -1.227,0.823c-0.783,0.421 -0.811,0.507 -1.492,0.908c-1.32,0.777 -1.485,1.094 -1.421,0.972c0.054,-0.104 -0.341,0.652 -0.926,1.132c-1.161,0.954 -2.449,0.82 -2.671,0.797c-1.558,-0.161 -2.381,-1.185 -2.525,-1.365c-0.937,-1.165 -0.818,-2.449 -0.797,-2.671c0.013,-0.14 0.103,-0.117 0.473,-1.693c0.434,-1.852 0.889,-2.794 1,-3.024c0.521,-1.078 1.036,-1.901 1.113,-2.027c0.102,-0.168 1.446,-1.785 1.881,-2.151c15.439,-13.003 46.159,-7.554 68.153,-7.73c20.093,-0.161 44.927,-3.381 62.091,4.56c0.556,0.257 1.616,0.875 1.785,0.989c0.597,0.403 1.57,1.01 3.381,2.762c0.367,0.355 0.572,0.497 1.497,1.794c0.794,1.112 0.745,1.147 0.832,1.229c0.047,0.044 0.052,0.038 0.594,0.549c0.166,0.156 1.113,1.047 1.152,2.594c0.006,0.226 0.039,1.546 -1.012,2.642Z" style="fill:var(--icon-highlight-color);"/><path id="BottomLowLight" d="M4.747,128.198c0.161,-0.168 1.084,-1.133 2.653,-1.173c0.485,-0.012 0.983,0.067 1.437,0.24c0.912,0.348 0.871,0.428 1.589,1.089c0.244,0.225 0.269,0.184 0.581,0.302c1.257,0.476 1.29,0.385 2.051,0.725c0.888,0.397 1.733,0.691 1.886,0.745c0.463,0.161 0.449,0.19 1.288,0.502c0.201,0.075 0.378,0.176 1.076,0.465c1.435,0.595 5.665,3.089 16.384,3.735c13.996,0.843 31.526,-1.748 49.3,-1.271c17.631,0.473 42.857,3.331 53.111,-4.599c0.256,-0.198 0.245,-0.21 0.526,-0.373c0.747,-0.435 0.874,-0.601 1.221,-0.773c0.78,-0.387 0.848,-0.497 1.485,-0.844c0.356,-0.195 0.967,-0.571 1.388,-0.905c0.81,-0.645 2.683,-1.407 2.927,-1.506c0.405,-0.165 0.855,-0.217 1.293,-0.224c0.079,-0.001 0.765,-0.014 0.97,0.188c0.258,0.253 0.572,0.46 0.771,0.761c0.247,0.373 0.47,0.785 0.544,1.226c0.352,2.078 0.511,2.116 -0.042,4.149c-0.399,1.467 -0.754,2.183 -0.844,2.362c-0.811,1.634 -1.205,2.118 -1.338,2.283c-0.735,0.906 -1.411,1.587 -1.558,1.736c-0.025,0.026 -2.025,1.847 -5.585,3.57c-16.281,7.88 -42.854,3.524 -61.646,3.812c-24.843,0.381 -46.766,4.726 -63.526,-3.443c-0.354,-0.172 -1.496,-0.862 -1.56,-0.905c-1.096,-0.748 -1.717,-1.304 -1.857,-1.428c-1.003,-0.898 -1.734,-1.661 -2.001,-1.942c-0.259,-0.272 -0.999,-1.301 -1.79,-2.57c-0.021,-0.033 -0.589,-0.547 -0.604,-0.568c-0.287,-0.409 -0.656,-0.772 -0.858,-1.229c-0.092,-0.21 -0.625,-1.415 -0.072,-2.86c0.043,-0.112 0.28,-0.733 0.798,-1.274Z" style="fill:var(--icon-shadow-color);"/><path id="Border" d="M5.316,24.693c0.652,-16.623 7.258,-19.122 20.827,-19.691c21.027,-0.882 76.649,-0.315 98.927,0c16.598,0.234 21.611,4.76 21.695,19.691c0.118,20.962 -0.452,80.554 -0,99.724c0.321,13.603 -1.678,20.328 -13.668,20.326c-24.668,-0.004 -89.312,0.859 -112.161,-0c-14.95,-0.562 -16.2,-3.181 -15.62,-20.326c0.649,-19.161 -0.922,-76.216 0,-99.724Z" style="fill:none;stroke:var(--icon-outline-color);stroke-width:7.76px;"/></svg>