<?xml version="1.0" encoding="UTF-8" standalone="no"?><!DOCTYPE svg PUBLIC "-//W3C//DTD SVG 1.1//EN" "http://www.w3.org/Graphics/SVG/1.1/DTD/svg11.dtd"><svg width="100%" height="100%" viewBox="0 0 58 56" version="1.1" xmlns="http://www.w3.org/2000/svg" xmlns:xlink="http://www.w3.org/1999/xlink" xml:space="preserve" xmlns:serif="http://www.serif.com/" style="fill-rule:evenodd;clip-rule:evenodd;stroke-linecap:round;stroke-linejoin:round;stroke-miterlimit:1.5;"><path id="Background" d="M8.251,7.317c3.984,-4.729 11.046,-1.384 15.101,0c8.255,2.818 29.713,11.548 29.713,20.535c0,8.986 -23.411,19.127 -31.674,21.738c-4.377,1.383 -10.893,2.69 -14.168,-1.656c-3.45,-4.579 -2.674,-36.223 1.028,-40.616Z" style="fill:var(--icon-inside-color);"/><path id="BottomLowLight" d="M7.129,40.495c3.501,1.812 5.979,4.521 9.865,5.181c4.004,0.679 10.63,-1.394 15.138,-1.848" style="fill:none;stroke:var(--icon-shadow-color);stroke-width:7.78px;"/><path id="Border" d="M8.251,7.317c3.984,-4.729 11.046,-1.384 15.101,0c8.255,2.818 29.713,11.548 29.713,20.535c0,8.986 -23.411,19.127 -31.674,21.738c-4.377,1.383 -10.893,2.69 -14.168,-1.656c-3.45,-4.579 -2.674,-36.223 1.028,-40.616Z" style="fill:none;stroke:var(--icon-outline-color);stroke-width:5.59px;stroke-linecap:butt;stroke-miterlimit:2;"/></svg>