<?xml version="1.0" encoding="UTF-8" standalone="no"?><!DOCTYPE svg PUBLIC "-//W3C//DTD SVG 1.1//EN" "http://www.w3.org/Graphics/SVG/1.1/DTD/svg11.dtd"><svg width="100%" height="100%" viewBox="0 0 49 50" version="1.1" xmlns="http://www.w3.org/2000/svg" xmlns:xlink="http://www.w3.org/1999/xlink" xml:space="preserve" xmlns:serif="http://www.serif.com/" style="fill-rule:evenodd;clip-rule:evenodd;stroke-linecap:round;stroke-linejoin:round;stroke-miterlimit:1.5;"><path id="Background" d="M2.682,21.786c0.495,-1.423 1.721,-2.889 3.196,-3.196c2.561,-0.533 12.172,0 12.172,0c0,0 -0.601,-10.257 0,-12.92c0.347,-1.537 2.098,-2.596 3.604,-3.06c1.655,-0.51 4.885,-0.51 6.324,0c1.205,0.427 2.122,1.796 2.312,3.06c0.385,2.562 0,12.308 0,12.308c0,0 10.597,0.125 13.26,0.612c1.171,0.214 2.382,1.171 2.72,2.312c0.453,1.53 0.453,5.236 0,6.868c-0.356,1.283 -1.413,2.673 -2.72,2.924c-2.539,0.487 -12.512,0 -12.512,0c0,0 -0.238,10.325 -0.748,12.988c-0.237,1.238 -1.112,2.607 -2.312,2.992c-1.553,0.498 -5.349,0.498 -7.004,0c-1.335,-0.402 -2.673,-1.62 -2.924,-2.992c-0.487,-2.663 0,-12.988 0,-12.988c0,0 -9.611,0.487 -12.172,0c-1.418,-0.27 -2.709,-1.565 -3.196,-2.924c-0.532,-1.485 -0.532,-4.454 0,-5.984Z" style="fill:var(--icon-inside-color);"/><path id="BottomLowLight" d="M18.754,44.011c2.039,0.748 3.892,0.964 5.692,0.964c1.731,0 3.548,-0.643 5.109,-1.391" style="fill:none;stroke:var(--icon-shadow-color);stroke-width:3.92px;"/><path id="RightLowLight" d="M31.378,28.211c5.659,0.685 9.695,0.677 13.671,-0.695" style="fill:none;stroke:var(--icon-shadow-color);stroke-width:3.92px;"/><path id="Border" d="M2.682,21.786c0.495,-1.423 1.721,-2.889 3.196,-3.196c2.561,-0.533 12.172,0 12.172,0c0,0 -0.601,-10.257 0,-12.92c0.347,-1.537 2.098,-2.596 3.604,-3.06c1.655,-0.51 4.885,-0.51 6.324,0c1.205,0.427 2.122,1.796 2.312,3.06c0.385,2.562 0,12.308 0,12.308c0,0 10.597,0.125 13.26,0.612c1.171,0.214 2.382,1.171 2.72,2.312c0.453,1.53 0.453,5.236 0,6.868c-0.356,1.283 -1.413,2.673 -2.72,2.924c-2.539,0.487 -12.512,0 -12.512,0c0,0 -0.238,10.325 -0.748,12.988c-0.237,1.238 -1.112,2.607 -2.312,2.992c-1.553,0.498 -5.349,0.498 -7.004,0c-1.335,-0.402 -2.673,-1.62 -2.924,-2.992c-0.487,-2.663 0,-12.988 0,-12.988c0,0 -9.611,0.487 -12.172,0c-1.418,-0.27 -2.709,-1.565 -3.196,-2.924c-0.532,-1.485 -0.532,-4.454 0,-5.984Z" style="fill:none;stroke:var(--icon-outline-color);stroke-width:3.92px;"/></svg>