<?xml version="1.0" encoding="UTF-8" standalone="no"?><!DOCTYPE svg PUBLIC "-//W3C//DTD SVG 1.1//EN" "http://www.w3.org/Graphics/SVG/1.1/DTD/svg11.dtd"><svg width="100%" height="100%" viewBox="0 0 78 49" version="1.1" xmlns="http://www.w3.org/2000/svg" xmlns:xlink="http://www.w3.org/1999/xlink" xml:space="preserve" xmlns:serif="http://www.serif.com/" style="fill-rule:evenodd;clip-rule:evenodd;stroke-linecap:round;stroke-linejoin:round;stroke-miterlimit:1.5;"><clipPath id="_clip1"><rect id="PutDownDevice" x="0.108" y="0.185" width="77.412" height="47.928"/></clipPath><g clip-path="url(#_clip1)"><g id="Table"><path id="Background" d="M60.091,15.04c4.516,0 5.569,2.319 6.056,3.478c1.779,4.234 7.579,18.036 9.213,21.924c1.634,3.888 0.175,6.134 -5.83,6.134l-63.069,-0c-3.236,0 -5.76,-1.071 -4.472,-4.877c1.582,-4.676 6.34,-18.737 7.844,-23.18c0.337,-0.997 1.399,-3.478 5.441,-3.478l44.818,0Z" style="fill:var(--icon-inside-color);"/><path id="Border" d="M60.091,15.04c4.516,0 5.569,2.319 6.056,3.478c1.779,4.234 7.579,18.036 9.213,21.924c1.634,3.888 0.175,6.134 -5.83,6.134l-63.069,-0c-3.236,0 -5.76,-1.071 -4.472,-4.877c1.582,-4.676 6.34,-18.737 7.844,-23.18c0.337,-0.997 1.399,-3.478 5.441,-3.478l44.818,0Z" style="fill:none;stroke:var(--icon-outline-color);stroke-width:3.07px;"/></g><g id="Device"><path id="BackgroundDevice" d="M20.395,34.376c-2.21,-0.102 -5.181,-2.306 -5.381,-4.509c-0.441,-4.861 1.689,-19.431 1.961,-24.199c0.129,-2.265 3.208,-4.275 5.475,-4.32c8.371,-0.165 25.707,-0.541 31.967,-0.096c2.779,0.198 5.397,2.778 5.588,5.558c0.382,5.581 1.824,17.742 1.579,21.93c-0.144,2.467 -2.603,4.984 -5.059,5.256c-6.323,0.7 -27.414,0.784 -36.131,0.38Z" style="fill:var(--icon-inside-color);"/><path id="BackgroundScreen" d="M25.244,31.022c-1.668,-0.081 -2.597,-0.993 -2.748,-2.72c-0.333,-3.812 1.766,-16.713 1.971,-20.453c0.097,-1.776 1.111,-2.693 2.823,-2.728c6.319,-0.129 20.831,-0.428 25.556,-0.079c2.098,0.155 3.087,1.034 3.231,3.214c0.289,4.377 1.756,15.881 1.572,19.166c-0.109,1.935 -1.311,3.087 -3.165,3.3c-4.773,0.549 -22.661,0.618 -29.24,0.3Z" style="fill:var(--icon-shadow-color);"/><path id="BottomLowLight" d="M60.447,20.156c0,0 1.332,7.761 -1.125,10.857c-2.457,3.096 -7.738,3.229 -10.719,2.75" style="fill:none;stroke:var(--icon-shadow-color);stroke-width:2.94px;"/><path id="TopHighLight" d="M16.546,16.15c0,0 0.695,-7.761 3.152,-10.857c2.457,-3.096 7.738,-3.229 10.719,-2.75" style="fill:none;stroke:var(--icon-highlight-color);stroke-width:2.94px;"/><path id="BorderButton" d="M20.031,18.185l-0.981,0.003c-0.271,0.001 -0.491,-0.218 -0.492,-0.489l-0.003,-0.981c-0.001,-0.271 0.218,-0.491 0.489,-0.492l0.981,-0.003c0.271,-0.001 0.491,0.218 0.492,0.489l0.003,0.981c0.001,0.271 -0.218,0.491 -0.489,0.492Z" style="fill:var(--icon-outline-color);stroke:var(--icon-outline-color);stroke-width:2.04px;"/><path id="BorderScreen" d="M20.346,34.538c-2.21,-0.102 -5.181,-2.306 -5.381,-4.509c-0.441,-4.861 1.689,-19.431 1.961,-24.199c0.129,-2.265 3.208,-4.275 5.475,-4.32c8.371,-0.165 25.707,-0.541 31.967,-0.096c2.779,0.198 5.397,2.778 5.588,5.558c0.382,5.581 1.824,17.742 1.579,21.93c-0.144,2.467 -2.603,4.984 -5.059,5.256c-6.323,0.7 -27.414,0.784 -36.131,0.38Z" style="fill:none;stroke:var(--icon-outline-color);stroke-width:2.04px;"/><path id="BorderDevice" d="M25.244,31.022c-1.668,-0.081 -2.597,-0.993 -2.748,-2.72c-0.333,-3.812 1.091,-16.713 1.296,-20.453c0.097,-1.776 1.111,-2.693 2.823,-2.728c6.319,-0.129 21.506,-0.428 26.231,-0.079c2.098,0.155 3.087,1.034 3.231,3.214c0.289,4.377 1.756,15.881 1.572,19.166c-0.109,1.935 -1.311,3.087 -3.165,3.3c-4.773,0.549 -22.661,0.618 -29.24,0.3Z" style="fill:none;stroke:var(--icon-outline-color);stroke-width:2.04px;"/></g><g id="ArrowBottom"><path id="Background1" serif:id="Background" d="M36.441,41.079c0.97,0.752 3.208,0.971 4.572,-0.056c1.523,-1.147 5.029,-3.958 6.305,-5.136c3.132,-2.891 -4.564,-1.79 -4.548,-2.443c0.124,-4.955 1.325,-7.5 0.013,-7.73c-1.545,-0.27 -4.996,-0.448 -7.093,-0.015c-1.338,0.277 -0.385,2.801 -0.596,7.623c-0.034,0.772 -7.448,-0.883 -5.061,2.472c1.017,1.429 4.738,3.991 6.407,5.285Z" style="fill:var(--icon-inside-color);"/><path id="Border1" serif:id="Border" d="M36.441,41.079c0.97,0.752 3.208,0.971 4.572,-0.056c1.523,-1.147 5.029,-3.958 6.305,-5.136c3.132,-2.891 -4.564,-1.79 -4.548,-2.443c0.124,-4.955 1.325,-7.5 0.013,-7.73c-1.545,-0.27 -4.996,-0.448 -7.093,-0.015c-1.338,0.277 -0.385,2.801 -0.596,7.623c-0.034,0.772 -7.448,-0.883 -5.061,2.472c1.017,1.429 4.738,3.991 6.407,5.285Z" style="fill:none;stroke:var(--icon-outline-color);stroke-width:2.5px;"/></g></g></svg>