<?xml version="1.0" encoding="UTF-8" standalone="no"?><!DOCTYPE svg PUBLIC "-//W3C//DTD SVG 1.1//EN" "http://www.w3.org/Graphics/SVG/1.1/DTD/svg11.dtd"><svg width="100%" height="100%" viewBox="0 0 48 48" version="1.1" xmlns="http://www.w3.org/2000/svg" xmlns:xlink="http://www.w3.org/1999/xlink" xml:space="preserve" xmlns:serif="http://www.serif.com/" style="fill-rule:evenodd;clip-rule:evenodd;stroke-linecap:round;stroke-linejoin:round;stroke-miterlimit:1.5;"><clipPath id="_clip1"><rect id="Reload" x="0.057" y="0.234" width="47.736" height="47.459"/></clipPath><g clip-path="url(#_clip1)"><g id="ArrowTop"><path id="Background" d="M9.962,15.894c-0.135,1.777 0.767,3.47 2.562,3.847c2.526,0.531 9.444,2.08 11.839,1.671c6.519,-1.113 0.148,-6.752 1.143,-7.106c11.358,-4.037 11.187,5.25 11.144,8.965c-0.014,1.213 0.667,2.557 1.524,3.327c0.857,0.77 2.476,1.524 3.62,1.293c1.143,-0.231 2.996,-1.324 3.238,-2.68c2.733,-15.292 -8.604,-27.805 -24.861,-18.391c-1.077,0.624 -2.084,-7.441 -6.382,-3.201c-1.679,1.656 -3.617,9.493 -3.828,12.275Z" style="fill:var(--icon-inside-color);"/><path id="TailLowLight" d="M38.632,26.073c1.092,0.099 2.337,0.259 3.277,0c0.94,-0.258 1.575,-0.936 2.362,-1.552" style="fill:none;stroke:var(--icon-shadow-color);stroke-width:4.36px;"/><g id="HeadLowLight"><path d="M20.086,20.584c1.072,-0.226 2.308,-0.439 3.123,-0.962c0.815,-0.522 1.209,-1.355 1.767,-2.173" style="fill:none;stroke:var(--icon-shadow-color);stroke-width:4.4px;"/></g><path id="Border" d="M9.962,15.894c-0.135,1.777 0.767,3.47 2.562,3.847c2.526,0.531 9.444,2.08 11.839,1.671c6.519,-1.113 0.148,-6.752 1.143,-7.106c11.358,-4.037 11.187,5.25 11.144,8.965c-0.014,1.213 0.667,2.557 1.524,3.327c0.857,0.77 2.476,1.524 3.62,1.293c1.143,-0.231 2.996,-1.324 3.238,-2.68c2.733,-15.292 -8.604,-27.805 -24.861,-18.391c-1.077,0.624 -2.084,-7.441 -6.382,-3.201c-1.679,1.656 -3.617,9.493 -3.828,12.275Z" style="fill:none;stroke:var(--icon-outline-color);stroke-width:4.36px;"/></g><g id="ArrowBottom"><path id="Background1" serif:id="Background" d="M37.173,32.611c0.325,-1.754 -0.39,-3.529 -2.135,-4.085c-2.456,-0.783 -9.168,-3.024 -11.594,-2.86c-6.603,0.447 -0.873,6.7 -1.901,6.952c-11.73,2.865 -10.561,-6.354 -10.12,-10.044c0.144,-1.205 -0.388,-2.611 -1.158,-3.463c-0.77,-0.853 -2.299,-1.767 -3.461,-1.653c-1.162,0.114 -3.122,1.013 -3.509,2.338c-4.362,14.932 5.567,28.524 22.748,20.807c1.139,-0.511 1.272,7.612 6.003,3.829c1.848,-1.477 4.618,-9.075 5.127,-11.821Z" style="fill:var(--icon-inside-color);"/><g id="TailLowLight1" serif:id="TailLowLight"><path d="M9.786,20.018c-1.03,-0.366 -2.191,-0.829 -3.168,-0.812c-0.977,0.017 -1.769,0.515 -2.692,0.916" style="fill:none;stroke:var(--icon-shadow-color);stroke-width:4.33px;"/></g><g id="HeadLowLight1" serif:id="HeadLowLight"><path d="M28.021,41.256c1.078,0.194 2.303,0.462 3.263,0.286c0.96,-0.175 1.655,-0.795 2.496,-1.34" style="fill:none;stroke:var(--icon-shadow-color);stroke-width:4.35px;"/></g><path id="Border1" serif:id="Border" d="M37.173,32.611c0.325,-1.754 -0.39,-3.529 -2.135,-4.085c-2.456,-0.783 -9.168,-3.024 -11.594,-2.86c-6.603,0.447 -0.873,6.7 -1.901,6.952c-11.73,2.865 -10.561,-6.354 -10.12,-10.044c0.144,-1.205 -0.388,-2.611 -1.158,-3.463c-0.77,-0.853 -2.299,-1.767 -3.461,-1.653c-1.162,0.114 -3.122,1.013 -3.509,2.338c-4.362,14.932 5.567,28.524 22.748,20.807c1.139,-0.511 1.272,7.612 6.003,3.829c1.848,-1.477 4.618,-9.075 5.127,-11.821Z" style="fill:none;stroke:var(--icon-outline-color);stroke-width:4.35px;"/></g></g></svg>