<?xml version="1.0" encoding="UTF-8" standalone="no"?><!DOCTYPE svg PUBLIC "-//W3C//DTD SVG 1.1//EN" "http://www.w3.org/Graphics/SVG/1.1/DTD/svg11.dtd"><svg width="100%" height="100%" viewBox="0 0 43 43" version="1.1" xmlns="http://www.w3.org/2000/svg" xmlns:xlink="http://www.w3.org/1999/xlink" xml:space="preserve" xmlns:serif="http://www.serif.com/" style="fill-rule:evenodd;clip-rule:evenodd;stroke-linecap:round;stroke-linejoin:round;stroke-miterlimit:1.5;"><path id="Background" d="M2.33,6.493c0.27,-2.014 2.539,-3.751 4.547,-4.06l21.843,0c1.904,0.184 3.546,1.529 5.116,2.598l4.304,3.816c0.979,1.415 1.599,3.155 1.705,4.872l0,22.573c-0.228,1.723 -1.765,3.67 -3.492,3.873l-29.476,0c-1.978,-0.225 -4.281,-1.9 -4.547,-3.873l0,-29.799Z" style="fill:var(--icon-inside-color);"/><path id="BottomLowLight" d="M4.126,34.147c5.251,1.597 3.395,3.261 15.865,3.836c7.319,0.337 11.063,-1.734 18.318,-2.754" style="fill:none;stroke:var(--icon-shadow-color);stroke-width:6.2px;"/><path id="TopLowLight" d="M15.76,11.897c2.658,0.824 4.353,1.087 6.865,1.087c2.505,0 3.592,-0.263 5.958,-1.087" style="fill:none;stroke:var(--icon-shadow-color);stroke-width:6.2px;"/><path id="Border" d="M14.219,31.048c2.011,-0.155 5.955,-0.465 7.972,-0.465c2.309,0 3.274,0.31 5.88,0.465" style="fill:none;stroke:var(--icon-outline-color);stroke-width:3.06px;"/><path id="Border1" serif:id="Border" d="M14.219,35.536c2.011,-0.155 4.016,-0.189 6.033,-0.189c2.309,0 5.213,0.31 7.82,0.465" style="fill:none;stroke:var(--icon-outline-color);stroke-width:3.06px;"/><path id="Border2" serif:id="Border" d="M29.977,3.427c0,0 0.514,5.672 0.163,7.506c-0.237,1.233 -1.065,2.663 -2.274,3.004c-1.773,0.501 -9.004,0.501 -10.872,0c-1.331,-0.357 -2.497,-1.67 -2.842,-3.004c-0.474,-1.834 0,-8.13 0,-8.13" style="fill:none;stroke:var(--icon-outline-color);stroke-width:4.11px;"/><path id="Border3" serif:id="Border" d="M33.024,39.796c0,0 0.46,-7.324 -0.081,-9.594c-0.374,-1.568 -1.58,-3.37 -3.167,-3.654c-3.41,-0.609 -13.912,-0.609 -17.296,0c-1.552,0.279 -2.665,2.114 -3.005,3.654c-0.501,2.27 0,9.594 0,9.594" style="fill:none;stroke:var(--icon-outline-color);stroke-width:4.11px;"/><path id="Border4" serif:id="Border" d="M2.608,6.493c0.27,-2.014 2.539,-3.751 4.547,-4.06c4.398,-0.677 17.35,-0.433 21.843,0c1.904,0.184 3.546,1.529 5.116,2.598c1.57,1.069 3.302,2.368 4.304,3.816c0.979,1.415 1.599,3.155 1.705,4.872c0.284,4.574 0.582,18.165 0,22.573c-0.228,1.723 -1.765,3.67 -3.492,3.873c-5.495,0.646 -23.805,0.646 -29.476,0c-1.978,-0.225 -4.281,-1.9 -4.547,-3.873c-0.758,-5.612 -0.758,-24.156 0,-29.799Z" style="fill:none;stroke:var(--icon-outline-color);stroke-width:3.23px;"/></svg>