<?xml version="1.0" encoding="UTF-8" standalone="no"?><!DOCTYPE svg PUBLIC "-//W3C//DTD SVG 1.1//EN" "http://www.w3.org/Graphics/SVG/1.1/DTD/svg11.dtd"><svg width="100%" height="100%" viewBox="0 0 50 50" version="1.1" xmlns="http://www.w3.org/2000/svg" xmlns:xlink="http://www.w3.org/1999/xlink" xml:space="preserve" xmlns:serif="http://www.serif.com/" style="fill-rule:evenodd;clip-rule:evenodd;stroke-linecap:round;stroke-linejoin:round;stroke-miterlimit:1.5;"><clipPath id="_clip1"><rect id="Settings" x="0.133" y="0.161" width="48.84" height="48.837"/></clipPath><g clip-path="url(#_clip1)"><path id="Background" d="M18.142,8.96c1.067,-0.433 -0.921,-5.373 0.978,-6.397c1.975,-1.066 8.9,-1.066 10.872,0c1.898,1.026 -0.102,5.964 0.959,6.397c1.06,0.434 3.298,-4.443 5.403,-3.797c2.168,0.666 6.91,5.694 7.606,7.791c0.618,1.865 -3.868,3.878 -3.435,4.791c0.434,0.912 5.098,-1.112 6.035,0.682c1.006,1.926 1.006,8.835 0,10.872c-0.912,1.848 -5.601,0.213 -6.035,1.347c-0.434,1.134 4.077,3.406 3.435,5.457c-0.696,2.22 -5.498,7.1 -7.606,7.865c-1.886,0.683 -3.984,-3.712 -5.044,-3.279c-1.06,0.433 0.492,5.007 -1.317,5.88c-2.031,0.98 -8.863,0.98 -10.872,0c-1.797,-0.876 -0.116,-5.446 -1.184,-5.88c-1.068,-0.433 -3.289,3.973 -5.224,3.279c-2.131,-0.764 -6.955,-5.644 -7.56,-7.865c-0.589,-2.165 4.372,-4.323 3.938,-5.457c-0.434,-1.134 -5.488,0.615 -6.538,-1.347c-1.09,-2.036 -1.09,-8.946 0,-10.872c1.079,-1.907 6.105,0.23 6.538,-0.682c0.434,-0.912 -4.509,-2.804 -3.938,-4.791c0.604,-2.097 5.395,-7.125 7.56,-7.791c2.111,-0.649 4.361,4.23 5.43,3.797Zm6.294,8.957c-4.188,0.014 -6.574,3.434 -6.322,6.903c0.256,3.522 3.067,6.425 6.431,6.326c3.49,-0.103 6.028,-2.453 6.364,-5.851c0.404,-4.088 -1.972,-7.393 -6.474,-7.378Z" style="fill:var(--icon-inside-color);"/><g id="High-LowLights" serif:id="High&amp;LowLights"><clipPath id="_clip2"><path d="M18.142,8.96c1.067,-0.433 -0.921,-5.373 0.978,-6.397c1.975,-1.066 8.9,-1.066 10.872,0c1.898,1.026 -0.102,5.964 0.959,6.397c1.06,0.434 3.298,-4.443 5.403,-3.797c2.168,0.666 6.91,5.694 7.606,7.791c0.618,1.865 -3.868,3.878 -3.435,4.791c0.434,0.912 5.098,-1.112 6.035,0.682c1.006,1.926 1.006,8.835 0,10.872c-0.912,1.848 -5.601,0.213 -6.035,1.347c-0.434,1.134 4.077,3.406 3.435,5.457c-0.696,2.22 -5.498,7.1 -7.606,7.865c-1.886,0.683 -3.984,-3.712 -5.044,-3.279c-1.06,0.433 0.492,5.007 -1.317,5.88c-2.031,0.98 -8.863,0.98 -10.872,0c-1.797,-0.876 -0.116,-5.446 -1.184,-5.88c-1.068,-0.433 -3.289,3.973 -5.224,3.279c-2.131,-0.764 -6.955,-5.644 -7.56,-7.865c-0.589,-2.165 4.372,-4.323 3.938,-5.457c-0.434,-1.134 -5.488,0.615 -6.538,-1.347c-1.09,-2.036 -1.09,-8.946 0,-10.872c1.079,-1.907 6.105,0.23 6.538,-0.682c0.434,-0.912 -4.509,-2.804 -3.938,-4.791c0.604,-2.097 5.395,-7.125 7.56,-7.791c2.111,-0.649 4.361,4.23 5.43,3.797Zm6.294,8.957c-4.188,0.014 -6.574,3.434 -6.322,6.903c0.256,3.522 3.067,6.425 6.431,6.326c3.49,-0.103 6.028,-2.453 6.364,-5.851c0.404,-4.088 -1.972,-7.393 -6.474,-7.378Z"/></clipPath><g clip-path="url(#_clip2)"><path id="LeftHighLight" d="M7.396,14.068c0,0 0.301,-2.716 2.175,-4.795c1.723,-1.912 4.462,-2.701 4.462,-2.701" style="fill:none;stroke:var(--icon-highlight-color);stroke-width:3.65px;"/><path id="RightHighLight" d="M34.74,7.432c0,0 2.716,0.3 4.796,2.174c1.913,1.723 2.702,4.462 2.702,4.462" style="fill:none;stroke:var(--icon-highlight-color);stroke-width:3.65px;"/><path id="TopHighLight" d="M19.53,5.01c0,0 2.119,-1.726 4.913,-1.895c2.57,-0.156 5.076,1.202 5.076,1.202" style="fill:none;stroke:var(--icon-highlight-color);stroke-width:3.65px;"/><path id="LeftLowLight" d="M14.602,41.688c0,0 -2.716,-0.3 -4.796,-2.174c-1.913,-1.723 -2.702,-4.462 -2.702,-4.462" style="fill:none;stroke:var(--icon-shadow-color);stroke-width:3.65px;"/><path id="BottomLowLight" d="M29.619,44.047c0,0 -2.2,1.621 -4.999,1.654c-2.574,0.031 -5.012,-1.447 -5.012,-1.447" style="fill:none;stroke:var(--icon-shadow-color);stroke-width:3.65px;"/><path id="RightLowLight" d="M41.946,34.643c0,0 -0.301,2.716 -2.175,4.795c-1.723,1.912 -4.462,2.701 -4.462,2.701" style="fill:none;stroke:var(--icon-shadow-color);stroke-width:3.65px;"/></g></g><path id="Border" d="M18.142,8.96c1.067,-0.433 -0.921,-5.373 0.978,-6.397c1.975,-1.066 8.9,-1.066 10.872,0c1.898,1.026 -0.102,5.964 0.959,6.397c1.06,0.434 3.298,-4.443 5.403,-3.797c2.168,0.666 6.91,5.694 7.606,7.791c0.618,1.865 -3.868,3.878 -3.435,4.791c0.434,0.912 5.098,-1.112 6.035,0.682c1.006,1.926 1.006,8.835 0,10.872c-0.912,1.848 -5.601,0.213 -6.035,1.347c-0.434,1.134 4.077,3.406 3.435,5.457c-0.696,2.22 -5.498,7.1 -7.606,7.865c-1.886,0.683 -3.984,-3.712 -5.044,-3.279c-1.06,0.433 0.492,5.007 -1.317,5.88c-2.031,0.98 -8.863,0.98 -10.872,0c-1.797,-0.876 -0.116,-5.446 -1.184,-5.88c-1.068,-0.433 -3.289,3.973 -5.224,3.279c-2.131,-0.764 -6.955,-5.644 -7.56,-7.865c-0.589,-2.165 4.372,-4.323 3.938,-5.457c-0.434,-1.134 -5.488,0.615 -6.538,-1.347c-1.09,-2.036 -1.09,-8.946 0,-10.872c1.079,-1.907 6.105,0.23 6.538,-0.682c0.434,-0.912 -4.509,-2.804 -3.938,-4.791c0.604,-2.097 5.395,-7.125 7.56,-7.791c2.111,-0.649 4.361,4.23 5.43,3.797Zm6.294,8.957c-4.188,0.014 -6.574,3.434 -6.322,6.903c0.256,3.522 3.067,6.425 6.431,6.326c3.49,-0.103 6.028,-2.453 6.364,-5.851c0.404,-4.088 -1.972,-7.393 -6.474,-7.378Z" style="fill:none;stroke:var(--icon-outline-color);stroke-width:3.44px;"/></g></svg>