<?xml version="1.0" encoding="UTF-8" standalone="no"?><!DOCTYPE svg PUBLIC "-//W3C//DTD SVG 1.1//EN" "http://www.w3.org/Graphics/SVG/1.1/DTD/svg11.dtd"><svg width="100%" height="100%" viewBox="0 0 292 31" version="1.1" xmlns="http://www.w3.org/2000/svg" xmlns:xlink="http://www.w3.org/1999/xlink" xml:space="preserve" xmlns:serif="http://www.serif.com/" style="fill-rule:evenodd;clip-rule:evenodd;stroke-linejoin:round;stroke-miterlimit:2;"><clipPath id="_clip1"><rect id="SliderBody" x="0.032" y="0.017" width="291.419" height="30.308"/></clipPath><g clip-path="url(#_clip1)"><path id="BackSign" d="M15.75,3.566c-11.985,0.569 -18.51,23.041 1.069,23.286c24.299,0.303 232.837,0.549 254.946,-0c27.255,-0.678 20.733,-23.225 -0,-23.286c-22.302,-0.065 -234.122,-1.039 -256.015,0Z" style="fill:var(--icon-inside-color);"/><path id="TopHighLight" d="M281.237,6.714c1.99,0.975 6.922,6.977 5.136,5.942c-1.307,-0.757 -7.956,-1.32 -10.414,-1.717c-13.472,-2.176 -125.714,0.536 -147.749,-0.013c-20.687,-0.516 -108.248,-3.51 -117.94,1.291c-0.222,0.11 -5.921,1.045 -6.658,1.739c-0.503,0.473 2.31,-5.826 3.12,-6.52c15.634,-13.401 103.087,-3.43 125.907,-3.552c21.518,-0.115 130.671,-5.96 148.599,2.831Z" style="fill:var(--icon-highlight-color);"/><path id="BottomDarkLight" d="M4.83,21.087c-1.606,-0.889 -1.857,-4.23 -0.811,-3.795c0.154,0.064 7.53,1.112 9.877,1.655c14.552,3.367 101.408,-0.016 123.479,0.367c20.721,0.36 124.807,2.699 142.172,-1.49c0.212,-0.051 7.069,-0.903 7.808,-1.387c0.504,-0.33 -3.244,4.898 -4.114,5.322c-18.492,9.033 -129.053,2.899 -150.929,3.092c-21.552,0.191 -104.897,4.476 -122.853,-1.657c-1.993,-0.68 -4.328,-1.94 -4.629,-2.107Z" style="fill:var(--icon-shadow-color);"/><path id="Borders" d="M15.761,3.656c-16.815,1.196 -17.624,22.532 1.069,23.286c24.281,0.979 232.83,-0 254.946,-0c22.302,-0 22.302,-23.286 -0,-23.286c-22.302,-0 -234.152,-1.555 -256.015,0Z" style="fill:none;stroke:var(--icon-outline-color);stroke-width:5.9px;"/></g></svg>