<?xml version="1.0" encoding="UTF-8" standalone="no"?><!DOCTYPE svg PUBLIC "-//W3C//DTD SVG 1.1//EN" "http://www.w3.org/Graphics/SVG/1.1/DTD/svg11.dtd"><svg width="100%" height="100%" viewBox="0 0 20 50" version="1.1" xmlns="http://www.w3.org/2000/svg" xmlns:xlink="http://www.w3.org/1999/xlink" xml:space="preserve" xmlns:serif="http://www.serif.com/" style="fill-rule:evenodd;clip-rule:evenodd;stroke-linecap:round;stroke-linejoin:round;stroke-miterlimit:1.5;"><clipPath id="_clip1"><rect id="SliderPin" x="0.028" y="0.11" width="19.412" height="48.906"/></clipPath><g clip-path="url(#_clip1)"><path id="Background" d="M2.019,43.122c-0.113,1.365 4.455,3.14 6.049,3.359c1.595,0.219 8.401,-0.706 8.315,-2.045c-0.472,-7.362 -0.933,-29.947 1.599,-39.857c0.328,-1.283 -5.42,-2.64 -7.148,-2.754c-1.728,-0.114 -8.265,0.711 -8.013,2.071c2.093,11.312 -0.158,31.427 -0.802,39.226Z" style="fill:var(--icon-inside-color);"/><path id="BottomLowLight" d="M6.015,44.964c1.638,-0.162 5.025,-0.423 6.549,-1.215c1.476,-0.767 1.76,-1.741 2.209,-3.502" style="fill:none;stroke:var(--icon-shadow-color);stroke-width:4px;"/><path id="TopHighLight" d="M12.721,4.359c-1.85,0.079 -4.893,0.353 -5.963,1.238c-1.589,1.315 -1.702,1.481 -2.165,2.851" style="fill:none;stroke:var(--icon-highlight-color);stroke-width:3.99px;"/><path id="Border" d="M2.019,43.122c-0.617,3.914 4.891,3.893 6.485,4.112c1.595,0.219 7.749,0.406 7.879,-2.798c0.299,-7.369 0.009,-28.977 1.091,-38.365c0.407,-3.526 -4.912,-4.133 -6.64,-4.246c-1.728,-0.114 -7.83,-0.206 -8.013,3.577c-0.581,12.015 0.419,29.973 -0.802,37.721Z" style="fill:none;stroke:var(--icon-outline-color);stroke-width:3.89px;stroke-linecap:butt;stroke-miterlimit:2;"/></g></svg>