<?xml version="1.0" encoding="UTF-8" standalone="no"?><!DOCTYPE svg PUBLIC "-//W3C//DTD SVG 1.1//EN" "http://www.w3.org/Graphics/SVG/1.1/DTD/svg11.dtd"><svg width="100%" height="100%" viewBox="0 0 66 66" version="1.1" xmlns="http://www.w3.org/2000/svg" xmlns:xlink="http://www.w3.org/1999/xlink" xml:space="preserve" xmlns:serif="http://www.serif.com/" style="fill-rule:evenodd;clip-rule:evenodd;stroke-linejoin:round;stroke-miterlimit:2;"><path id="Background" d="M3.168,32.366c-0.287,-19.595 14.514,-29.185 29.047,-29.226c11.929,-0.033 29.116,11.325 29.505,29.226c0.274,12.597 -10.497,29.498 -29.505,29.591c-15.56,0.076 -28.76,-10.016 -29.047,-29.591Z" style="fill:var(--icon-inside-color);"/><g id="HighLights"><clipPath id="_clip1"><path d="M3.168,32.366c-0.287,-19.595 14.514,-29.185 29.047,-29.226c11.929,-0.033 29.116,11.325 29.505,29.226c0.274,12.597 -10.497,29.498 -29.505,29.591c-15.56,0.076 -28.76,-10.016 -29.047,-29.591Z"/></clipPath><g clip-path="url(#_clip1)"><path id="TopHighLight" d="M61.248,19.252c-0.103,0.235 -0.697,1.584 -2.329,2.216c-0.501,0.194 -1.05,0.297 -1.587,0.286c-1.076,-0.023 -1.892,-0.474 -2.041,-0.555c-3.059,-1.688 -5.455,-3.429 -9.746,-6.211c-2.146,-1.391 -3.458,-2.098 -4.775,-2.738c-0.11,-0.053 -0.416,-0.202 -1.414,-0.579c-0.068,-0.026 -1.079,-0.374 -1.931,-0.558c-3.315,-0.717 -5.211,-0.378 -7.516,0.139c-0.495,0.111 -0.492,0.117 -0.99,0.22c-2.496,0.515 -5.234,1.189 -8.972,2.723c-0.918,0.377 -1.481,0.688 -1.605,0.757c-2.832,1.57 -5.653,3.621 -9.602,5.602c-0.598,0.3 -1.517,0.263 -1.651,0.258c-0.253,-0.01 -1.711,-0.069 -2.877,-1.323c-1.203,-1.293 -1.14,-2.789 -1.129,-3.048c0.072,-1.703 1.138,-2.704 1.322,-2.878c0.974,-0.915 1.07,-0.788 2.364,-1.121c4.326,-1.115 8.687,-3.008 9.125,-3.223c2.217,-1.086 5.925,-3.573 10.071,-4.991c0.269,-0.092 1.739,-0.595 3.47,-0.751c1.652,-0.149 5.139,-0.35 10.102,1.641c2.085,0.837 2.069,0.871 4.134,1.754c3.081,1.317 8.397,3.929 10.201,4.729c3.654,1.621 4.569,1.812 5.234,2.109c1.583,0.706 2.118,2.09 2.211,2.329c0.628,1.624 0.034,2.977 -0.07,3.212Z" style="fill:var(--icon-highlight-color);"/><path id="BottomLowLight" d="M3.536,46.084c0.103,-0.235 0.697,-1.584 2.329,-2.216c0.501,-0.194 1.05,-0.297 1.587,-0.286c1.076,0.023 1.892,0.474 2.041,0.555c3.059,1.688 5.455,3.429 9.746,6.211c2.146,1.391 3.458,2.098 4.775,2.738c0.11,0.053 0.416,0.202 1.414,0.579c0.068,0.026 1.079,0.374 1.931,0.558c3.315,0.717 5.211,0.378 7.516,-0.139c0.495,-0.111 0.492,-0.117 0.99,-0.22c2.496,-0.515 5.234,-1.189 8.972,-2.723c0.918,-0.377 1.481,-0.688 1.605,-0.757c2.832,-1.57 5.653,-3.621 9.602,-5.602c0.598,-0.3 1.517,-0.263 1.651,-0.258c1.711,0.069 2.705,1.137 2.877,1.323c1.203,1.293 1.14,2.789 1.129,3.048c-0.072,1.703 -1.138,2.704 -1.322,2.878c-0.974,0.915 -1.07,0.788 -2.364,1.121c-4.326,1.115 -8.687,3.008 -9.125,3.223c-2.217,1.086 -5.925,3.573 -10.071,4.991c-0.269,0.092 -1.739,0.595 -3.47,0.751c-1.652,0.149 -5.139,0.35 -10.102,-1.641c-2.085,-0.837 -2.069,-0.871 -4.134,-1.754c-3.081,-1.317 -8.397,-3.929 -10.201,-4.729c-3.654,-1.621 -4.569,-1.812 -5.234,-2.109c-1.583,-0.706 -2.118,-2.09 -2.211,-2.329c-0.628,-1.624 -0.034,-2.977 0.07,-3.212Z" style="fill:var(--icon-shadow-color);"/></g></g><path id="Border" d="M3.168,32.366c-0.287,-19.595 14.514,-29.185 29.047,-29.226c11.929,-0.033 29.116,11.325 29.505,29.226c0.274,12.597 -10.497,29.498 -29.505,29.591c-15.56,0.076 -28.76,-10.016 -29.047,-29.591Z" style="fill:none;stroke:var(--icon-outline-color);stroke-width:5.84px;"/></svg>