<?xml version="1.0" encoding="UTF-8" standalone="no"?><!DOCTYPE svg PUBLIC "-//W3C//DTD SVG 1.1//EN" "http://www.w3.org/Graphics/SVG/1.1/DTD/svg11.dtd"><svg width="100%" height="100%" viewBox="0 0 55 57" version="1.1" xmlns="http://www.w3.org/2000/svg" xmlns:xlink="http://www.w3.org/1999/xlink" xml:space="preserve" xmlns:serif="http://www.serif.com/" style="fill-rule:evenodd;clip-rule:evenodd;stroke-linecap:round;stroke-linejoin:round;stroke-miterlimit:1.5;"><path id="BackgroundSpeaker" d="M4.494,17.658c0.158,-1.499 1.211,-3.13 2.608,-3.695c1.521,-0.616 4.58,0.978 6.521,0c3.417,-1.721 10.645,-9.07 13.978,-10.325c2.071,-0.78 5.726,0.602 6.021,2.796c1.003,7.465 1.003,34.117 0,41.995c-0.337,2.646 -3.44,5.951 -6.021,5.274c-3.116,-0.817 -9.529,-8.481 -12.674,-10.178c-1.818,-0.981 -4.456,0.797 -6.195,0c-1.739,-0.797 -3.894,-2.68 -4.239,-4.782c-0.707,-4.311 -0.435,-16.954 0,-21.085Z" style="fill:var(--icon-inside-color);"/><path id="BackgroundSound" d="M40.252,14.18c-1.341,-1.067 0.019,-4.456 1.196,-4.999c1.178,-0.544 4.531,0.198 5.869,1.739c8.478,9.763 4.239,30.522 0,35.974c-1.201,1.544 -4.891,0.815 -5.869,0c-0.978,-0.815 -1.222,-3.812 0,-4.891c5.561,-4.909 5.543,-22.461 -1.196,-27.823Z" style="fill:var(--icon-inside-color);"/><path id="BackgroundSpeakerTop" d="M35.687,39.611l-0.344,-23.276c1.92,3.995 6.05,5.139 6.105,12.331c0.051,6.756 -3.84,7.297 -5.761,10.945Z" style="fill:var(--icon-inside-color);"/><path id="LowLightSound" d="M41.448,41.996c0.667,0.954 0.998,2.27 1.999,2.863c1.017,0.603 2.736,0.503 4.104,0.754" style="fill:none;stroke:var(--icon-shadow-color);stroke-width:3.98px;"/><path id="LowLightSpeaker" d="M5.885,39.611c1.6,0 3.214,-0.211 4.8,0c4.44,0.592 7.365,4.348 10.991,6.056c3.484,1.641 6.255,3.715 9.843,5.112" style="fill:none;stroke:var(--icon-shadow-color);stroke-width:3.98px;"/><path id="BorderSpeaker" d="M16.32,45.888c-0.112,0.012 -0.751,0.081 -1.343,-0.396c-0.182,-0.147 -0.341,-0.332 -0.454,-0.537c-0.032,-0.059 -0.193,-0.352 -0.233,-0.809c-0.125,-1.436 -0.113,-1.436 -0.338,-3.962c-0.758,-8.503 -0.878,-10.362 -0.515,-15.783c0.151,-2.255 0.193,-2.651 0.181,-4.345c-0.003,-0.396 0.006,-0.415 0.283,-0.697c0.004,-0.004 0.692,-0.297 0.695,-0.296c0.232,0.093 0.516,0.107 0.695,0.283c0.178,0.175 0.227,0.449 0.296,0.689c0.008,0.027 -0.006,0.513 0.009,1.376c0.114,6.473 -0.055,6.5 1.691,17.95c0.38,2.492 0.661,4.47 0.658,4.513c-0.015,0.24 0,0.488 -0.068,0.719c-0.031,0.106 -0.212,0.715 -0.866,1.075c-0.329,0.181 -0.634,0.213 -0.691,0.22Z" style="fill:var(--icon-outline-color);"/><path id="BorderSpeaker1" serif:id="BorderSpeaker" d="M4.494,17.658c0.158,-1.499 1.211,-3.13 2.608,-3.695c1.521,-0.616 4.58,0.978 6.521,0c3.417,-1.721 10.645,-9.07 13.978,-10.325c2.071,-0.78 5.726,0.602 6.021,2.796c1.003,7.465 1.003,34.117 0,41.995c-0.337,2.646 -3.44,5.951 -6.021,5.274c-3.116,-0.817 -9.529,-8.481 -12.674,-10.178c-1.818,-0.981 -4.456,0.797 -6.195,0c-1.739,-0.797 -3.894,-2.68 -4.239,-4.782c-0.707,-4.311 -0.435,-16.954 0,-21.085Z" style="fill:none;stroke:var(--icon-outline-color);stroke-width:5.04px;"/><path id="BorderSpeakerTop" d="M35.343,16.335c1.92,3.995 6.05,5.139 6.105,12.331c0.051,6.756 -3.84,7.297 -5.761,10.945" style="fill:none;stroke:var(--icon-outline-color);stroke-width:4.18px;"/><path id="BorderSound" d="M40.252,14.18c-1.341,-1.067 0.019,-4.456 1.196,-4.999c1.178,-0.544 4.531,0.198 5.869,1.739c8.478,9.763 4.239,30.522 0,35.974c-1.201,1.544 -4.891,0.815 -5.869,0c-0.978,-0.815 -1.222,-3.812 0,-4.891c5.561,-4.909 5.543,-22.461 -1.196,-27.823Z" style="fill:none;stroke:var(--icon-outline-color);stroke-width:3.98px;"/></svg>