<?xml version="1.0" encoding="UTF-8" standalone="no"?><!DOCTYPE svg PUBLIC "-//W3C//DTD SVG 1.1//EN" "http://www.w3.org/Graphics/SVG/1.1/DTD/svg11.dtd"><svg width="100%" height="100%" viewBox="0 0 68 46" version="1.1" xmlns="http://www.w3.org/2000/svg" xmlns:xlink="http://www.w3.org/1999/xlink" xml:space="preserve" xmlns:serif="http://www.serif.com/" style="fill-rule:evenodd;clip-rule:evenodd;stroke-linecap:round;stroke-linejoin:round;stroke-miterlimit:1.5;"><clipPath id="_clip1"><rect id="Speed" x="0.018" y="0.184" width="67.037" height="44.933"/></clipPath><g clip-path="url(#_clip1)"><g id="ArrowRight"><path id="Background" d="M63.916,27.748c1.427,-2.167 1.789,-7.133 -0.24,-10.129c-2.265,-3.346 -7.807,-11.043 -10.124,-13.841c-5.687,-6.867 -3.335,10.158 -4.6,10.138c-9.596,-0.151 -12.471,-2.741 -12.878,0.171c-0.272,1.945 3.992,4.255 4.037,7.596c0.034,2.55 -4.252,6.114 -3.863,8.12c0.574,2.957 3.345,0.777 12.687,1.123c1.496,0.055 -1.497,16.525 4.931,11.151c2.737,-2.289 7.592,-10.598 10.049,-14.329Z" style="fill:var(--icon-inside-color);"/><path id="TopHighLight" d="M49.203,6.498c-0.14,-0.026 -0.402,7.92 0.705,7.872c0.238,-0.01 0.238,-0.004 0.475,-0.023c1.184,-0.096 2.518,-0.093 4.542,0.514c0.497,0.149 0.828,0.32 0.901,0.358c1.667,0.862 3.488,2.2 5.744,3.197c0.342,0.151 0.703,-0.108 0.756,-0.145c0.1,-0.071 0.673,-0.481 0.735,-1.998c0.064,-1.564 -0.453,-3.022 -0.543,-3.275c-0.589,-1.66 -1.351,-2.389 -1.483,-2.515c-0.697,-0.666 -0.694,-0.517 -1.33,-0.533c-2.125,-0.052 -6.312,-6.437 -6.561,-6.542c-1.258,-0.534 -1.79,3.485 -3.941,3.091Z" style="fill:var(--icon-highlight-color);"/><path id="TopHighLight1" serif:id="TopHighLight" d="M49.963,41.292c-0.745,-0.068 0.173,-8.321 1.272,-8.565c0.236,-0.052 0.236,-0.059 0.472,-0.102c0.175,-0.032 2.813,-0.691 4.411,-1.725c1.558,-1.009 3.982,-3.773 6.072,-5.388c0.316,-0.244 1.495,0.262 1.763,1.795c0.276,1.581 -9.609,14.003 -11.678,14.974c-0.134,0.063 -1.531,-0.918 -2.312,-0.989Z" style="fill:var(--icon-shadow-color);"/><path id="Border" d="M63.916,27.748c1.427,-2.167 1.789,-7.133 -0.24,-10.129c-2.265,-3.346 -7.807,-11.043 -10.124,-13.841c-5.687,-6.867 -3.335,10.158 -4.6,10.138c-9.596,-0.151 -12.21,-2.74 -12.616,0.172c-0.26,1.86 4.359,4.599 4.381,7.788c0.019,2.692 -4.619,5.807 -4.207,7.929c0.574,2.957 3.084,0.776 12.425,1.122c1.496,0.055 -1.497,16.525 4.931,11.151c2.737,-2.289 7.592,-10.598 10.049,-14.329Z" style="fill:none;stroke:var(--icon-outline-color);stroke-width:3.92px;"/></g><path id="Background1" serif:id="Background" d="M25.457,22.155c0,0 -3.032,4.557 -3.73,5.766c-0.391,0.679 -0.358,1.31 -0.005,2.03c0.404,0.824 3.613,1.432 4.329,1.83c0.598,0.333 1.1,0.171 1.626,-0.261c1.029,-0.846 4.428,-4.95 4.428,-4.95c2.577,-2.813 2.265,-6.924 0.065,-9.325c0,0 -3.605,-4.241 -4.673,-5.101c-0.505,-0.406 -1.071,-0.499 -1.616,-0.187c-0.711,0.407 -3.9,0.992 -4.307,1.807c-0.328,0.655 -0.43,1.364 -0.039,1.993c0.743,1.193 3.922,6.397 3.922,6.397Z" style="fill:var(--icon-inside-color);"/><path id="LowLight" d="M22.317,27.954c0.671,1.317 2.415,1.507 3.293,1.738c0.878,0.231 1.887,0.172 2.972,-0.683" style="fill:none;stroke:var(--icon-shadow-color);stroke-width:4.12px;"/><path id="Border1" serif:id="Border" d="M24.161,21.88c0,0 -3.726,6.28 -4.423,7.488c-0.391,0.679 -0.358,1.31 -0.005,2.03c0.404,0.824 7.418,0.554 7.944,0.122c1.029,-0.846 4.428,-4.95 4.428,-4.95c3.341,-3.646 3.406,-5.678 0.065,-9.325c0,0 -3.605,-4.241 -4.673,-5.101c-0.505,-0.406 -7.504,-0.281 -7.912,0.534c-0.328,0.655 -0.43,1.364 -0.039,1.993c0.743,1.193 4.615,7.208 4.615,7.208Z" style="fill:none;stroke:var(--icon-outline-color);stroke-width:4.14px;"/><path id="Background2" serif:id="Background" d="M8.253,22.512c0,0 -3.032,4.557 -3.73,5.766c-0.391,0.679 -0.358,1.31 -0.005,2.03c0.404,0.824 3.613,1.432 4.329,1.83c0.598,0.333 1.1,0.171 1.626,-0.261c1.029,-0.846 4.428,-4.95 4.428,-4.95c2.577,-2.813 2.265,-6.924 0.065,-9.325c0,0 -3.605,-4.241 -4.673,-5.101c-0.505,-0.406 -1.071,-0.499 -1.616,-0.187c-0.711,0.407 -3.9,0.992 -4.307,1.807c-0.328,0.655 -0.43,1.364 -0.039,1.993c0.743,1.193 3.922,6.397 3.922,6.397Z" style="fill:var(--icon-inside-color);"/><path id="LowLight1" serif:id="LowLight" d="M5.445,28.312c0.671,1.317 2.083,1.507 2.962,1.738c0.878,0.231 1.887,0.172 2.972,-0.683" style="fill:none;stroke:var(--icon-shadow-color);stroke-width:4.12px;"/><path id="Border2" serif:id="Border" d="M6.957,22.238c0,0 -3.726,6.28 -4.423,7.488c-0.391,0.679 -0.358,1.31 -0.005,2.03c0.404,0.824 7.418,0.554 7.944,0.122c1.029,-0.846 4.428,-4.95 4.428,-4.95c3.341,-3.646 3.406,-5.678 0.065,-9.325c0,0 -3.605,-4.241 -4.673,-5.101c-0.505,-0.406 -7.504,-0.281 -7.912,0.534c-0.328,0.655 -0.43,1.364 -0.039,1.993c0.743,1.193 4.615,7.208 4.615,7.208Z" style="fill:none;stroke:var(--icon-outline-color);stroke-width:4.14px;"/></g></svg>