<?xml version="1.0" encoding="UTF-8" standalone="no"?><!DOCTYPE svg PUBLIC "-//W3C//DTD SVG 1.1//EN" "http://www.w3.org/Graphics/SVG/1.1/DTD/svg11.dtd"><svg width="100%" height="100%" viewBox="0 0 57 42" version="1.1" xmlns="http://www.w3.org/2000/svg" xmlns:xlink="http://www.w3.org/1999/xlink" xml:space="preserve" xmlns:serif="http://www.serif.com/" style="fill-rule:evenodd;clip-rule:evenodd;stroke-linecap:round;stroke-linejoin:round;stroke-miterlimit:1.5;"><clipPath id="_clip1"><rect id="Speed" x="0.088" y="0.104" width="56.422" height="41.344"/></clipPath><g clip-path="url(#_clip1)"><path id="Background" d="M8.539,21.378c0,0 -3.112,8.277 -3.827,10.472c-0.402,1.233 -0.367,2.38 -0.005,3.688c0.415,1.496 3.708,2.601 4.443,3.325c0.613,0.604 1.128,0.311 1.668,-0.475c1.056,-1.537 4.544,-8.99 4.544,-8.99c2.644,-5.109 2.324,-12.576 0.067,-16.937c0,-0 -3.7,-7.704 -4.796,-9.265c-0.518,-0.738 -1.099,-0.907 -1.658,-0.34c-0.73,0.739 -5.623,0.412 -6.041,1.892c-0.337,1.189 1.179,3.867 1.581,5.01c0.762,2.167 4.024,11.62 4.024,11.62Z" style="fill:var(--icon-inside-color);"/><path id="LowLight" d="M4.725,33.01c0.403,1.302 1.22,2.208 2.122,2.628c0.901,0.42 1.995,0.407 3.287,-0.109" style="fill:none;stroke:var(--icon-shadow-color);stroke-width:4.55px;"/><path id="Border" d="M7.209,20.878c0,0 -3.823,11.405 -4.539,13.601c-0.402,1.233 -0.367,2.38 -0.005,3.688c0.415,1.496 7.612,1.007 8.152,0.221c1.056,-1.537 4.544,-8.99 4.544,-8.99c3.428,-6.623 3.496,-10.314 0.067,-16.937c0,-0 -3.7,-7.704 -4.796,-9.265c-0.518,-0.738 -7.701,-0.51 -8.119,0.97c-0.337,1.189 -0.442,2.478 -0.04,3.62c0.762,2.167 4.736,13.092 4.736,13.092Z" style="fill:none;stroke:var(--icon-outline-color);stroke-width:4.25px;"/><path id="Background1" serif:id="Background" d="M26.945,21.564c0,0 -3.112,8.277 -3.827,10.472c-0.402,1.233 -0.367,2.38 -0.005,3.688c0.415,1.496 3.708,2.601 4.443,3.325c0.613,0.604 1.128,0.311 1.668,-0.475c1.056,-1.537 4.544,-8.99 4.544,-8.99c2.644,-5.109 2.324,-12.576 0.067,-16.937c0,-0 -3.7,-7.704 -4.796,-9.265c-0.518,-0.738 -1.099,-0.907 -1.658,-0.34c-0.73,0.739 -5.837,0.634 -6.255,2.114c-0.337,1.189 1.393,3.646 1.795,4.788c0.762,2.167 4.024,11.62 4.024,11.62Z" style="fill:var(--icon-inside-color);"/><path id="LowLight1" serif:id="LowLight" d="M22.554,34.187c0.403,1.302 1.22,2.208 2.122,2.628c0.901,0.42 1.995,0.407 3.287,-0.109" style="fill:none;stroke:var(--icon-shadow-color);stroke-width:4.55px;"/><path id="Border1" serif:id="Border" d="M25.615,21.064c0,0 -3.823,11.405 -4.539,13.601c-0.402,1.233 -0.367,2.38 -0.005,3.688c0.415,1.496 7.612,1.007 8.152,0.221c1.056,-1.537 4.544,-8.99 4.544,-8.99c3.428,-6.623 3.496,-10.314 0.067,-16.937c0,-0 -3.7,-7.704 -4.796,-9.265c-0.518,-0.738 -7.701,-0.51 -8.119,0.97c-0.337,1.189 -0.442,2.478 -0.04,3.62c0.762,2.167 4.736,13.092 4.736,13.092Z" style="fill:none;stroke:var(--icon-outline-color);stroke-width:4.25px;"/><path id="Background2" serif:id="Background" d="M44.955,20.82c0,0 -3.112,8.277 -3.827,10.472c-0.402,1.233 -0.367,2.38 -0.005,3.688c0.415,1.496 3.708,2.601 4.443,3.325c0.613,0.604 1.128,0.311 1.668,-0.475c1.056,-1.537 4.544,-8.99 4.544,-8.99c2.644,-5.109 2.324,-12.576 0.067,-16.937c0,-0 -3.7,-7.704 -4.796,-9.265c-0.518,-0.738 -1.099,-0.907 -1.658,-0.34c-0.73,0.739 -5.392,0.578 -5.81,2.058c-0.337,1.189 0.949,3.701 1.35,4.844c0.762,2.167 4.024,11.62 4.024,11.62Z" style="fill:var(--icon-inside-color);"/><path id="LowLight2" serif:id="LowLight" d="M41.299,33.315c0.403,1.302 1.22,2.208 2.122,2.628c0.901,0.42 1.995,0.407 3.287,-0.109" style="fill:none;stroke:var(--icon-shadow-color);stroke-width:4.55px;"/><path id="Border2" serif:id="Border" d="M43.626,20.321c0,0 -3.823,11.405 -4.539,13.601c-0.402,1.233 -0.367,2.38 -0.005,3.688c0.415,1.496 7.612,1.007 8.152,0.221c1.056,-1.537 4.544,-8.99 4.544,-8.99c3.428,-6.623 3.496,-10.314 0.067,-16.937c0,-0 -3.7,-7.704 -4.796,-9.265c-0.518,-0.738 -7.701,-0.51 -8.119,0.97c-0.337,1.189 -0.442,2.478 -0.04,3.62c0.762,2.167 4.736,13.092 4.736,13.092Z" style="fill:none;stroke:var(--icon-outline-color);stroke-width:4.25px;"/></g></svg>