<?xml version="1.0" encoding="UTF-8" standalone="no"?><!DOCTYPE svg PUBLIC "-//W3C//DTD SVG 1.1//EN" "http://www.w3.org/Graphics/SVG/1.1/DTD/svg11.dtd"><svg width="100%" height="100%" viewBox="0 0 65 52" version="1.1" xmlns="http://www.w3.org/2000/svg" xmlns:xlink="http://www.w3.org/1999/xlink" xml:space="preserve" xmlns:serif="http://www.serif.com/" style="fill-rule:evenodd;clip-rule:evenodd;stroke-linejoin:round;stroke-miterlimit:2;"><path d="M52.535,7.434c1.086,-1.037 4.578,-1.738 6.248,0.446c1.894,2.478 0.916,5.139 -0.257,6.125c-1.5,1.261 -4.613,1.748 -6.551,-0.462c-1.816,-2.07 -0.722,-4.885 0.56,-6.109Z" style="fill:var(--icon-inside-color);"/><path d="M34.038,18.009c5.725,-5.725 10.694,-1.737 8.93,0.144c-3.796,4.047 -20.412,20.862 -24.541,24.991c-1.846,1.846 1.303,4.865 3.298,2.87c1.59,-1.59 7.156,-7.287 9.637,-9.679c1.437,-1.386 4.066,-2.11 5.594,-1.616c1.725,0.557 4.786,1.377 4.851,2.045c0.073,0.756 -4.049,2.248 -5.305,2.912c-2.138,1.129 -0.316,4.948 1.884,3.897c1.559,-0.745 5.905,-3.02 8.124,-4.045c1.828,-0.844 2.212,-4.83 -0.029,-5.806c-1.431,-0.623 -3.84,-1.592 -4.925,-2.013c-1.085,-0.421 -1.336,-1.398 -0.508,-2.216c1.052,-1.039 4.448,-4.979 4.994,-4.789c0.598,0.208 1.308,9.33 12.861,6.277c2.698,-0.713 1.827,-4.79 -0.899,-4.197c-5.593,1.215 -8.005,-0.219 -7.495,-6.274c0.359,-4.261 -1.857,-5.376 -3.555,-7.195c-2.331,-2.499 -10.316,-4.556 -15.418,0.942c-2.709,2.919 0.762,5.496 2.505,3.753Z" style="fill:var(--icon-inside-color);"/><path d="M23.57,21.184c0,0.717 -0.582,1.298 -1.298,1.298l-9.28,0c-0.717,0 -1.298,-0.582 -1.298,-1.298c0,-0.717 0.582,-1.298 1.298,-1.298l9.28,0c0.717,0 1.298,0.582 1.298,1.298Z" style="fill:var(--icon-inside-color);"/><path d="M18.055,31.179c0,0.717 -0.582,1.298 -1.298,1.298l-11.149,0c-0.717,0 -1.298,-0.582 -1.298,-1.298c0,-0.717 0.582,-1.298 1.298,-1.298l11.149,0c0.717,0 1.298,0.582 1.298,1.298Z" style="fill:var(--icon-inside-color);"/><path id="BottomLowLight" d="M18.331,40.53c0.042,-0.039 0.286,-0.264 0.553,-0.269c0.082,-0.001 0.157,0.019 0.216,0.061c0.118,0.084 0.151,0.234 0.157,0.262c0.123,0.563 0.164,1.087 0.282,1.959c0.059,0.436 0.114,0.674 0.178,0.899c0.005,0.019 0.02,0.071 0.083,0.22c0.004,0.01 0.072,0.154 0.144,0.254c0.279,0.388 0.537,0.461 0.864,0.529c0.07,0.015 0.071,0.013 0.14,0.03c0.348,0.082 0.745,0.151 1.366,0.123c0.153,-0.007 0.257,-0.027 0.28,-0.032c0.524,-0.103 1.111,-0.302 1.815,-0.404c0.107,-0.015 0.205,0.06 0.22,0.071c0.184,0.14 0.155,0.427 0.15,0.477c-0.034,0.347 -0.237,0.64 -0.273,0.691c-0.231,0.334 -1.178,1.51 -1.221,1.531c-0.23,0.11 -0.224,0.078 -0.413,0.048c-0.633,-0.099 -1.372,-0.045 -1.449,-0.034c-0.392,0.052 -1.135,0.272 -1.787,0.248c-0.042,-0.002 -0.274,-0.01 -0.489,-0.108c-0.205,-0.093 -0.624,-0.311 -0.922,-1.075c-0.125,-0.321 -0.119,-0.327 -0.235,-0.656c-0.174,-0.49 -0.43,-1.404 -0.528,-1.697c-0.199,-0.593 -0.276,-0.699 -0.312,-0.808c-0.085,-0.258 0.036,-0.573 0.057,-0.628c0.142,-0.37 1.082,-1.651 1.124,-1.69Z" style="fill:var(--icon-shadow-color);"/><path id="TopHighLight" d="M52.686,17.529c-0.044,0.135 -0.299,0.911 -1,1.275c-0.215,0.112 -0.451,0.171 -0.681,0.164c-0.462,-0.013 -0.812,-0.273 -0.876,-0.319c-1.313,-0.971 -2.341,-1.973 -4.183,-3.574c-0.921,-0.8 -1.484,-1.207 -2.049,-1.575c-0.047,-0.031 -0.178,-0.116 -0.607,-0.333c-0.029,-0.015 -0.463,-0.215 -0.829,-0.321c-1.423,-0.412 -2.237,-0.217 -3.226,0.08c-0.213,0.064 -0.211,0.067 -0.425,0.126c-1.072,0.296 -2.246,0.684 -3.851,1.567c-0.394,0.217 -0.636,0.396 -0.689,0.436c-1.216,0.903 -2.426,2.083 -4.121,3.223c-0.257,0.173 -0.651,0.151 -0.709,0.148c-0.109,-0.006 -0.735,-0.04 -1.235,-0.761c-0.516,-0.744 -0.489,-1.604 -0.485,-1.754c0.031,-0.98 0.488,-1.556 0.568,-1.656c0.418,-0.527 0.459,-0.453 1.015,-0.645c1.857,-0.641 3.729,-1.731 3.917,-1.854c0.952,-0.625 2.543,-2.056 4.322,-2.871c0.115,-0.053 0.747,-0.342 1.49,-0.432c0.709,-0.086 2.206,-0.202 4.336,0.944c0.895,0.481 0.888,0.501 1.775,1.009c1.322,0.758 3.604,2.261 4.378,2.721c1.569,0.932 1.961,1.043 2.246,1.214c0.679,0.406 0.909,1.202 0.949,1.34c0.27,0.935 0.015,1.713 -0.03,1.848Z" style="fill:var(--icon-highlight-color);"/><path id="BottomLowLight1" serif:id="BottomLowLight" d="M37.633,37.177c0.053,-0.01 0.358,-0.066 0.579,0.072c0.068,0.043 0.12,0.099 0.149,0.166c0.058,0.133 0.014,0.275 0.007,0.301c-0.162,0.533 -0.373,0.99 -0.683,1.778c-0.155,0.394 -0.221,0.621 -0.273,0.842c-0.004,0.018 -0.017,0.07 -0.034,0.227c-0.001,0.011 -0.013,0.167 -0,0.288c0.048,0.472 0.225,0.67 0.462,0.901c0.051,0.05 0.052,0.049 0.101,0.1c0.248,0.255 0.541,0.524 1.065,0.832c0.129,0.076 0.224,0.115 0.245,0.123c0.479,0.195 1.053,0.343 1.679,0.635c0.095,0.044 0.14,0.16 0.147,0.176c0.085,0.215 -0.072,0.437 -0.099,0.476c-0.19,0.27 -0.494,0.404 -0.546,0.428c-0.346,0.153 -1.672,0.624 -1.718,0.618c-0.24,-0.031 -0.22,-0.055 -0.362,-0.181c-0.474,-0.42 -1.105,-0.771 -1.174,-0.803c-0.346,-0.166 -1.059,-0.381 -1.583,-0.75c-0.034,-0.024 -0.22,-0.155 -0.351,-0.351c-0.125,-0.187 -0.367,-0.592 -0.255,-1.386c0.047,-0.333 0.055,-0.335 0.113,-0.67c0.086,-0.5 0.303,-1.396 0.359,-1.692c0.114,-0.599 0.1,-0.729 0.121,-0.838c0.05,-0.26 0.297,-0.457 0.339,-0.491c0.29,-0.231 1.659,-0.793 1.712,-0.803Z" style="fill:var(--icon-shadow-color);"/><path id="BottomLowLight2" serif:id="BottomLowLight" d="M50.339,11.071c0.018,-0.05 0.124,-0.334 0.415,-0.467c0.089,-0.041 0.187,-0.063 0.283,-0.06c0.192,0.005 0.337,0.1 0.364,0.117c0.545,0.356 0.972,0.723 1.737,1.31c0.382,0.293 0.616,0.442 0.851,0.577c0.02,0.011 0.074,0.043 0.252,0.122c0.012,0.005 0.192,0.079 0.344,0.118c0.591,0.151 0.929,0.08 1.339,-0.029c0.088,-0.023 0.088,-0.025 0.177,-0.046c0.445,-0.109 0.933,-0.251 1.599,-0.574c0.164,-0.079 0.264,-0.145 0.286,-0.16c0.505,-0.331 1.007,-0.764 1.711,-1.181c0.107,-0.063 0.27,-0.055 0.294,-0.054c0.305,0.014 0.482,0.24 0.513,0.279c0.214,0.273 0.203,0.588 0.201,0.643c-0.013,0.359 -0.203,2.036 -0.236,2.073c-0.174,0.193 -0.191,0.166 -0.421,0.236c-0.771,0.235 -1.548,0.634 -1.626,0.68c-0.395,0.229 -1.056,0.754 -1.795,1.052c-0.048,0.019 -0.31,0.125 -0.618,0.158c-0.294,0.031 -0.916,0.074 -1.8,-0.346c-0.372,-0.176 -0.369,-0.184 -0.737,-0.37c-0.549,-0.278 -1.496,-0.829 -1.818,-0.997c-0.651,-0.342 -0.814,-0.382 -0.933,-0.445c-0.282,-0.149 -0.377,-0.441 -0.394,-0.491c-0.112,-0.343 -0.006,-2.094 0.012,-2.143Z" style="fill:var(--icon-shadow-color);"/><path d="M50.136,4.921c0.985,-0.94 3.005,-1.887 5.212,-1.945c2.275,-0.06 4.633,0.753 6.193,2.794c3.375,4.414 1.308,9.137 -0.781,10.893c-2.611,2.195 -8.025,3.015 -11.398,-0.83c-3.238,-3.692 -1.513,-8.73 0.773,-10.912Zm2.398,2.513c-1.282,1.224 -2.376,4.038 -0.56,6.109c1.938,2.21 5.05,1.723 6.551,0.462c1.173,-0.986 2.151,-3.647 0.257,-6.125c-1.67,-2.184 -5.161,-1.483 -6.248,-0.446Z" style="fill:var(--icon-outline-color);"/><path d="M34.774,21.633c-2.668,1.125 -5.889,-0.152 -7.159,-2.783c-0.864,-1.79 -1.041,-4.357 1.372,-6.957c3.996,-4.306 9.329,-5.116 13.627,-4.327c3.067,0.563 5.575,1.982 6.878,3.378c2.29,2.455 4.961,4.109 4.476,9.857c-0.099,1.176 0.124,2.514 0.18,2.825c0.123,0.026 0.355,0.07 0.517,0.077c0.732,0.03 1.596,-0.096 2.599,-0.314c3.63,-0.789 6.029,1.523 6.618,4.277c0.571,2.668 -0.614,5.754 -4.094,6.673c-3.579,0.946 -6.352,0.899 -8.517,0.355c0.172,0.675 0.247,1.386 0.221,2.105c-0.094,2.6 -1.586,4.986 -3.527,5.882c-2.208,1.019 -6.531,3.285 -8.083,4.025c-3.021,1.443 -5.925,-0.113 -7.197,-2.762c-0.531,-1.106 -0.733,-2.329 -0.567,-3.485c-2.742,2.727 -6.65,6.722 -7.937,8.009c-3.021,3.021 -7.112,1.666 -8.878,-1.051c-1.319,-2.03 -1.421,-4.643 0.668,-6.731c2.959,-2.959 12.351,-12.452 18.803,-19.055Zm-0.736,-3.624c5.725,-5.725 10.694,-1.737 8.93,0.144c-3.796,4.047 -20.412,20.862 -24.541,24.991c-1.846,1.846 1.303,4.865 3.298,2.87c1.59,-1.59 7.156,-7.287 9.637,-9.679c1.437,-1.386 4.066,-2.11 5.594,-1.616c1.725,0.557 4.786,1.377 4.851,2.045c0.073,0.756 -4.049,2.248 -5.305,2.912c-2.138,1.129 -0.316,4.948 1.884,3.897c1.559,-0.745 5.905,-3.02 8.124,-4.045c1.828,-0.844 2.212,-4.83 -0.029,-5.806c-1.431,-0.623 -3.84,-1.592 -4.925,-2.013c-1.085,-0.421 -1.336,-1.398 -0.508,-2.216c1.052,-1.039 4.448,-4.979 4.994,-4.789c0.598,0.208 1.308,9.33 12.861,6.277c2.698,-0.713 1.827,-4.79 -0.899,-4.197c-5.593,1.215 -8.005,-0.219 -7.495,-6.274c0.359,-4.261 -1.857,-5.376 -3.555,-7.195c-2.331,-2.499 -10.316,-4.556 -15.418,0.942c-2.709,2.919 0.762,5.496 2.505,3.753Z" style="fill:var(--icon-outline-color);"/><path d="M27.043,21.184c0,2.634 -2.138,4.772 -4.772,4.772l-9.28,0c-2.634,0 -4.772,-2.138 -4.772,-4.772c0,-2.634 2.138,-4.772 4.772,-4.772l9.28,0c2.634,0 4.772,2.138 4.772,4.772Zm-3.474,0c0,-0.717 -0.582,-1.298 -1.298,-1.298l-9.28,0c-0.717,0 -1.298,0.582 -1.298,1.298c0,0.717 0.582,1.298 1.298,1.298l9.28,0c0.717,0 1.298,-0.582 1.298,-1.298Z" style="fill:var(--icon-outline-color);"/><path d="M21.528,31.179c0,2.634 -2.138,4.772 -4.772,4.772l-11.149,0c-2.634,0 -4.772,-2.138 -4.772,-4.772c0,-2.634 2.138,-4.772 4.772,-4.772l11.149,0c2.634,0 4.772,2.138 4.772,4.772Zm-3.474,0c0,-0.717 -0.582,-1.298 -1.298,-1.298l-11.149,0c-0.717,0 -1.298,0.582 -1.298,1.298c0,0.717 0.582,1.298 1.298,1.298l11.149,0c0.717,0 1.298,-0.582 1.298,-1.298Z" style="fill:var(--icon-outline-color);"/></svg>