<?xml version="1.0" encoding="UTF-8" standalone="no"?><!DOCTYPE svg PUBLIC "-//W3C//DTD SVG 1.1//EN" "http://www.w3.org/Graphics/SVG/1.1/DTD/svg11.dtd"><svg width="100%" height="100%" viewBox="0 0 46 49" version="1.1" xmlns="http://www.w3.org/2000/svg" xmlns:xlink="http://www.w3.org/1999/xlink" xml:space="preserve" xmlns:serif="http://www.serif.com/" style="fill-rule:evenodd;clip-rule:evenodd;stroke-linecap:round;stroke-linejoin:round;stroke-miterlimit:1.5;"><path id="Background" d="M2.864,12.847c-1.477,2.174 3.413,7.294 3.413,10.955c0,3.661 -4.89,8.79 -3.413,11.01c1.477,2.22 8.946,0.44 12.276,2.312c3.331,1.872 5.12,8.918 7.708,8.918c2.587,0 4.459,-7.046 7.817,-8.918c3.358,-1.872 10.964,-0.092 12.331,-2.312c1.367,-2.22 -4.129,-7.349 -4.129,-11.01c0,-3.661 5.496,-8.781 4.129,-10.955c-1.367,-2.174 -8.973,-0.349 -12.331,-2.092c-3.358,-1.743 -5.229,-8.368 -7.817,-8.368c-2.587,0 -4.377,6.624 -7.708,8.368c-3.331,1.743 -10.799,-0.083 -12.276,2.092Z" style="fill:var(--icon-inside-color);"/><path id="LowLight" d="M22.9,43.713c0,0 3.387,-7.638 6.258,-9.26c2.871,-1.623 10.969,-0.475 10.969,-0.475" style="fill:none;stroke:var(--icon-shadow-color);stroke-width:4.74px;"/><path id="HighLight" d="M22.9,5.626c0,0 -3.387,7.638 -6.258,9.26c-2.871,1.623 -6.918,-3.086 -9.835,1.006c-1.111,1.558 0.237,6.353 0.237,6.353" style="fill:none;stroke:var(--icon-highlight-color);stroke-width:5.99px;"/><path id="Border" d="M2.864,12.847c-1.477,2.174 3.413,7.294 3.413,10.955c0,3.661 -4.89,8.79 -3.413,11.01c1.477,2.22 8.946,0.44 12.276,2.312c3.331,1.872 5.12,8.918 7.708,8.918c2.587,0 4.459,-7.046 7.817,-8.918c3.358,-1.872 10.964,-0.092 12.331,-2.312c1.367,-2.22 -4.129,-7.349 -4.129,-11.01c0,-3.661 5.496,-8.781 4.129,-10.955c-1.367,-2.174 -8.973,-0.349 -12.331,-2.092c-3.358,-1.743 -5.229,-8.368 -7.817,-8.368c-2.587,0 -4.377,6.624 -7.708,8.368c-3.331,1.743 -10.799,-0.083 -12.276,2.092Z" style="fill:none;stroke:var(--icon-outline-color);stroke-width:4.43px;"/></svg>