<?xml version="1.0" encoding="UTF-8" standalone="no"?><!DOCTYPE svg PUBLIC "-//W3C//DTD SVG 1.1//EN" "http://www.w3.org/Graphics/SVG/1.1/DTD/svg11.dtd"><svg width="100%" height="100%" viewBox="0 0 39 44" version="1.1" xmlns="http://www.w3.org/2000/svg" xmlns:xlink="http://www.w3.org/1999/xlink" xml:space="preserve" xmlns:serif="http://www.serif.com/" style="fill-rule:evenodd;clip-rule:evenodd;stroke-linejoin:round;stroke-miterlimit:2;"><path id="Background" d="M14.75,17.089c0.685,0.037 1.268,0.826 1.412,1.497c0.208,0.966 0.069,3.369 -0.166,4.301c-0.146,0.579 -0.704,1.035 -1.246,1.287c-0.875,0.407 -1.688,-0.268 -4.006,1.157c-1.35,0.83 -2.491,2.211 -2.721,4.503c-0.677,6.745 4.651,6.547 6.727,6.81c2.076,0.263 5.373,-2.67 5.73,-5.232c0.636,-4.557 -0.214,-24.213 0,-29.333c0.026,-0.629 0.671,-1.231 1.281,-1.388c0.897,-0.231 3.157,-0.231 4.1,0c0.676,0.166 1.413,0.707 1.561,1.388c1.54,7.118 5.362,8.181 9.468,9.428c0.624,0.189 1.213,0.745 1.394,1.372c0.269,0.93 0.41,3.26 0.218,4.211c-0.134,0.663 -0.707,1.623 -1.372,1.497c-1.756,-0.332 -6.899,-1.279 -9.162,-3.49c-0.26,-0.254 -0.825,0.326 -0.844,0.688c-0.141,2.719 0,15.628 0,15.628c-0.484,7.87 -7.932,12.066 -12.374,12.34c-6.519,0.401 -14.272,-4.755 -14.284,-13.918c-0.012,-9.41 8.862,-13.039 14.284,-12.745Z" style="fill:var(--icon-inside-color);"/></svg>