<?xml version="1.0" encoding="UTF-8" standalone="no"?><!DOCTYPE svg PUBLIC "-//W3C//DTD SVG 1.1//EN" "http://www.w3.org/Graphics/SVG/1.1/DTD/svg11.dtd"><svg width="100%" height="100%" viewBox="0 0 49 51" version="1.1" xmlns="http://www.w3.org/2000/svg" xmlns:xlink="http://www.w3.org/1999/xlink" xml:space="preserve" xmlns:serif="http://www.serif.com/" style="fill-rule:evenodd;clip-rule:evenodd;stroke-linecap:round;stroke-linejoin:round;stroke-miterlimit:1.5;"><path id="Background" d="M24.435,46.855c-8.351,-0.118 -17.394,-8.393 -17.479,-16.664c-0.117,-11.35 10.28,-18.414 17.479,-18.431c8.738,-0.021 17.29,8.404 17.457,18.431c0.153,9.153 -10.037,16.768 -17.457,16.664Z" style="fill:var(--icon-inside-color);"/><path id="BackgroundLeft" d="M14.365,15.283c0.698,0.915 -5.123,7.962 -6.957,6.746c-3.679,-2.44 -4.19,-6.295 -1.619,-8.765c2.128,-2.045 6.264,-1.011 8.576,2.019Z" style="fill:var(--icon-inside-color);"/><path id="BackgroundRight" d="M34.563,15.283c-0.668,0.915 4.905,7.962 6.661,6.746c3.523,-2.44 4.012,-6.295 1.55,-8.765c-2.037,-2.045 -5.998,-1.011 -8.211,2.019Z" style="fill:var(--icon-inside-color);"/><path id="BackgroundTop" d="M19.386,11.535c0,0 -1.715,-5.572 0,-6.686c1.715,-1.114 8.576,-1.114 10.291,0c1.715,1.114 0,6.686 0,6.686l-10.291,0Z" style="fill:var(--icon-inside-color);"/><path id="LowLight" d="M16.573,43.782c0,0 8.076,1.975 15.421,-2.188c5.882,-3.334 9.482,-10.692 9.482,-10.692" style="fill:none;stroke:var(--icon-shadow-color);stroke-width:4.37px;"/><path id="HighLight" d="M30.212,13.576c0,0 -8.259,-0.952 -15.027,4.095c-5.42,4.042 -8.073,11.792 -8.073,11.792" style="fill:none;stroke:var(--icon-highlight-color);stroke-width:4.37px;"/><path id="HighLight1" serif:id="HighLight" d="M19.777,9.065c0,0 -0.061,-0.989 1.812,-2.558c2.077,-1.739 4.187,-1.683 4.187,-1.683" style="fill:none;stroke:var(--icon-highlight-color);stroke-width:4.37px;"/><path id="Border" d="M24.435,46.855c-8.351,-0.118 -17.394,-8.393 -17.479,-16.664c-0.117,-11.35 10.28,-18.414 17.479,-18.431c8.738,-0.021 17.29,8.404 17.457,18.431c0.153,9.153 -10.037,16.768 -17.457,16.664Z" style="fill:none;stroke:var(--icon-outline-color);stroke-width:4.37px;"/><path id="BorderRight" d="M7.408,22.029c-3.679,-2.44 -4.19,-6.295 -1.619,-8.765c2.128,-2.045 6.264,-1.011 8.576,2.019" style="fill:none;stroke:var(--icon-outline-color);stroke-width:4.37px;"/><path id="BorderLeft" d="M41.177,22.029c3.681,-2.44 4.193,-6.295 1.62,-8.765c-2.129,-2.045 -6.268,-1.011 -8.581,2.019" style="fill:none;stroke:var(--icon-outline-color);stroke-width:4.37px;"/><path id="BorderTop" d="M19.386,11.535c0,0 -1.715,-5.572 0,-6.686c1.715,-1.114 8.576,-1.114 10.291,0c1.715,1.114 0,6.686 0,6.686" style="fill:none;stroke:var(--icon-outline-color);stroke-width:4.37px;"/><path id="ArrowBig" d="M25.677,29.291c0.318,-0.729 -0.331,-7.131 0,-10.983c0.047,-0.545 1.641,0 1.641,0c0,0 -2.139,-2.281 -2.641,-2.281c-0.503,0 -2.555,2.195 -2.555,2.195c0,0 1.567,-0.543 1.648,0c0.275,1.845 -0.318,10.326 0,11.069c0.25,0.585 1.653,0.583 1.907,0Z" style="fill:var(--icon-outline-color);stroke:var(--icon-outline-color);stroke-width:2.23px;"/><path id="ArrowSmall" d="M22.644,28.889c0.472,0.64 5.319,2.529 8.489,4.742c0.449,0.313 -0.821,1.422 -0.821,1.422c0,0 3.045,-0.712 3.297,-1.147c0.251,-0.435 -0.623,-3.31 -0.623,-3.31c0,0 -0.313,1.628 -0.824,1.427c-1.735,-0.685 -7.761,-4.688 -8.564,-4.785c-0.631,-0.076 -1.331,1.14 -0.954,1.652Z" style="fill:var(--icon-outline-color);stroke:var(--icon-outline-color);stroke-width:2.23px;"/><circle id="BorderMiddel" cx="24.721" cy="29.308" r="4.029" style="fill:var(--icon-outline-color);"/></svg>