<?xml version="1.0" encoding="UTF-8" standalone="no"?><!DOCTYPE svg PUBLIC "-//W3C//DTD SVG 1.1//EN" "http://www.w3.org/Graphics/SVG/1.1/DTD/svg11.dtd"><svg width="100%" height="100%" viewBox="0 0 49 48" version="1.1" xmlns="http://www.w3.org/2000/svg" xmlns:xlink="http://www.w3.org/1999/xlink" xml:space="preserve" xmlns:serif="http://www.serif.com/" style="fill-rule:evenodd;clip-rule:evenodd;stroke-linecap:round;stroke-linejoin:round;stroke-miterlimit:1.5;"><path id="Background" d="M21.611,21.269c0,0 15.514,0.622 19.425,-0.248c2.196,-0.489 3.378,-1.789 4.042,-3.938c0.76,-2.461 0.76,-9.048 0,-11.342c-0.635,-1.915 -2.043,-2.667 -4.042,-2.943c-3.911,-0.539 -19.425,0.227 -19.425,0.227c-11.17,0 -18.658,8.658 -18.658,17.997c-0,0 -0.608,15.902 -0,19.841c0.287,1.861 1.329,3.243 3.129,3.794c2.35,0.719 8.985,0.719 11.486,0c2.011,-0.577 3.641,-1.74 4.042,-3.794c0.76,-3.897 0,-19.593 0,-19.593Z" style="fill:var(--icon-inside-color);"/><path id="LowLightBottom" d="M3.442,40.735c2.807,1.014 5.709,2.006 8.421,2.006c2.712,0 5.236,-0.991 7.854,-2.006" style="fill:none;stroke:var(--icon-shadow-color);stroke-width:4.55px;"/><path id="LowLightTop" d="M25.7,17.794c3.096,0.089 6.354,0.472 9.287,0.266c2.809,-0.198 5.543,-1.003 8.315,-1.504" style="fill:none;stroke:var(--icon-shadow-color);stroke-width:4.55px;"/><path id="Border" d="M21.611,21.269c0,0 15.514,0.622 19.425,-0.248c2.196,-0.489 3.378,-1.789 4.042,-3.938c0.76,-2.461 0.76,-9.048 0,-11.342c-0.635,-1.915 -2.043,-2.667 -4.042,-2.943c-3.911,-0.539 -19.425,0.227 -19.425,0.227c-11.17,0 -18.658,8.658 -18.658,17.997c-0,0 -0.608,15.902 -0,19.841c0.287,1.861 1.329,3.243 3.129,3.794c2.35,0.719 8.985,0.719 11.486,0c2.011,-0.577 3.641,-1.74 4.042,-3.794c0.76,-3.897 0,-19.593 0,-19.593Z" style="fill:none;stroke:var(--icon-outline-color);stroke-width:4.55px;"/></svg>