<?xml version="1.0" encoding="UTF-8" standalone="no"?><!DOCTYPE svg PUBLIC "-//W3C//DTD SVG 1.1//EN" "http://www.w3.org/Graphics/SVG/1.1/DTD/svg11.dtd"><svg width="100%" height="100%" viewBox="0 0 49 49" version="1.1" xmlns="http://www.w3.org/2000/svg" xmlns:xlink="http://www.w3.org/1999/xlink" xml:space="preserve" xmlns:serif="http://www.serif.com/" style="fill-rule:evenodd;clip-rule:evenodd;stroke-linecap:round;stroke-linejoin:round;stroke-miterlimit:1.5;"><path id="Background" d="M26.792,21.657c0,0 -0.622,15.515 0.248,19.427c0.489,2.196 1.789,3.378 3.938,4.043c2.46,0.76 9.047,0.76 11.341,0c1.915,-0.635 2.667,-2.043 2.943,-4.043c0.539,-3.912 -0.227,-19.427 -0.227,-19.427c0,-11.171 -8.657,-18.66 -17.995,-18.66c0,0 -15.901,-0.609 -19.839,0c-1.861,0.287 -3.243,1.329 -3.793,3.13c-0.719,2.35 -0.719,8.986 0,11.487c0.577,2.011 1.74,3.642 3.793,4.043c3.897,0.76 19.591,-0 19.591,-0Z" style="fill:var(--icon-inside-color);"/><path id="LowLight" d="M28.141,40.363c2.807,1.014 5.709,2.006 8.421,2.006c2.712,0 5.236,-0.991 7.854,-2.006" style="fill:none;stroke:var(--icon-shadow-color);stroke-width:5.06px;"/><path id="Border" d="M26.792,21.657c0,0 -0.622,15.515 0.248,19.427c0.489,2.196 1.789,3.378 3.938,4.043c2.46,0.76 9.047,0.76 11.341,0c1.915,-0.635 2.667,-2.043 2.943,-4.043c0.539,-3.912 -0.227,-19.427 -0.227,-19.427c0,-11.171 -8.657,-18.66 -17.995,-18.66c0,0 -15.901,-0.609 -19.839,0c-1.861,0.287 -3.243,1.329 -3.793,3.13c-0.719,2.35 -0.719,8.986 0,11.487c0.577,2.011 1.74,3.642 3.793,4.043c3.897,0.76 19.591,-0 19.591,-0Z" style="fill:none;stroke:var(--icon-outline-color);stroke-width:5.06px;"/></svg>