<?xml version="1.0" encoding="UTF-8" standalone="no"?><!DOCTYPE svg PUBLIC "-//W3C//DTD SVG 1.1//EN" "http://www.w3.org/Graphics/SVG/1.1/DTD/svg11.dtd"><svg width="100%" height="100%" viewBox="0 0 50 61" version="1.1" xmlns="http://www.w3.org/2000/svg" xmlns:xlink="http://www.w3.org/1999/xlink" xml:space="preserve" xmlns:serif="http://www.serif.com/" style="fill-rule:evenodd;clip-rule:evenodd;stroke-linecap:round;stroke-linejoin:round;stroke-miterlimit:1.5;"><path id="Background" d="M10.104,46.045c-2.485,-3.2 1.875,-6.428 4.716,-4.716c3.134,1.888 3.251,3.857 4.79,3.966c2.53,0.179 -5.425,-18.254 -6.285,-25.072c-0.705,-5.59 5.789,-6.121 7.434,-4.108c1.959,2.397 4.304,13.543 5.22,14.459c0.315,0.315 3.57,-3.758 7.463,0.135c0.404,0.404 3.414,-2.199 6.341,0.728c0.445,0.445 2.628,-2.234 5.109,1.269c1.665,2.35 3.513,8.244 2.368,18.114c-0.565,4.873 -10.243,8.282 -20.016,8.282c-2.057,0 -14.569,-9.745 -17.14,-13.056Z" style="fill:var(--icon-inside-color);"/><path d="M23.881,56.436c0,0 7.729,0.87 11.882,-0.035c5.189,-1.132 10.547,-4.903 10.547,-4.903" style="fill:none;stroke:var(--icon-shadow-color);stroke-width:3.84px;"/><path d="M14.118,20.132c0,0 0.783,-2.478 2.549,-2.99c1.838,-0.532 3.257,-0.056 4.428,0.84" style="fill:none;stroke:var(--icon-highlight-color);stroke-width:2.44px;"/><path id="TopHighLight" d="M27.033,32.381c0.225,-0.289 2.384,-1.216 3.44,-1.061c1.055,0.155 1.881,1.763 2.893,1.993c1.013,0.23 2.104,-0.672 3.182,-0.611c1.125,0.064 2.507,0.954 3.568,0.997c0.963,0.039 1.929,-0.471 2.7,-0.289c0.771,0.182 1.929,1.382 1.929,1.382" style="fill:none;stroke:var(--icon-highlight-color);stroke-width:3.09px;"/><path id="TouchEffect" d="M27.105,7.153c0.848,0.735 2.543,2.204 3.662,5.035c0.996,2.52 0.869,4.904 0.805,6.096" style="fill:none;stroke:var(--icon-outline-color);stroke-width:4.1px;"/><path id="TouchEffect1" serif:id="TouchEffect" d="M21.088,9.589c0.842,0.441 2.526,1.322 3.333,2.593c0.902,1.421 1.042,2.796 1.112,3.483" style="fill:none;stroke:var(--icon-outline-color);stroke-width:4.1px;"/><path id="TouchEffect2" serif:id="TouchEffect" d="M5.696,8.446c1.409,-1.473 4.226,-4.419 7.983,-5.282c4.041,-0.928 7.253,0.307 8.859,0.925" style="fill:none;stroke:var(--icon-outline-color);stroke-width:4.1px;"/><g id="TouchEffect3" serif:id="TouchEffect"><path d="M8.144,29.179c-1.265,-1.197 -3.795,-3.592 -4.749,-6.755c-1.1,-3.645 -0.542,-7.088 -0.263,-8.809" style="fill:none;stroke:var(--icon-outline-color);stroke-width:4.1px;"/></g><path id="TouchEffect4" serif:id="TouchEffect" d="M8.691,20.022c-0.313,-1.351 -0.94,-4.052 0.86,-6.955c1.614,-2.604 4.268,-3.691 5.595,-4.235" style="fill:none;stroke:var(--icon-outline-color);stroke-width:4.1px;"/><path id="Border" d="M10.104,46.045c-2.485,-3.2 1.875,-6.428 4.716,-4.716c3.134,1.888 3.251,3.857 4.79,3.966c2.53,0.179 -5.425,-18.254 -6.285,-25.072c-0.705,-5.59 5.789,-6.121 7.434,-4.108c1.959,2.397 4.304,13.543 5.22,14.459c0.315,0.315 3.57,-3.758 7.463,0.135c0.404,0.404 3.414,-2.199 6.341,0.728c0.445,0.445 2.628,-2.234 5.109,1.269c1.665,2.35 3.513,8.244 2.368,18.114c-0.565,4.873 -10.243,8.282 -20.016,8.282c-2.057,0 -14.569,-9.745 -17.14,-13.056Z" style="fill:none;stroke:var(--icon-outline-color);stroke-width:3.09px;"/></svg>