<?xml version="1.0" encoding="UTF-8" standalone="no"?><!DOCTYPE svg PUBLIC "-//W3C//DTD SVG 1.1//EN" "http://www.w3.org/Graphics/SVG/1.1/DTD/svg11.dtd"><svg width="100%" height="100%" viewBox="0 0 66 46" version="1.1" xmlns="http://www.w3.org/2000/svg" xmlns:xlink="http://www.w3.org/1999/xlink" xml:space="preserve" xmlns:serif="http://www.serif.com/" style="fill-rule:evenodd;clip-rule:evenodd;stroke-linejoin:round;stroke-miterlimit:2;"><clipPath id="_clip1"><rect id="Youtube" x="0.021" y="0.031" width="65.254" height="45.564"/></clipPath><g clip-path="url(#_clip1)"><path id="Background" d="M14.421,0.797c7.963,-1.077 28.237,-0.965 36.928,0c9.118,1.013 12.197,3.038 13,10.527c0.764,7.126 1.318,14.961 0,22.095c-1.15,6.229 -4.358,10.472 -13,11.314c-9.051,0.883 -28.16,1.115 -36.928,0.325c-8.962,-0.807 -12.749,-2.532 -13.997,-11.64c-0.826,-6.031 -0.212,-16.128 0.325,-22.095c0.605,-6.726 4.982,-9.351 13.671,-10.527Zm29.05,21.887c0,-2.041 -16.354,-10.829 -18.147,-9.855c-1.794,0.974 -1.794,18.735 0,19.709c1.794,0.974 18.147,-7.814 18.147,-9.855Z" style="fill:var(--icon-inside-color);"/></g></svg>