<svg xmlns="http://www.w3.org/2000/svg" viewBox="0 0 512 512">
    <path
        d="M505.999,54.828c0,-26.95 -21.879,-48.828 -48.829,-48.828l-402.342,0c-26.95,0 -48.828,21.879 -48.828,48.828l0,402.343c0,26.949 21.879,48.828 48.828,48.828l402.343,0c26.949,0 48.828,-21.879 48.828,-48.828l0,-402.343Z"
        style="fill:#134881;" />
    <path
        d="M469.38,449.998c-0.083,10.71 -8.804,19.379 -19.531,19.379l-197.114,0l-84.253,-145.935l300.898,0l0,126.556Zm-426.757,-0.152l0,-85.687l185.639,-321.539l72.549,0l-156.831,271.645l89.551,155.112l-171.377,0c-10.781,0 -19.531,-8.751 -19.531,-19.531Zm237.875,-143.045l-73.349,0c-8.188,0 -15.757,-4.297 -19.849,-11.39c-4.092,-7.081 -4.092,-15.836 0,-22.917l36.694,-63.559l56.504,97.867Zm169.35,-264.181c10.728,0 19.448,8.669 19.531,19.379l0,244.802l-169.668,0l-66.118,-114.499l86.421,-149.682l129.834,-0Z"
        style="fill:url(#_Radial1);" />
    <radialGradient id="_Radial1" cx="0" cy="0" r="1" gradientUnits="userSpaceOnUse"
        gradientTransform="matrix(506.961593,0,0,506.961593,368.808528,-37.583873)">
        <stop offset="0" style="stop-color:#6be1fb;stop-opacity:1" />
        <stop offset="1" style="stop-color:#38bdfa;stop-opacity:1" />
    </radialGradient>
</svg>