<svg xmlns="http://www.w3.org/2000/svg" viewBox="0 0 512 512">
    <path
        d="M505.997,54.282c0,-26.95 -21.88,-48.829 -48.828,-48.829l-402.344,0c-26.949,0 -48.828,21.88 -48.828,48.829l0,402.347c0,26.95 21.879,48.829 48.828,48.829l402.345,0c26.949,0 48.828,-21.88 48.828,-48.829l0,-402.347l-0.001,0Z"
        style="fill:#4e3188;" />
    <path
        d="M469.372,322.884l0,126.425c0,10.649 -8.54,19.32 -19.141,19.528l-129.111,-0l-84.297,-145.952l232.548,0Zm-167.461,145.952l-228.408,0l114.267,-197.618l114.14,197.618Zm-246.747,-1.284c-6.909,-2.649 -11.934,-9.108 -12.495,-16.796l-0.054,-87.142l92.856,-160.77l72.578,0l-152.885,264.707Zm219.262,-265.008c6.323,0.026 12.373,3.741 15.64,9.246c0.034,0.056 0.098,0.168 0.098,0.168l19.189,33.229l0.166,0.275c3.135,5.485 3.257,12.397 0.122,17.982c-6.431,11.251 -12.964,22.448 -19.448,33.672c-3.184,5.459 -9.209,9.02 -15.615,9.1c-12.222,0.051 -36.728,0.023 -36.763,0.023c-6.323,-0.026 -12.471,-3.398 -15.742,-8.903c-0.073,-0.119 -0.21,-0.363 -0.21,-0.363c0,0 -19.199,-33.233 -19.238,-33.31c-3.14,-5.485 -3.135,-12.572 0,-18.157c0.044,-0.082 0.142,-0.246 0.142,-0.246c0,0 12.847,-22.285 19.277,-33.427c3.184,-5.459 9.224,-9.214 15.625,-9.294c0.107,-0 0.322,-0.005 0.322,-0.005l36.216,0.009l0.22,0Zm181.709,-159.432l-151.977,263.127l165.214,0l0,-244.634c0,-8.577 -5.542,-15.871 -13.237,-18.493Zm-227.807,-1.038l209.194,0l-113.134,195.881l-104.594,-181.097l8.535,-14.783Zm46.963,144.139l-130.215,0l65.107,-112.724l65.107,112.724Z"
        style="fill:url(#_Radial1);" />
    <radialGradient id="_Radial1" cx="0" cy="0" r="1" gradientUnits="userSpaceOnUse"
        gradientTransform="matrix(506.95671,0,0,506.967092,368.801128,-38.131493)">
        <stop offset="0" style="stop-color:#f9a6ff;stop-opacity:1" />
        <stop offset="1" style="stop-color:#ea73ff;stop-opacity:1" />
    </radialGradient>
</svg>