<svg xmlns="http://www.w3.org/2000/svg" viewBox="0 0 512 512">
    <path
        d="M512,127.647l0,256.235c0,70.71 -57.407,128.118 -128.118,128.118l-256.235,0c-70.71,0 -128.118,-57.407 -128.118,-128.118l0,-256.235c0,-70.71 57.407,-128.118 128.118,-128.118l256.235,0c70.71,0 128.118,57.407 128.118,128.118Z"
        style="fill:#a7f175;" />
    <path
        d="M240.622,353.944c-22.235,0 -36.379,-13.489 -36.379,-30.597c0,-73.213 192.526,-87.869 192.526,-165.62c0,-47.431 -54.943,-67.875 -125.079,-67.875c-42.663,0 -90.902,7.896 -135.702,22.026l0,92.753c66.021,-48.087 139.375,-68.671 186.624,-68.671c29.71,0 49.87,8.289 49.87,23.142c0,61.193 -265.53,51.497 -265.53,183.725c0,50.683 34.85,79.721 83.881,79.721c74.163,0 130.259,-72.072 172.226,-159.927l8.503,3.053c-22.102,53.688 -67.84,112.555 -76.749,150.397l95.48,0l0,-195.774l-22.051,0c-32.008,69.555 -78.914,133.648 -127.62,133.648"
    />
</svg>