<svg xmlns="http://www.w3.org/2000/svg" viewBox="0 0 512 512">
    <path
        d="M201.013,278.928c1.866,-33.316 18.181,-62.663 42.79,-83.469c24.138,-20.426 56.623,-32.916 92.061,-32.916c35.438,0 67.893,12.459 92.051,32.967c24.61,20.806 40.904,50.153 42.79,83.438c1.866,34.228 -11.895,66.026 -36.033,89.59c-24.61,23.974 -59.607,39.027 -98.809,39.027c-39.201,0 -74.271,-15.053 -98.86,-39.027c-24.189,-23.615 -37.868,-55.413 -35.992,-89.611Z"
        style="fill:#fff;" />
    <path
        d="M266.681,281.922c0.954,-17.094 9.331,-32.157 21.954,-42.831c27.359,-22.434 67.112,-22.434 94.471,0c12.613,10.675 20.99,25.738 21.954,42.811c0.954,17.565 -6.152,33.839 -18.457,45.969c-12.623,12.305 -30.588,20.026 -50.696,20.026c-20.108,0 -38.104,-7.721 -50.727,-20.026c-12.428,-12.09 -19.462,-28.404 -18.498,-45.949Z"
        style="fill:#265787;" />
    <path
        d="M156.5,316.51c0.113,6.686 2.246,19.688 5.445,29.839c6.911,21.867 18.517,41.963 34.003,58.879c16.603,18.262 36.869,32.822 59.474,42.729c49.837,21.746 106.576,21.631 156.324,-0.318c22.605,-10.005 42.865,-24.635 59.474,-42.944c15.464,-16.973 27.062,-37.101 33.992,-58.992c3.365,-10.7 5.511,-21.745 6.399,-32.926c0.847,-10.908 0.504,-21.877 -1.025,-32.711c-3.001,-21.078 -10.389,-41.295 -21.687,-59.341c-10.476,-16.783 -23.875,-31.554 -39.56,-43.611l-160.128,-122.906c-0.144,-0.113 -0.267,-0.226 -0.42,-0.328c-10.5,-8.06 -28.168,-8.029 -39.714,0c-11.546,8.029 -13.012,21.677 -2.625,30.209l66.765,54.347l-203.503,0.215l-0.277,0c-16.858,0.062 -32.998,11.095 -36.228,25.071c-3.292,14.212 8.132,26.004 25.635,26.066l0,0.062l103.156,-0.195l-184.113,141.209l-0.708,0.523c-17.36,13.341 -22.979,35.448 -12.038,49.445c11.095,14.222 34.7,14.253 52.296,0.082l100.49,-82.218c-0.815,5.905 -1.291,11.852 -1.425,17.811Zm258.137,37.12c-20.693,21.082 -49.671,33.039 -81.008,33.1c-31.337,0.062 -60.386,-11.792 -81.079,-32.813c-9.782,-9.819 -17.331,-21.635 -22.128,-34.638c-4.522,-12.368 -6.273,-25.58 -5.127,-38.699c1.096,-12.803 4.88,-25.232 11.105,-36.474c6.253,-11.244 14.608,-21.183 24.61,-29.276c20.119,-16.407 45.733,-25.276 72.527,-25.307c26.794,-0.031 52.419,8.757 72.558,25.102c10.001,8.057 18.357,17.965 24.61,29.183c6.227,11.225 10.021,23.635 11.136,36.423c1.138,13.112 -0.612,26.316 -5.127,38.679c-4.784,13.022 -12.314,24.864 -22.077,34.72Z"
        style="fill:#ea7600;" />
</svg>