<svg xmlns="http://www.w3.org/2000/svg" viewBox="0 0 512 512">
    <path id="path12"
        d="M33.294,164.146l0,183.691c0,22.724 12.122,43.742 31.816,55.096l159.077,91.857c19.661,11.358 43.97,11.358 63.631,0l159.076,-91.857c19.662,-11.349 31.814,-32.394 31.814,-55.097l0,-183.688c0,-22.733 -12.121,-43.748 -31.814,-55.105l-159.077,-91.834c-19.66,-11.361 -43.97,-11.361 -63.63,-0l-159.077,91.834c-19.664,11.351 -31.816,32.4 -31.816,55.105l0,-0.001Z"
        style="fill:url(#_Linear1);" />
    <path id="path13"
        d="M144.652,224.201l0,63.637c-0,0.009 -0,0.019 -0,0.028c0,8.714 7.17,15.884 15.884,15.884c0.009,0 0.034,-0 0.037,-0c8.724,0 15.902,-7.179 15.902,-15.902c0,-0.003 -0,-0.006 -0,-0.009c-0,-8.726 7.181,-15.907 15.907,-15.907c8.726,0 15.907,7.181 15.907,15.907c-0,26.181 -21.544,47.725 -47.725,47.725c-26.181,0 -47.725,-21.544 -47.725,-47.725l0,-63.628c0,-26.181 21.544,-47.725 47.725,-47.725c26.181,0 47.725,21.544 47.725,47.725c0,8.726 -7.181,15.907 -15.907,15.907c-8.726,0 -15.907,-7.181 -15.907,-15.907c0,-8.726 -7.181,-15.907 -15.907,-15.907c-8.726,0 -15.907,7.181 -15.907,15.907l-0.009,-0.009Zm254.529,63.637c0,0.006 0,0.012 0,0.019c0,8.719 -7.174,15.893 -15.893,15.893c-0.006,0 -0.012,-0 -0.019,-0l-15.912,0l0,15.902c0,4.224 -1.671,8.271 -4.66,11.251c-2.978,2.989 -7.027,4.671 -11.247,4.671c-4.219,0 -8.269,-1.682 -11.247,-4.671c-2.979,-2.986 -4.655,-7.034 -4.66,-11.251l0,-15.902l-31.814,0l0,15.902c0,0.012 0,0.025 0,0.037c0,8.708 -7.166,15.874 -15.874,15.874c-0.012,0 -0.056,-0 -0.065,-0c-8.708,0 -15.874,-7.166 -15.874,-15.874c0,-0.012 0,-0.025 0,-0.037l0,-15.902l-15.921,0c-8.726,0 -15.907,-7.181 -15.907,-15.907c0,-8.726 7.181,-15.907 15.907,-15.907l15.912,0l0,-31.814l-15.912,0c-8.726,0 -15.907,-7.181 -15.907,-15.907c0,-8.726 7.181,-15.907 15.907,-15.907l15.912,0l0,-15.912c-0,-8.726 7.181,-15.907 15.907,-15.907c8.726,0 15.907,7.181 15.907,15.907l0,15.902l31.814,0l0,-15.902c-0,-8.726 7.181,-15.907 15.907,-15.907c8.726,0 15.907,7.181 15.907,15.907l0,15.902l15.912,0c4.215,0 8.262,1.671 11.242,4.66c2.989,2.978 4.671,7.027 4.671,11.247c0,4.219 -1.682,8.269 -4.671,11.247c-2.978,2.986 -7.025,4.667 -11.242,4.669l-15.912,-0l0,31.814l15.912,0c8.718,0.02 15.886,7.185 15.912,15.902l0.009,0Zm-63.637,-47.716l-31.814,0l0,31.814l31.814,0l0,-31.814Z"
        style="fill:#fff;" />
    <linearGradient id="_Linear1" x1="0" y1="0" x2="1" y2="0" gradientUnits="userSpaceOnUse"
        gradientTransform="matrix(214.758281,373.835739,-373.835739,214.758281,77.03714,116.803894)">
        <stop offset="0" style="stop-color:#927be5;stop-opacity:1" />
        <stop offset="1" style="stop-color:#512bd4;stop-opacity:1" />
    </linearGradient>
</svg>