<svg xmlns="http://www.w3.org/2000/svg" viewBox="0 0 512 512">
    <path
        d="M440.878,462.503l-184.88,49.781l-184.883,-49.781l-42.663,-462.201l455.096,0l-42.669,462.201l-0.001,0Z"
        style="fill:#2062af;" />
    <path d="M255.996,37.739l0,434.84l0.418,0.114l149.616,-40.288l34.534,-394.666l-184.568,0Z"
        style="fill:#3c9cd7;" />
    <path
        d="M256,94.28l141.561,0l0.005,-0.002l-0.001,0.002l-5.642,55.814l-0.001,0.002l-0.004,0l-135.919,58.112l-15.114,-25.495l15.114,-29.475l7.544,-3.142l-7.544,0l-16.747,-27.393l16.747,-28.423Zm0,114.14l131.117,0l-15.053,173.089l-116.022,33.866l-16.641,-32.264l16.595,-28.721l64.014,-18.033l4.391,-72.75l-68.401,-0.218l-12.492,-30.332l12.492,-24.637Z"
        style="fill:#fff;" />
    <path
        d="M256,150.096l-137.514,0l-6.898,-55.816l144.412,0l0,55.816Zm0,265.267l-116.614,-34.48l-7.526,-87.174l57.697,0l3.762,45.155l62.681,15.513l0,60.986Zm0,-151.974l-127.902,-0.408l-0.007,-0.084l-0.197,0.084l-4.388,-54.563l132.325,-55.11l0.169,-0.07l0,54.97l-0.496,0.212l0.496,0l0,54.969Z"
        style="fill:#ebebeb;" />
</svg>