<svg xmlns="http://www.w3.org/2000/svg" viewBox="0 0 512 512">
    <path
        d="M255.002,4.994c-141.269,0 -255.472,115.044 -255.472,257.37c0,113.768 73.173,210.071 174.684,244.155c12.691,2.562 17.34,-5.538 17.34,-12.352c0,-5.967 -0.418,-26.418 -0.418,-47.728c-71.066,15.343 -85.865,-30.68 -85.865,-30.68c-11.421,-29.828 -28.343,-37.494 -28.343,-37.494c-23.26,-15.766 1.694,-15.766 1.694,-15.766c25.801,1.705 39.34,26.418 39.34,26.418c22.836,39.199 59.635,28.123 74.439,21.304c2.113,-16.619 8.885,-28.123 16.075,-34.513c-56.68,-5.967 -116.315,-28.123 -116.315,-126.983c0,-28.123 10.145,-51.132 26.22,-69.027c-2.536,-6.39 -11.421,-32.814 2.541,-68.179c0,0 21.571,-6.819 70.208,26.418c20.823,-5.634 42.298,-8.5 63.87,-8.524c21.571,0 43.56,2.986 63.865,8.524c48.643,-33.237 70.214,-26.418 70.214,-26.418c13.962,35.366 5.072,61.789 2.536,68.179c16.498,17.895 26.225,40.903 26.225,69.027c0,98.86 -59.635,120.587 -116.739,126.983c9.308,8.095 17.34,23.432 17.34,47.722c0,34.513 -0.418,62.213 -0.418,70.731c0,6.819 4.654,14.919 17.34,12.362c101.511,-34.095 174.684,-130.392 174.684,-244.161c0.418,-142.325 -114.202,-257.37 -255.048,-257.37Z"
        style="fill:#fff;" />
</svg>