<svg xmlns="http://www.w3.org/2000/svg" viewBox="0 0 512 512">
    <path
        d="M481.721,-1.17l-41.124,460.734l-184.869,51.248l-184.369,-51.165l-41.082,-460.817l451.442,-0Z"
        style="fill:#e44d26;" />
    <path d="M255.979,471.647l149.411,-41.415l35.124,-393.736l-184.535,-0l0,435.151Z"
        style="fill:#f16529;" />
    <path
        d="M176.065,149.533l79.956,0l0,-56.498l-141.745,0l1.333,15.166l13.875,155.745l126.454,0l0,-56.54l-74.706,0l-5.166,-57.873Zm12.708,142.662l-56.706,0l7.916,88.747l115.788,32.124l0.25,-0.083l0,-58.79l-0.25,0.083l-62.956,-16.999l-4.042,-45.082Z"
        style="fill:#ebebeb;" />
    <path
        d="M255.813,263.946l69.581,0l-6.541,73.289l-63.039,16.999l0,58.79l115.871,-32.124l0.833,-9.541l13.291,-148.786l1.375,-15.166l-131.37,0l0,56.54Zm0,-170.952l0,56.54l136.495,0l1.125,-12.708l2.583,-28.666l1.333,-15.166l-141.537,0Z"
        style="fill:#fff;" />
</svg>