<svg xmlns="http://www.w3.org/2000/svg" viewBox="0 0 512 512">
    <path
        d="M66.898,28.068c-22.385,13.277 -66.47,63.947 -66.898,77.224l0,22c0,27.858 26.062,52.359 49.708,52.359c28.414,0 52.082,-23.539 52.082,-51.483c0,27.944 22.855,51.483 51.269,51.483c28.414,0 50.542,-23.539 50.542,-51.483c0,27.944 24.288,51.483 52.702,51.483l0.513,0c28.414,0 52.723,-23.539 52.723,-51.483c0,27.944 22.107,51.483 50.521,51.483c28.414,0 51.269,-23.539 51.269,-51.483c0,27.944 23.668,51.483 52.082,51.483c23.646,0 49.708,-24.501 49.708,-52.359l0,-22c-0.406,-13.298 -44.513,-63.947 -66.898,-77.224c-69.549,-2.459 -117.782,-2.865 -189.661,-2.865c-71.879,0 -169.864,1.133 -189.661,2.865Zm136.34,138.457c-2.715,4.746 -6.093,9.065 -10.006,12.871c-10.711,10.498 -25.421,16.997 -41.627,16.997c-15.586,0 -30.573,-6.093 -41.712,-16.997c-3.891,-3.806 -6.842,-7.868 -9.535,-12.614l-0.021,0c-2.694,4.746 -6.457,8.83 -10.348,12.636c-11.16,10.882 -26.148,16.997 -41.734,16.976c-1.946,0 -3.977,-0.534 -5.623,-1.112c-2.288,23.796 -3.25,46.523 -3.592,63.092l0,0.086c-0.043,8.424 -0.086,15.329 -0.128,24.95c0.449,49.901 -4.939,161.718 22,189.191c41.755,9.749 118.573,14.175 195.648,14.196c77.075,-0.021 153.893,-4.447 195.648,-14.196c26.939,-27.473 21.551,-139.29 22,-189.191c-0.043,-9.621 -0.086,-16.527 -0.128,-24.95l0,-0.086c-0.342,-16.591 -1.304,-39.318 -3.592,-63.092c-1.646,0.577 -3.677,1.112 -5.623,1.112c-15.586,0 -30.573,-6.093 -41.712,-16.997c-3.891,-3.806 -7.675,-7.868 -10.369,-12.614l-0.021,0c-2.694,4.725 -5.644,8.809 -9.535,12.614c-11.139,10.904 -26.126,16.997 -41.712,16.976c-16.206,0 -30.894,-6.5 -41.627,-16.976c-3.913,-3.806 -7.269,-8.146 -10.006,-12.871c-2.672,4.725 -6.008,9.065 -9.899,12.871c-11.139,10.904 -26.126,16.997 -41.712,16.976c-0.556,0 -1.133,-0.021 -1.689,-0.021l-0.021,0c-0.556,0 -1.133,0.021 -1.689,0.021c-15.607,0.021 -30.595,-6.072 -41.734,-16.976c-3.87,-3.806 -7.205,-8.146 -9.899,-12.871Zm-42.845,55.395l0,0.021l0.021,0c16.976,0.043 32.049,0 50.713,20.396c14.709,-1.561 30.06,-2.33 45.432,-2.288c15.372,-0.021 30.744,0.727 45.432,2.288c18.686,-20.396 33.738,-20.354 50.713,-20.396l0.021,0l0,-0.021c8.017,0 40.087,0 62.429,62.75l23.988,86.097c17.788,64.033 -5.687,65.594 -34.978,65.658c-43.423,-1.625 -67.475,-33.16 -67.475,-64.696c-24.031,3.934 -52.082,5.922 -80.132,5.922c-28.05,0 -56.101,-1.988 -80.132,-5.922c0,31.535 -24.052,63.071 -67.475,64.696c-29.291,-0.064 -52.766,-1.625 -34.978,-65.658l23.988,-86.097c22.342,-62.75 54.412,-62.75 62.429,-62.75Zm96.167,49.324c-0.043,0.043 -45.732,42.012 -53.942,56.913l29.911,-1.197l0,26.084c0,1.24 12.016,0.727 24.031,0.171c12.016,0.556 24.031,1.069 24.031,-0.171l0,-26.084l29.911,1.197c-8.21,-14.902 -53.942,-56.913 -53.942,-56.913Z" />
</svg>
