<svg xmlns="http://www.w3.org/2000/svg" viewBox="0 0 512 512">
    <rect x="0" y="0" width="512" height="512" style="fill:#f7df1e;" />
    <path
        d="M134.625,427.875l39.167,-23.708c7.542,13.417 14.417,24.75 30.917,24.75c15.792,0 25.792,-6.167 25.792,-30.25l0,-163.625l48.125,0l0,164.292c0,49.833 -29.208,72.5 -71.833,72.5c-38.5,-0 -60.833,-19.917 -72.167,-43.958Zm170.125,-5.167l39.167,-22.667c10.333,16.833 23.708,29.208 47.417,29.208c19.917,0 32.667,-9.958 32.667,-23.708c0,-16.5 -13.042,-22.333 -35.042,-31.958l-12.042,-5.167c-34.708,-14.792 -57.75,-33.333 -57.75,-72.5c0,-36.083 27.5,-63.583 70.458,-63.583c30.583,0 52.583,10.667 68.375,38.5l-37.458,24.042c-8.25,-14.792 -17.167,-20.625 -30.917,-20.625c-14.083,0 -23.042,8.917 -23.042,20.625c0,14.417 8.917,20.292 29.542,29.208l12.042,5.167c40.917,17.542 63.917,35.417 63.917,75.625c0,43.292 -34.042,67 -79.75,67c-44.625,-0 -73.5,-21.333 -87.583,-49.167Z" />
</svg>