<svg xmlns="http://www.w3.org/2000/svg" viewBox="0 0 512 512">
    <path
        d="M3.84,128.965c0,-69.752 56.632,-126.405 126.405,-126.405l252.789,0c69.773,0 126.405,56.632 126.405,126.405l0,252.789c0,69.773 -56.632,126.405 -126.405,126.405l-252.789,0c-69.773,0 -126.405,-56.632 -126.405,-126.405l0,-252.789Z"
        style="fill:#fd3;" />
    <path
        d="M339.933,99.007l-45.866,0l38.258,67.201l-84.125,-67.201l-45.867,0l42.063,82.072l-87.931,-82.072l-45.867,0l45.867,104.553l-45.867,209.083l45.867,0l87.931,-223.975l-42.063,223.975l45.867,0l84.125,-238.955l-38.258,238.955l45.866,0l84.127,-261.305l-84.127,-52.222l0,-0.108Z"
        style="fill:#1c1c1e;" />
</svg>