<svg xmlns="http://www.w3.org/2000/svg" viewBox="0 0 512 512">
    <path
        d="M109.401,306.276c-24.301,0 -36.359,-14.573 -41.089,-29.798c5.278,24.768 33.78,48.897 123.722,59.612c84.992,10.199 140.294,-15.385 159.005,-27.283c0,0 12.618,-5.465 5.062,2.967c0,0 -53.567,48.493 -158.362,49.117c-104.999,0.516 -188.272,-51.428 -187.848,-104.123c-0.5,-52.475 82.853,-104.531 187.848,-104.107c104.999,0.5 158.362,49.101 158.362,49.101c7.576,8.416 -5.062,2.999 -5.062,2.999c-18.663,-11.87 -73.793,-35.263 -159.005,-27.283c-83.697,7.916 -111.028,35.891 -120.288,54.566c-3.482,7.249 -5.078,14.085 -5.465,20.958c2.263,-17.976 13.65,-39.046 43.044,-39.046c33.344,0 43.464,27.283 43.464,45.962c0,18.899 -10.183,46.182 -43.464,46.182l0.076,0.176Zm337.826,-18.147l44.323,0l0,15.837l-63.05,0l0,-87.519l18.631,0l0,71.574l0.096,0.108Zm-68.42,-31.297l37.219,0l0,47.242l-12.414,0l-1.859,-10.979c-4.718,5.373 -11.559,13.29 -27.751,13.29c-21.474,0 -40.889,-15.101 -40.889,-45.759c0,-23.925 13.542,-46.398 43.684,-46.398c27.315,0 38.074,17.428 39.154,29.394l-18.631,0c0,-3.406 -6.325,-14.385 -19.491,-14.385c-13.274,0 -25.612,9.028 -25.612,31.485c0,23.941 13.274,30.034 26.036,30.034c4.09,0 17.756,-1.579 21.522,-19.255l-20.738,0l0,-14.741l-0.228,0.072Zm-268.966,-32.109c-19.367,0 -30.985,14.977 -30.985,35.687c0,20.598 11.667,35.687 30.985,35.687c19.367,0 30.985,-14.993 30.985,-35.687c0,-20.598 -11.667,-35.687 -30.985,-35.687Zm50.132,23.317l9.044,0l0,7.904l0.22,0c2.279,-3.218 6.637,-9.544 16.992,-9.544c15.149,0 26.036,12.602 26.036,28.347c0,13.386 -7.856,30.862 -27.331,30.862c-7.636,0 -12.65,-3.53 -15.133,-7.496l-0.22,0l0,28.127l-9.603,0l-0.004,-78.199Zm24.317,49.525c10.463,0 17.556,-8.904 17.556,-21.194c0,-7.185 -2.951,-21.41 -17.772,-21.41c-13.838,0 -15.369,14.649 -15.369,23.725c0,14.853 9.496,18.835 15.585,18.835l0,0.044Zm86.068,-11.011c-0.328,2.655 -2.951,10.603 -10.135,15.289c-2.623,1.719 -6.325,3.874 -15.477,3.874c-16.024,0 -25.596,-11.886 -25.596,-28.127c0,-17.352 8.496,-31.077 27.331,-31.077c16.46,0 24.521,12.854 24.521,32.749l-41.748,0c0,11.683 5.561,18.411 16.572,18.411c9.044,0 14.401,-6.841 14.729,-11.027l9.588,0l0.216,-0.092Zm-10.151,-14.869c-0.548,-8.668 -4.262,-16.696 -15.929,-16.696c-8.824,0 -15.789,8.028 -15.789,16.696l31.717,0Zm63.906,32.329l-9.603,0l0,-34.436c0,-9.715 -2.843,-14.649 -12.198,-14.649c-5.449,0 -15.041,3.434 -15.041,18.615l0,30.438l-9.603,0l0,-56.034l9.06,0l0,7.904l0.22,0c2.079,-2.999 7.405,-9.528 17.212,-9.528c8.824,0 19.959,3.53 19.959,19.491l0,38.202"
        style="fill:#b3b3b3;" />
    <path
        d="M105.107,299.983c-24.536,0 -36.795,-14.573 -41.529,-29.798c5.341,24.752 34.204,48.897 125.021,59.612c85.852,10.167 141.794,-15.385 160.721,-27.299c0,0 12.758,-5.449 5.106,2.983c0,0 -54.007,48.493 -160.301,49.117c-106.086,0.5 -190.423,-51.428 -189.783,-104.123c-0.516,-52.475 83.697,-104.527 189.787,-104.107c106.074,0.5 160.301,49.101 160.301,49.101c7.652,8.416 -5.106,2.999 -5.106,2.999c-18.867,-11.87 -74.669,-35.263 -160.721,-27.299c-84.788,7.932 -112.323,35.903 -121.583,54.582c-3.248,6.538 -5.129,13.669 -5.529,20.958c2.279,-17.976 13.79,-39.062 43.464,-39.062c33.576,0 43.899,27.299 43.899,46.182c0,18.883 -10.291,45.978 -43.899,45.978l0.152,0.176Zm342.12,-18.163l44.759,0l0,15.853l-63.69,0l0,-87.551l18.819,0l0,71.606l0.112,0.092Zm-69.076,-31.281l37.654,0l0,47.23l-12.542,0l-1.875,-10.947c-4.778,5.357 -11.699,13.29 -28.191,13.29c-21.738,0 -41.529,-15.101 -41.529,-45.759c0,-23.925 13.682,-46.398 44.103,-46.398c27.551,0 38.514,17.428 39.589,29.394l-18.819,0c0,-3.406 -6.417,-14.385 -19.711,-14.385c-13.43,0 -25.832,9.028 -25.832,31.485c0,23.941 13.43,30.034 26.252,30.034c4.138,0 17.944,-1.579 21.742,-19.255l-20.958,0l0,-14.741l0.116,0.052Zm-273.264,-32.109c-19.583,0 -31.405,14.977 -31.405,35.687c0,20.582 11.79,35.687 31.405,35.687c19.583,0 31.421,-14.993 31.421,-35.687c0,-20.598 -11.79,-35.687 -31.421,-35.687Zm50.788,23.301l9.136,0l0,7.916l0.22,0c2.327,-3.218 6.717,-9.544 17.196,-9.544c15.321,0 26.252,12.602 26.252,28.347c0,13.37 -7.948,30.862 -27.551,30.862c-7.716,0 -12.774,-3.53 -15.321,-7.496l-0.22,0l0,28.127l-9.699,0l0,-78.103l-0.012,-0.108Zm24.521,49.557c10.587,0 17.756,-8.916 17.756,-21.21c0,-7.201 -2.999,-21.426 -17.976,-21.426c-13.977,0 -15.525,14.665 -15.525,23.741c0,14.853 9.588,18.835 15.745,18.835l0,0.06Zm86.927,-11.043c-0.328,2.687 -2.967,10.603 -10.243,15.305c-2.639,1.719 -6.389,3.874 -15.633,3.874c-16.212,0 -25.816,-11.886 -25.816,-28.143c0,-17.336 8.604,-31.065 27.751,-31.065c16.632,0 24.74,12.854 24.74,32.749l-42.168,0c0,11.683 5.605,18.399 16.756,18.399c9.152,0 14.541,-6.825 14.869,-11.011l9.715,0l0.028,-0.108Zm-10.275,-14.853c-0.564,-8.684 -4.31,-16.696 -16.1,-16.696c-8.932,0 -15.993,8.012 -15.993,16.696l32.093,0Zm64.55,32.313l-9.699,0l0,-34.42c0,-9.731 -2.875,-14.649 -12.354,-14.649c-5.513,0 -15.213,3.418 -15.213,18.615l0,30.438l-9.715,0l0,-56.038l9.152,0l0,7.904l0.22,0c2.091,-2.999 7.48,-9.528 17.412,-9.528c8.916,0 20.163,3.53 20.163,19.491l0,37.998"
        style="fill:#5586a4;" />
    <path
        d="M510.776,296.829c-0.004,2.916 -1.59,5.611 -4.138,7.029c-1.283,0.732 -2.655,1.079 -4.138,1.079c-1.483,0 -2.843,-0.36 -4.122,-1.079c-1.252,-0.707 -2.297,-1.73 -3.031,-2.967c-0.731,-1.228 -1.114,-2.633 -1.107,-4.062c-0.001,-1.424 0.381,-2.822 1.107,-4.046c1.497,-2.518 4.223,-4.06 7.153,-4.046c2.934,-0.016 5.666,1.526 7.169,4.046c0.726,1.224 1.109,2.622 1.107,4.046Zm-1.591,0c0,-1.795 -0.656,-3.342 -1.967,-4.606c-1.237,-1.258 -2.937,-1.958 -4.702,-1.935c-1.77,-0.027 -3.476,0.673 -4.718,1.935c-1.272,1.189 -1.982,2.865 -1.951,4.606c-0.03,1.746 0.679,3.426 1.951,4.622c1.311,1.279 2.875,1.919 4.718,1.919c1.763,0.032 3.464,-0.663 4.702,-1.919c1.311,-1.279 1.967,-2.811 1.967,-4.622Zm-10.415,-4.326l3.95,0c1.107,0 1.935,0.22 2.435,0.672c0.5,0.452 0.752,1.032 0.752,1.763c0.011,0.561 -0.197,1.105 -0.58,1.515c-0.376,0.42 -0.984,0.736 -1.811,0.92c0.272,0.085 0.526,0.217 0.752,0.392c0.283,0.262 0.521,0.568 0.704,0.908c0.016,0.016 0.5,0.86 1.435,2.483l-2.607,0l-1.703,-2.951c-0.28,-0.328 -0.58,-0.484 -0.86,-0.484c-0.08,0 -0.156,0 -0.28,0.032l0,3.406l-2.203,0l0.016,-8.656Zm2.203,3.67l0.952,0c0.624,0 1.079,-0.092 1.343,-0.296c0.264,-0.204 0.392,-0.452 0.392,-0.78c0,-0.328 -0.124,-0.592 -0.376,-0.78c-0.252,-0.188 -0.672,-0.312 -1.279,-0.312l-1.032,0l-0,2.167Z"
        style="fill:#999;" />
    <path
        d="M510.776,294.738c0.007,1.424 -0.376,2.824 -1.107,4.046c-0.72,1.247 -1.769,2.273 -3.031,2.967c-1.26,0.72 -2.687,1.097 -4.138,1.091c-1.467,0 -2.843,-0.376 -4.122,-1.091c-1.279,-0.716 -2.279,-1.703 -3.031,-2.967c-0.732,-1.222 -1.115,-2.622 -1.107,-4.046c-0,-1.435 0.376,-2.795 1.107,-4.062c0.73,-1.235 1.776,-2.254 3.031,-2.951c1.279,-0.72 2.655,-1.079 4.122,-1.079c1.467,0 2.875,0.36 4.138,1.079c1.263,0.72 2.295,1.703 3.031,2.951c0.736,1.247 1.107,2.623 1.107,4.062Zm-1.591,0c0.032,-1.745 -0.685,-3.422 -1.967,-4.606c-1.295,-1.295 -2.875,-1.935 -4.702,-1.935c-1.827,0 -3.418,0.64 -4.718,1.935c-1.272,1.189 -1.982,2.865 -1.951,4.606c-0.03,1.746 0.679,3.426 1.951,4.622c1.246,1.252 2.952,1.942 4.718,1.907c1.843,0 3.406,-0.624 4.702,-1.907c1.295,-1.283 1.967,-2.811 1.967,-4.622Zm-10.415,-4.342l3.95,0c1.107,0 1.935,0.236 2.435,0.672c0.5,0.436 0.752,1.048 0.752,1.779c0,0.58 -0.188,1.079 -0.58,1.515c-0.376,0.408 -0.984,0.72 -1.811,0.92c0.272,0.085 0.526,0.217 0.752,0.392c0.279,0.259 0.517,0.56 0.704,0.892c0.016,0.016 0.5,0.86 1.435,2.499l-2.607,0l-1.703,-2.951c-0.28,-0.328 -0.58,-0.5 -0.86,-0.5c-0.08,0 -0.156,0.016 -0.28,0.032l0,3.418l-2.203,0l0.016,-8.668Zm2.203,3.686l0.952,0c0.624,0 1.079,-0.108 1.343,-0.312c0.248,-0.182 0.394,-0.472 0.392,-0.78c0.007,-0.3 -0.133,-0.586 -0.376,-0.764c-0.248,-0.204 -0.672,-0.312 -1.279,-0.312l-1.032,0l-0,2.167Z"
        style="fill:#5586a4;" />
</svg>