<svg xmlns="http://www.w3.org/2000/svg" viewBox="0 0 512 512">
    <path
        d="M511.76,97.135l0,317.73c0,50.015 -40.605,90.62 -90.62,90.62l-330.52,0c-50.015,0 -90.62,-40.605 -90.62,-90.62l0,-317.73c0,-50.015 40.605,-90.62 90.62,-90.62l330.52,0c50.015,0 90.62,40.605 90.62,90.62Z"
        style="fill:#001e36;" />
    <path
        d="M115.24,356.425l0,-219.38c0,-1.59 0.68,-2.4 2.06,-2.4c3.65,0 7,0 12,-0.17c5,-0.17 10.47,-0.23 16.31,-0.34l18.54,-0.35c6.52,-0.113 12.983,-0.17 19.39,-0.17c17.393,0 32.06,2.173 44,6.52c10.733,3.638 20.524,9.62 28.66,17.51c6.899,6.843 12.229,15.104 15.62,24.21c3.208,8.867 4.83,18.23 4.79,27.66c0,18.32 -4.233,33.427 -12.7,45.32c-8.525,11.943 -20.509,20.991 -34.33,25.92c-14.42,5.38 -30.45,7.2 -48.07,7.2c-5,0 -8.58,-0.05 -10.64,-0.17c-2.06,-0.12 -5.15,-0.17 -9.27,-0.17l0,68.49c0.019,0.131 0.029,0.263 0.029,0.395c0,1.353 -1.009,2.51 -2.349,2.695c-0.255,0.04 -0.515,0.04 -0.77,0l-40.87,0c-1.64,-0.03 -2.4,-0.94 -2.4,-2.77Zm46.36,-180.58l0,71.55c2.973,0.233 5.72,0.347 8.24,0.34l11.33,0c8.337,-0.028 16.619,-1.351 24.55,-3.92c6.798,-2.011 12.877,-5.934 17.51,-11.3c4.46,-5.26 6.69,-12.593 6.69,-22c0.173,-6.641 -1.563,-13.195 -5,-18.88c-3.602,-5.499 -8.813,-9.756 -14.92,-12.19c-7.961,-3.092 -16.464,-4.551 -25,-4.29c-5.5,0 -10.363,0.057 -14.59,0.17c-4.227,0.113 -7.147,0.287 -8.76,0.52l-0.05,0Z"
        style="fill:#31a8ff;" />
    <path
        d="M409.35,234.385c-6.452,-3.319 -13.325,-5.744 -20.43,-7.21c-7.827,-1.799 -15.829,-2.721 -23.86,-2.75c-4.343,-0.116 -8.679,0.406 -12.87,1.55c-2.67,0.591 -5.046,2.112 -6.7,4.29c-1.118,1.742 -1.712,3.77 -1.71,5.84c0.061,2.007 0.785,3.938 2.06,5.49c2.004,2.346 4.455,4.271 7.21,5.66c4.892,2.627 9.934,4.964 15.1,7c11.522,3.859 22.533,9.104 32.79,15.62c6.98,4.413 12.76,10.488 16.82,17.68c3.422,6.821 5.137,14.371 5,22c0.203,10.061 -2.673,19.947 -8.24,28.33c-5.964,8.503 -14.247,15.117 -23.86,19.05c-10.44,4.587 -23.327,6.88 -38.66,6.88c-9.736,0.091 -19.455,-0.831 -29,-2.75c-7.523,-1.379 -14.846,-3.687 -21.8,-6.87c-1.533,-0.787 -2.476,-2.398 -2.41,-4.12l-0,-37.07c-0.088,-0.74 0.244,-1.47 0.86,-1.89c0.602,-0.344 1.359,-0.276 1.89,0.17c8.221,4.847 17.149,8.379 26.46,10.47c8.201,2.058 16.615,3.152 25.07,3.26c8,0 13.893,-1.03 17.68,-3.09c3.476,-1.592 5.7,-5.097 5.66,-8.92c0,-2.98 -1.717,-5.843 -5.15,-8.59c-3.433,-2.747 -10.42,-6.047 -20.96,-9.9c-10.779,-3.751 -20.999,-8.948 -30.38,-15.45c-6.709,-4.66 -12.236,-10.825 -16.14,-18c-3.383,-6.763 -5.098,-14.239 -5,-21.8c-0.029,-9.108 2.47,-18.048 7.22,-25.82c5.396,-8.539 13.149,-15.336 22.32,-19.57c10.067,-5.033 22.653,-7.55 37.76,-7.55c8.849,-0.074 17.69,0.554 26.44,1.88c6.334,0.814 12.525,2.497 18.4,5c0.945,0.271 1.709,0.972 2.06,1.89c0.233,0.837 0.347,1.702 0.34,2.57l0,34.68c0.056,0.815 -0.325,1.6 -1,2.06c-0.938,0.459 -2.039,0.452 -2.97,-0.02Z"
        style="fill:#31a8ff;" />
</svg>