<svg xmlns="http://www.w3.org/2000/svg" viewBox="0 0 512 512">
    <path
        d="M482.849,358.294l0,-239.039l-207.238,-119.255l0,91.694l81.093,46.642c3.18,1.59 3.18,6.36 0,7.95l-96.464,55.652c-2.65,1.59 -6.36,1.59 -9.01,0l-96.464,-55.652c-3.18,-1.59 -3.18,-6.36 0,-7.95l81.093,-46.642l0,-91.694l-206.708,119.255l0,239.039l0,-1.06l0,1.06l79.503,-45.582l0,-93.814c0,-3.18 3.71,-5.83 6.89,-3.71l96.464,55.652c2.65,1.59 4.77,4.77 4.77,7.95l0,111.304c0,3.18 -3.71,5.83 -6.89,3.71l-81.093,-46.642l-79.503,45.582l206.708,119.255l206.708,-119.255l-79.503,-45.582l-81.093,46.642c-2.65,1.59 -6.89,-0.53 -6.89,-3.71l0,-111.304c0,-3.18 1.59,-6.36 4.77,-7.95l96.464,-55.652c2.65,-1.59 6.89,0.53 6.89,3.71l0,93.814l79.503,45.582Z"
        style="fill:#ccc;" />
    <path
        d="M256,512l206.708,-119.255l-79.503,-45.582l-81.093,46.642c-2.65,1.59 -6.89,-0.53 -6.89,-3.71l0,-111.304c0,-3.18 1.59,-6.36 4.77,-7.95l96.464,-55.652c2.65,-1.59 6.89,0.53 6.89,3.71l0,93.814l79.503,45.582l0,-239.039l-226.849,130.915l0,261.83Z"
        style="fill:#a6a6a6;" />
    <path
        d="M275.611,0l0,91.694l81.093,46.642c3.18,1.59 3.18,6.36 0,7.95l-96.464,55.652c-2.65,1.59 -6.36,1.59 -9.01,0l-96.464,-55.652c-3.18,-1.59 -3.18,-6.36 0,-7.95l81.093,-46.642l0,-91.694l-206.708,119.255l226.849,130.915l226.849,-130.915l-207.238,-119.255Z"
        style="fill:#fff;" />
    <path
        d="M209.358,393.805l-81.093,-46.642l-79.503,45.582l206.708,119.255l-0,-261.83l-226.319,-130.915l0,239.039l0,-1.06l0,1.06l79.503,-45.582l0,-93.814c0,-3.18 3.71,-5.83 6.89,-3.71l96.464,55.652c2.65,1.59 4.77,4.77 4.77,7.95l0,111.304c-0.53,3.18 -4.24,5.3 -7.42,3.71Z"
        style="fill:#ccc;" />
</svg>