<svg viewBox="0 0 512 512" xmlns="http://www.w3.org/2000/svg" fill-rule="evenodd" clip-rule="evenodd" stroke-linejoin="round" stroke-miterlimit="2"><path d="M505.999 54.828C505.999 27.878 484.12 6 457.17 6H54.828C27.878 6 6 27.879 6 54.828v402.343c0 26.949 21.879 48.828 48.828 48.828h402.343c26.949 0 48.828-21.879 48.828-48.828V54.828z" fill="#134881"/><path d="M2477 909.311c-.17 21.934-18.03 39.689-40 39.689h-403.69l-172.55-298.876H2477v259.187zM1603 909V733.513L1983.19 75h148.58l-321.19 556.33L1993.98 949H1643c-22.08 0-40-17.923-40-40zm487.17-292.956h-150.22c-16.77 0-32.27-8.8-40.65-23.327-8.38-14.502-8.38-32.433 0-46.935l75.15-130.17 115.72 200.432zM2437 75c21.97 0 39.83 17.755 40 39.689v501.355h-347.48l-135.41-234.495L2171.1 75H2437z" fill="url(#prefix___Radial1)" transform="translate(-740.09 6) scale(.48828)"/><defs><radialGradient id="prefix___Radial1" cx="0" cy="0" r="1" gradientUnits="userSpaceOnUse" gradientTransform="translate(2271.03 -89.26) scale(1038.26)"><stop offset="0" stop-color="#6be1fb"/><stop offset="1" stop-color="#38bdfa"/></radialGradient></defs></svg>