<?xml version="1.0" encoding="UTF-8" standalone="no"?>
<!DOCTYPE svg PUBLIC "-//W3C//DTD SVG 1.1//EN" "http://www.w3.org/Graphics/SVG/1.1/DTD/svg11.dtd">
<svg width="100%" height="100%" viewBox="0 0 512 512" version="1.1" xmlns="http://www.w3.org/2000/svg" xmlns:xlink="http://www.w3.org/1999/xlink" xml:space="preserve" xmlns:serif="http://www.serif.com/" style="fill-rule:evenodd;clip-rule:evenodd;stroke-linejoin:round;stroke-miterlimit:2;">
    <g transform="matrix(0.304658,0,0,0.304658,256,256)">
        <g transform="matrix(1,0,0,1,-1666.67,-1666.67)">
            <g transform="matrix(69.4444,0,0,69.4444,0,0)">
                <path d="M15.129,13.134C14.082,13.755 12.02,16.125 12,16.746L12,17.775C12,19.078 13.219,20.224 14.325,20.224C15.654,20.224 16.761,19.123 16.761,17.816C16.761,19.123 17.83,20.224 19.159,20.224C20.488,20.224 21.523,19.123 21.523,17.816C21.523,19.123 22.659,20.224 23.988,20.224L24.012,20.224C25.341,20.224 26.478,19.123 26.478,17.816C26.478,19.123 27.512,20.224 28.841,20.224C30.17,20.224 31.239,19.123 31.239,17.816C31.239,19.123 32.346,20.224 33.675,20.224C34.781,20.224 36,19.078 36,17.775L36,16.746C35.981,16.124 33.918,13.755 32.871,13.134C29.618,13.019 27.362,13 24,13C20.638,13 16.055,13.053 15.129,13.134L15.129,13.134ZM21.506,19.61C21.379,19.832 21.221,20.034 21.038,20.212C20.537,20.703 19.849,21.007 19.091,21.007C18.362,21.007 17.661,20.722 17.14,20.212C16.958,20.034 16.82,19.844 16.694,19.622L16.693,19.622C16.567,19.844 16.391,20.035 16.209,20.213C15.687,20.722 14.986,21.008 14.257,21.007C14.166,21.007 14.071,20.982 13.994,20.955C13.887,22.068 13.842,23.131 13.826,23.906L13.826,23.91C13.824,24.304 13.822,24.627 13.82,25.077C13.841,27.411 13.589,32.641 14.849,33.926C16.802,34.382 20.395,34.589 24,34.59L24,34.59C27.605,34.589 31.198,34.382 33.151,33.926C34.411,32.641 34.159,27.411 34.18,25.077C34.178,24.627 34.176,24.304 34.174,23.91L34.174,23.906C34.158,23.13 34.113,22.067 34.006,20.955C33.929,20.982 33.834,21.007 33.743,21.007C33.014,21.007 32.313,20.722 31.792,20.212C31.61,20.034 31.433,19.844 31.307,19.622L31.306,19.622C31.18,19.843 31.042,20.034 30.86,20.212C30.339,20.722 29.638,21.007 28.909,21.006C28.151,21.006 27.464,20.702 26.962,20.212C26.779,20.034 26.622,19.831 26.494,19.61C26.369,19.831 26.213,20.034 26.031,20.212C25.51,20.722 24.809,21.007 24.08,21.006C24.054,21.006 24.027,21.005 24.001,21.005L24,21.005C23.974,21.005 23.947,21.006 23.921,21.006C23.191,21.007 22.49,20.722 21.969,20.212C21.788,20.034 21.632,19.831 21.506,19.61L21.506,19.61ZM19.502,22.201L19.502,22.202L19.503,22.202C20.297,22.204 21.002,22.202 21.875,23.156C22.563,23.083 23.281,23.047 24,23.049L24,23.049C24.719,23.048 25.438,23.083 26.125,23.156C26.999,22.202 27.703,22.204 28.497,22.202L28.498,22.202L28.498,22.201C28.873,22.201 30.373,22.201 31.418,25.136L32.54,29.163C33.372,32.158 32.274,32.231 30.904,32.234C28.873,32.158 27.748,30.683 27.748,29.208C26.624,29.392 25.312,29.485 24,29.485L24,29.485C22.688,29.485 21.376,29.392 20.252,29.208C20.252,30.683 19.127,32.158 17.096,32.234C15.726,32.231 14.628,32.158 15.46,29.163L16.582,25.136C17.627,22.201 19.127,22.201 19.502,22.201L19.502,22.201ZM24,24.508L24,24.508C23.998,24.51 21.861,26.473 21.477,27.17L22.876,27.114L22.876,28.334C22.876,28.392 23.438,28.368 24,28.342L24,28.342C24.562,28.368 25.124,28.392 25.124,28.334L25.124,27.114L26.523,27.17C26.139,26.473 24,24.508 24,24.508L24,24.508L24,24.508L24,24.508Z" style="fill:hsl(45, 54%, 58%);"/>
            </g>
        </g>
    </g>
</svg>
