<?xml version="1.0" encoding="UTF-8" standalone="no"?>
<!DOCTYPE svg PUBLIC "-//W3C//DTD SVG 1.1//EN" "http://www.w3.org/Graphics/SVG/1.1/DTD/svg11.dtd">
<svg width="100%" height="100%" viewBox="0 0 512 512" version="1.1" xmlns="http://www.w3.org/2000/svg" xmlns:xlink="http://www.w3.org/1999/xlink" xml:space="preserve" xmlns:serif="http://www.serif.com/" style="fill-rule:evenodd;clip-rule:evenodd;stroke-linejoin:round;stroke-miterlimit:2;">
    <g transform="matrix(0.181894,0,0,0.181894,256,256)">
        <g transform="matrix(1,0,0,1,-1666.67,-1666.67)">
            <g transform="matrix(138.889,0,0,138.889,0,0)">
                <path d="M14.982,19.61C15.436,18.91 15.891,18.01 16.218,16.855C16.973,17.145 17.491,17.491 17.809,17.764C16.994,18.573 16.019,19.202 14.945,19.609L14.982,19.609L14.982,19.61ZM6.182,17.755C6.518,17.482 7.027,17.145 7.782,16.845C8.118,18.009 8.555,18.909 9.018,19.609C7.96,19.193 7.001,18.562 6.2,17.755L6.182,17.755ZM16.818,11.091C16.79,10.281 16.708,9.472 16.573,8.673C17.573,8.309 18.3,7.873 18.809,7.473C19.519,8.559 19.958,9.8 20.091,11.091L16.818,11.091ZM7.845,6.891C7.316,6.696 6.817,6.427 6.364,6.091C7.13,5.358 8.032,4.781 9.018,4.391C8.591,5.027 8.173,5.845 7.836,6.891L7.846,6.891L7.845,6.891ZM14.982,4.391C15.969,4.779 16.87,5.357 17.636,6.091C17.182,6.426 16.684,6.695 16.155,6.891C15.884,6.005 15.486,5.163 14.973,4.391L14.982,4.391ZM14.8,9.118C14.89,9.718 14.982,10.364 15,11.091L9,11.091C9.027,10.364 9.09,9.709 9.182,9.118C11.037,9.452 12.936,9.452 14.791,9.118L14.8,9.118ZM12,7.545C11.09,7.545 10.29,7.473 9.61,7.364C10.336,5.127 11.464,4.227 12,3.909C12.518,4.227 13.655,5.136 14.382,7.364C13.594,7.487 12.798,7.548 12,7.545ZM5.182,7.473C5.862,7.99 6.62,8.395 7.427,8.673C7.292,9.473 7.21,10.28 7.182,11.091L3.872,11.091C4.016,9.797 4.468,8.556 5.191,7.473L5.181,7.473L5.182,7.473ZM3.872,12.909L7.182,12.909C7.218,13.691 7.272,14.409 7.382,15.064C6.544,15.352 5.763,15.782 5.072,16.336C4.418,15.299 4.008,14.127 3.872,12.909ZM12,14.364C10.91,14.364 9.973,14.454 9.155,14.6C9.075,14.04 9.023,13.476 9,12.91L15,12.91C14.973,13.518 14.927,14.09 14.855,14.6C13.913,14.43 12.957,14.348 12,14.355L12,14.364ZM12,20.091C11.455,19.764 10.255,18.791 9.527,16.364C10.344,16.231 11.172,16.17 12,16.182C12.955,16.182 13.773,16.245 14.482,16.364C13.755,18.818 12.555,19.764 12.009,20.091L12,20.091ZM18.927,16.327C18.237,15.772 17.456,15.342 16.618,15.055C16.728,14.344 16.794,13.628 16.818,12.909L20.128,12.909C19.991,14.124 19.581,15.293 18.928,16.327L18.927,16.327ZM12,2C6.477,2 2,6.477 2,12C2,17.523 6.477,22 12,22C17.523,22 22,17.523 22,12C22,6.477 17.523,2 12,2Z" style="fill:hsl(45, 54%, 58%);"/>
            </g>
        </g>
    </g>
</svg>
